<ttFont>
    <TTGlyph name=".notdef" xMin="32" yMin="0" xMax="440" yMax="780">
      <contour>
        <pt x="32" y="0" on="1"/>
        <pt x="32" y="780" on="1"/>
        <pt x="440" y="780" on="1"/>
        <pt x="440" y="0" on="1"/>
      </contour>
      <contour>
        <pt x="75" y="43" on="1"/>
        <pt x="397" y="43" on="1"/>
        <pt x="397" y="737" on="1"/>
        <pt x="75" y="737" on="1"/>
      </contour>
    </TTGlyph>
    <TTGlyph name="A" xMin="27" yMin="0" xMax="599" yMax="698">
      <contour>
        <pt x="536" y="0" on="1"/>
        <pt x="460" y="217" on="1"/>
        <pt x="163" y="217" on="1"/>
        <pt x="87" y="0" on="1"/>
        <pt x="27" y="0" on="1"/>
        <pt x="274" y="698" on="1"/>
        <pt x="351" y="698" on="1"/>
        <pt x="599" y="0" on="1"/>
      </contour>
      <contour>
        <pt x="313" y="641" on="1"/>
        <pt x="309" y="641" on="1"/>
        <pt x="178" y="269" on="1"/>
        <pt x="444" y="269" on="1"/>
      </contour>
    </TTGlyph>
    <TTGlyph name="AE" xMin="3" yMin="0" xMax="822" yMax="698">
      <contour>
        <pt x="413" y="216" on="1"/>
        <pt x="178" y="216" on="1"/>
        <pt x="65" y="0" on="1"/>
        <pt x="3" y="0" on="1"/>
        <pt x="370" y="698" on="1"/>
        <pt x="822" y="698" on="1"/>
        <pt x="822" y="645" on="1"/>
        <pt x="473" y="645" on="1"/>
        <pt x="473" y="381" on="1"/>
        <pt x="805" y="381" on="1"/>
        <pt x="805" y="328" on="1"/>
        <pt x="473" y="328" on="1"/>
        <pt x="473" y="53" on="1"/>
        <pt x="822" y="53" on="1"/>
        <pt x="822" y="0" on="1"/>
        <pt x="413" y="0" on="1"/>
      </contour>
      <contour>
        <pt x="401" y="645" on="1"/>
        <pt x="203" y="269" on="1"/>
        <pt x="413" y="269" on="1"/>
        <pt x="413" y="645" on="1"/>
      </contour>
    </TTGlyph>
    <TTGlyph name="Aacute" xMin="27" yMin="0" xMax="599" yMax="942">
      <component glyphName="A" x="0" y="0" flags="0x204"/>
      <component glyphName="acute.case" x="13" y="0" flags="0x4"/>
    </TTGlyph>
    <TTGlyph name="Acircumflex" xMin="27" yMin="0" xMax="599" yMax="930">
      <component glyphName="A" x="0" y="0" flags="0x204"/>
      <component glyphName="circumflex.case" x="13" y="0" flags="0x4"/>
    </TTGlyph>
    <TTGlyph name="Adieresis" xMin="27" yMin="0" xMax="599" yMax="884">
      <component glyphName="A" x="0" y="0" flags="0x204"/>
      <component glyphName="dieresis.case" x="13" y="0" flags="0x4"/>
    </TTGlyph>
    <TTGlyph name="Agrave" xMin="27" yMin="0" xMax="599" yMax="942">
      <component glyphName="A" x="0" y="0" flags="0x204"/>
      <component glyphName="grave.case" x="13" y="0" flags="0x4"/>
    </TTGlyph>
    <TTGlyph name="Aring" xMin="27" yMin="0" xMax="599" yMax="966">
      <component glyphName="A" x="0" y="0" flags="0x204"/>
      <component glyphName="ring.case" x="13" y="0" flags="0x4"/>
    </TTGlyph>
    <TTGlyph name="Atilde" xMin="27" yMin="0" xMax="599" yMax="892">
      <component glyphName="A" x="0" y="0" flags="0x204"/>
      <component glyphName="tilde.case" x="13" y="0" flags="0x4"/>
    </TTGlyph>
    <TTGlyph name="B" xMin="99" yMin="0" xMax="574" yMax="698">
      <contour>
        <pt x="99" y="698" on="1"/>
        <pt x="372" y="698" on="1"/>
        <pt x="454" y="698" on="0"/>
        <pt x="547" y="605" on="0"/>
        <pt x="547" y="522" on="1"/>
        <pt x="547" y="486" on="0"/>
        <pt x="528" y="432" on="0"/>
        <pt x="498" y="396" on="0"/>
        <pt x="459" y="374" on="0"/>
        <pt x="440" y="370" on="1"/>
        <pt x="440" y="366" on="1"/>
        <pt x="464" y="363" on="0"/>
        <pt x="512" y="340" on="0"/>
        <pt x="550" y="299" on="0"/>
        <pt x="574" y="238" on="0"/>
        <pt x="574" y="197" on="1"/>
        <pt x="574" y="154" on="0"/>
        <pt x="549" y="82" on="0"/>
        <pt x="502" y="29" on="0"/>
        <pt x="437" y="0" on="0"/>
        <pt x="397" y="0" on="1"/>
        <pt x="99" y="0" on="1"/>
      </contour>
      <contour>
        <pt x="159" y="53" on="1"/>
        <pt x="381" y="53" on="1"/>
        <pt x="444" y="53" on="0"/>
        <pt x="510" y="122" on="0"/>
        <pt x="510" y="177" on="1"/>
        <pt x="510" y="214" on="1"/>
        <pt x="510" y="268" on="0"/>
        <pt x="444" y="337" on="0"/>
        <pt x="381" y="337" on="1"/>
        <pt x="159" y="337" on="1"/>
      </contour>
      <contour>
        <pt x="159" y="389" on="1"/>
        <pt x="366" y="389" on="1"/>
        <pt x="423" y="389" on="0"/>
        <pt x="483" y="450" on="0"/>
        <pt x="483" y="498" on="1"/>
        <pt x="483" y="536" on="1"/>
        <pt x="483" y="584" on="0"/>
        <pt x="423" y="645" on="0"/>
        <pt x="366" y="645" on="1"/>
        <pt x="159" y="645" on="1"/>
      </contour>
    </TTGlyph>
    <TTGlyph name="C" xMin="63" yMin="-12" xMax="571" yMax="710">
      <contour>
        <pt x="335" y="-12" on="1"/>
        <pt x="205" y="-12" on="0"/>
        <pt x="63" y="169" on="0"/>
        <pt x="63" y="347" on="1"/>
        <pt x="63" y="524" on="0"/>
        <pt x="205" y="710" on="0"/>
        <pt x="335" y="710" on="1"/>
        <pt x="419" y="710" on="0"/>
        <pt x="534" y="630" on="0"/>
        <pt x="566" y="561" on="1"/>
        <pt x="517" y="532" on="1"/>
        <pt x="494" y="589" on="0"/>
        <pt x="401" y="656" on="0"/>
        <pt x="335" y="656" on="1"/>
        <pt x="237" y="656" on="0"/>
        <pt x="127" y="516" on="0"/>
        <pt x="127" y="386" on="1"/>
        <pt x="127" y="307" on="1"/>
        <pt x="127" y="178" on="0"/>
        <pt x="237" y="42" on="0"/>
        <pt x="335" y="42" on="1"/>
        <pt x="405" y="42" on="0"/>
        <pt x="499" y="113" on="0"/>
        <pt x="522" y="173" on="1"/>
        <pt x="571" y="144" on="1"/>
        <pt x="540" y="72" on="0"/>
        <pt x="420" y="-12" on="0"/>
      </contour>
    </TTGlyph>
    <TTGlyph name="Ccedilla" xMin="63" yMin="-205" xMax="571" yMax="710">
      <contour>
        <pt x="335" y="656" on="1"/>
        <pt x="237" y="656" on="0"/>
        <pt x="127" y="516" on="0"/>
        <pt x="127" y="386" on="1"/>
        <pt x="127" y="307" on="1"/>
        <pt x="127" y="178" on="0"/>
        <pt x="237" y="42" on="0"/>
        <pt x="335" y="42" on="1"/>
        <pt x="405" y="42" on="0"/>
        <pt x="499" y="113" on="0"/>
        <pt x="522" y="173" on="1"/>
        <pt x="571" y="144" on="1"/>
        <pt x="542" y="76" on="0"/>
        <pt x="431" y="-7" on="0"/>
        <pt x="353" y="-11" on="1"/>
        <pt x="341" y="-66" on="1"/>
        <pt x="343" y="-68" on="1"/>
        <pt x="363" y="-63" on="0"/>
        <pt x="379" y="-63" on="1"/>
        <pt x="408" y="-63" on="0"/>
        <pt x="447" y="-96" on="0"/>
        <pt x="447" y="-127" on="1"/>
        <pt x="447" y="-164" on="0"/>
        <pt x="389" y="-205" on="0"/>
        <pt x="347" y="-205" on="1"/>
        <pt x="311" y="-205" on="0"/>
        <pt x="265" y="-182" on="0"/>
        <pt x="255" y="-168" on="1"/>
        <pt x="283" y="-137" on="1"/>
        <pt x="293" y="-149" on="0"/>
        <pt x="324" y="-165" on="0"/>
        <pt x="347" y="-165" on="1"/>
        <pt x="369" y="-165" on="0"/>
        <pt x="398" y="-146" on="0"/>
        <pt x="398" y="-126" on="1"/>
        <pt x="398" y="-110" on="0"/>
        <pt x="371" y="-88" on="0"/>
        <pt x="332" y="-83" on="1"/>
        <pt x="301" y="-80" on="1"/>
        <pt x="315" y="-11" on="1"/>
        <pt x="195" y="-5" on="0"/>
        <pt x="63" y="175" on="0"/>
        <pt x="63" y="347" on="1"/>
        <pt x="63" y="524" on="0"/>
        <pt x="205" y="710" on="0"/>
        <pt x="335" y="710" on="1"/>
        <pt x="419" y="710" on="0"/>
        <pt x="534" y="630" on="0"/>
        <pt x="566" y="561" on="1"/>
        <pt x="517" y="532" on="1"/>
        <pt x="494" y="589" on="0"/>
        <pt x="401" y="656" on="0"/>
      </contour>
    </TTGlyph>
    <TTGlyph name="D" xMin="99" yMin="0" xMax="603" yMax="698">
      <contour>
        <pt x="99" y="698" on="1"/>
        <pt x="321" y="698" on="1"/>
        <pt x="456" y="698" on="0"/>
        <pt x="603" y="524" on="0"/>
        <pt x="603" y="349" on="1"/>
        <pt x="603" y="174" on="0"/>
        <pt x="456" y="0" on="0"/>
        <pt x="321" y="0" on="1"/>
        <pt x="99" y="0" on="1"/>
      </contour>
      <contour>
        <pt x="322" y="53" on="1"/>
        <pt x="425" y="53" on="0"/>
        <pt x="539" y="186" on="0"/>
        <pt x="539" y="303" on="1"/>
        <pt x="539" y="395" on="1"/>
        <pt x="539" y="512" on="0"/>
        <pt x="425" y="645" on="0"/>
        <pt x="322" y="645" on="1"/>
        <pt x="159" y="645" on="1"/>
        <pt x="159" y="53" on="1"/>
      </contour>
    </TTGlyph>
    <TTGlyph name="Dcroat" xMin="21" yMin="0" xMax="606" yMax="698">
      <contour>
        <pt x="102" y="346" on="1"/>
        <pt x="21" y="346" on="1"/>
        <pt x="21" y="392" on="1"/>
        <pt x="102" y="392" on="1"/>
        <pt x="102" y="698" on="1"/>
        <pt x="324" y="698" on="1"/>
        <pt x="459" y="698" on="0"/>
        <pt x="606" y="524" on="0"/>
        <pt x="606" y="349" on="1"/>
        <pt x="606" y="174" on="0"/>
        <pt x="459" y="0" on="0"/>
        <pt x="324" y="0" on="1"/>
        <pt x="102" y="0" on="1"/>
      </contour>
      <contour>
        <pt x="325" y="53" on="1"/>
        <pt x="428" y="53" on="0"/>
        <pt x="542" y="186" on="0"/>
        <pt x="542" y="303" on="1"/>
        <pt x="542" y="395" on="1"/>
        <pt x="542" y="512" on="0"/>
        <pt x="428" y="645" on="0"/>
        <pt x="325" y="645" on="1"/>
        <pt x="162" y="645" on="1"/>
        <pt x="162" y="392" on="1"/>
        <pt x="312" y="392" on="1"/>
        <pt x="312" y="346" on="1"/>
        <pt x="162" y="346" on="1"/>
        <pt x="162" y="53" on="1"/>
      </contour>
    </TTGlyph>
    <TTGlyph name="Delta" xMin="42" yMin="0" xMax="584" yMax="698">
      <contour>
        <pt x="42" y="53" on="1"/>
        <pt x="274" y="698" on="1"/>
        <pt x="352" y="698" on="1"/>
        <pt x="584" y="53" on="1"/>
        <pt x="584" y="0" on="1"/>
        <pt x="42" y="0" on="1"/>
      </contour>
      <contour>
        <pt x="314" y="641" on="1"/>
        <pt x="310" y="641" on="1"/>
        <pt x="103" y="53" on="1"/>
        <pt x="521" y="53" on="1"/>
      </contour>
    </TTGlyph>
    <TTGlyph name="E" xMin="99" yMin="0" xMax="507" yMax="698">
      <contour>
        <pt x="99" y="0" on="1"/>
        <pt x="99" y="698" on="1"/>
        <pt x="507" y="698" on="1"/>
        <pt x="507" y="645" on="1"/>
        <pt x="159" y="645" on="1"/>
        <pt x="159" y="381" on="1"/>
        <pt x="490" y="381" on="1"/>
        <pt x="490" y="328" on="1"/>
        <pt x="159" y="328" on="1"/>
        <pt x="159" y="53" on="1"/>
        <pt x="507" y="53" on="1"/>
        <pt x="507" y="0" on="1"/>
      </contour>
    </TTGlyph>
    <TTGlyph name="Eacute" xMin="99" yMin="0" xMax="507" yMax="942">
      <component glyphName="E" x="0" y="0" flags="0x204"/>
      <component glyphName="acute.case" x="2" y="0" flags="0x4"/>
    </TTGlyph>
    <TTGlyph name="Ecircumflex" xMin="99" yMin="0" xMax="507" yMax="930">
      <component glyphName="E" x="0" y="0" flags="0x204"/>
      <component glyphName="circumflex.case" x="2" y="0" flags="0x4"/>
    </TTGlyph>
    <TTGlyph name="Edieresis" xMin="99" yMin="0" xMax="507" yMax="884">
      <component glyphName="E" x="0" y="0" flags="0x204"/>
      <component glyphName="dieresis.case" x="2" y="0" flags="0x4"/>
    </TTGlyph>
    <TTGlyph name="Egrave" xMin="99" yMin="0" xMax="507" yMax="942">
      <component glyphName="E" x="0" y="0" flags="0x204"/>
      <component glyphName="grave.case" x="2" y="0" flags="0x4"/>
    </TTGlyph>
    <TTGlyph name="Eth" xMin="21" yMin="0" xMax="606" yMax="698">
      <component glyphName="Dcroat" x="0" y="0" flags="0x204"/>
    </TTGlyph>
    <TTGlyph name="Euro" xMin="64" yMin="-12" xMax="570" yMax="710">
      <contour>
        <pt x="570" y="144" on="1"/>
        <pt x="555" y="110" on="0"/>
        <pt x="512" y="53" on="0"/>
        <pt x="453" y="11" on="0"/>
        <pt x="380" y="-12" on="0"/>
        <pt x="335" y="-12" on="1"/>
        <pt x="206" y="-12" on="0"/>
        <pt x="64" y="174" on="0"/>
        <pt x="64" y="349" on="1"/>
        <pt x="64" y="524" on="0"/>
        <pt x="206" y="710" on="0"/>
        <pt x="335" y="710" on="1"/>
        <pt x="419" y="710" on="0"/>
        <pt x="533" y="630" on="0"/>
        <pt x="565" y="561" on="1"/>
        <pt x="518" y="533" on="1"/>
        <pt x="495" y="590" on="0"/>
        <pt x="401" y="657" on="0"/>
        <pt x="335" y="657" on="1"/>
        <pt x="248" y="657" on="0"/>
        <pt x="142" y="549" on="0"/>
        <pt x="130" y="452" on="1"/>
        <pt x="389" y="452" on="1"/>
        <pt x="389" y="404" on="1"/>
        <pt x="126" y="404" on="1"/>
        <pt x="126" y="386" on="1"/>
        <pt x="126" y="312" on="1"/>
        <pt x="126" y="294" on="1"/>
        <pt x="389" y="294" on="1"/>
        <pt x="389" y="246" on="1"/>
        <pt x="130" y="246" on="1"/>
        <pt x="143" y="149" on="0"/>
        <pt x="249" y="41" on="0"/>
        <pt x="335" y="41" on="1"/>
        <pt x="405" y="41" on="0"/>
        <pt x="500" y="113" on="0"/>
        <pt x="523" y="173" on="1"/>
        <pt x="570" y="144" on="1"/>
      </contour>
    </TTGlyph>
    <TTGlyph name="F" xMin="99" yMin="0" xMax="498" yMax="698">
      <contour>
        <pt x="99" y="0" on="1"/>
        <pt x="99" y="698" on="1"/>
        <pt x="498" y="698" on="1"/>
        <pt x="498" y="645" on="1"/>
        <pt x="159" y="645" on="1"/>
        <pt x="159" y="381" on="1"/>
        <pt x="475" y="381" on="1"/>
        <pt x="475" y="328" on="1"/>
        <pt x="159" y="328" on="1"/>
        <pt x="159" y="0" on="1"/>
      </contour>
    </TTGlyph>
    <TTGlyph name="G" xMin="63" yMin="-12" xMax="609" yMax="710">
      <contour>
        <pt x="553" y="107" on="1"/>
        <pt x="550" y="107" on="1"/>
        <pt x="531" y="53" on="0"/>
        <pt x="426" y="-12" on="0"/>
        <pt x="345" y="-12" on="1"/>
        <pt x="280" y="-12" on="0"/>
        <pt x="176" y="34" on="0"/>
        <pt x="103" y="126" on="0"/>
        <pt x="63" y="260" on="0"/>
        <pt x="63" y="349" on="1"/>
        <pt x="63" y="437" on="0"/>
        <pt x="103" y="572" on="0"/>
        <pt x="177" y="663" on="0"/>
        <pt x="283" y="710" on="0"/>
        <pt x="349" y="710" on="1"/>
        <pt x="439" y="710" on="0"/>
        <pt x="561" y="628" on="0"/>
        <pt x="593" y="561" on="1"/>
        <pt x="544" y="532" on="1"/>
        <pt x="518" y="590" on="0"/>
        <pt x="418" y="656" on="0"/>
        <pt x="349" y="656" on="1"/>
        <pt x="298" y="656" on="0"/>
        <pt x="216" y="620" on="0"/>
        <pt x="158" y="552" on="0"/>
        <pt x="127" y="454" on="0"/>
        <pt x="127" y="392" on="1"/>
        <pt x="127" y="307" on="1"/>
        <pt x="127" y="181" on="0"/>
        <pt x="248" y="42" on="0"/>
        <pt x="354" y="42" on="1"/>
        <pt x="394" y="42" on="0"/>
        <pt x="465" y="63" on="0"/>
        <pt x="519" y="105" on="0"/>
        <pt x="550" y="169" on="0"/>
        <pt x="550" y="212" on="1"/>
        <pt x="550" y="296" on="1"/>
        <pt x="387" y="296" on="1"/>
        <pt x="387" y="348" on="1"/>
        <pt x="609" y="348" on="1"/>
        <pt x="609" y="0" on="1"/>
        <pt x="553" y="0" on="1"/>
      </contour>
    </TTGlyph>
    <TTGlyph name="H" xMin="99" yMin="0" xMax="602" yMax="698">
      <contour>
        <pt x="542" y="328" on="1"/>
        <pt x="159" y="328" on="1"/>
        <pt x="159" y="0" on="1"/>
        <pt x="99" y="0" on="1"/>
        <pt x="99" y="698" on="1"/>
        <pt x="159" y="698" on="1"/>
        <pt x="159" y="381" on="1"/>
        <pt x="542" y="381" on="1"/>
        <pt x="542" y="698" on="1"/>
        <pt x="602" y="698" on="1"/>
        <pt x="602" y="0" on="1"/>
        <pt x="542" y="0" on="1"/>
      </contour>
    </TTGlyph>
    <TTGlyph name="I" xMin="63" yMin="0" xMax="327" yMax="698">
      <contour>
        <pt x="63" y="0" on="1"/>
        <pt x="63" y="50" on="1"/>
        <pt x="165" y="50" on="1"/>
        <pt x="165" y="648" on="1"/>
        <pt x="63" y="648" on="1"/>
        <pt x="63" y="698" on="1"/>
        <pt x="327" y="698" on="1"/>
        <pt x="327" y="648" on="1"/>
        <pt x="225" y="648" on="1"/>
        <pt x="225" y="50" on="1"/>
        <pt x="327" y="50" on="1"/>
        <pt x="327" y="0" on="1"/>
      </contour>
    </TTGlyph>
    <TTGlyph name="IJ" xMin="93" yMin="-12" xMax="547" yMax="698">
      <contour>
        <pt x="547" y="698" on="1"/>
        <pt x="547" y="216" on="1"/>
        <pt x="547" y="107" on="0"/>
        <pt x="426" y="-12" on="0"/>
        <pt x="316" y="-12" on="1"/>
        <pt x="219" y="-12" on="0"/>
        <pt x="112" y="72" on="0"/>
        <pt x="96" y="146" on="1"/>
        <pt x="150" y="159" on="1"/>
        <pt x="164" y="103" on="0"/>
        <pt x="243" y="42" on="0"/>
        <pt x="318" y="42" on="1"/>
        <pt x="399" y="42" on="0"/>
        <pt x="487" y="123" on="0"/>
        <pt x="487" y="206" on="1"/>
        <pt x="487" y="644" on="1"/>
        <pt x="318" y="644" on="1"/>
        <pt x="318" y="698" on="1"/>
      </contour>
      <contour>
        <pt x="93" y="698" on="1"/>
        <pt x="153" y="698" on="1"/>
        <pt x="153" y="290" on="1"/>
        <pt x="93" y="290" on="1"/>
      </contour>
    </TTGlyph>
    <TTGlyph name="Iacute" xMin="63" yMin="0" xMax="327" yMax="942">
      <component glyphName="I" x="0" y="0" flags="0x204"/>
      <component glyphName="acute.case" x="-105" y="0" flags="0x4"/>
    </TTGlyph>
    <TTGlyph name="Icircumflex" xMin="42" yMin="0" xMax="348" yMax="930">
      <component glyphName="I" x="0" y="0" flags="0x204"/>
      <component glyphName="circumflex.case" x="-105" y="0" flags="0x4"/>
    </TTGlyph>
    <TTGlyph name="Idieresis" xMin="63" yMin="0" xMax="327" yMax="884">
      <component glyphName="I" x="0" y="0" flags="0x204"/>
      <component glyphName="dieresis.case" x="-105" y="0" flags="0x4"/>
    </TTGlyph>
    <TTGlyph name="Igrave" xMin="63" yMin="0" xMax="327" yMax="942">
      <component glyphName="I" x="0" y="0" flags="0x204"/>
      <component glyphName="grave.case" x="-105" y="0" flags="0x4"/>
    </TTGlyph>
    <TTGlyph name="J" xMin="26" yMin="-12" xMax="399" yMax="698">
      <contour>
        <pt x="399" y="698" on="1"/>
        <pt x="399" y="182" on="1"/>
        <pt x="399" y="89" on="0"/>
        <pt x="296" y="-12" on="0"/>
        <pt x="210" y="-12" on="1"/>
        <pt x="136" y="-12" on="0"/>
        <pt x="40" y="68" on="0"/>
        <pt x="26" y="134" on="1"/>
        <pt x="79" y="147" on="1"/>
        <pt x="91" y="101" on="0"/>
        <pt x="156" y="41" on="0"/>
        <pt x="212" y="41" on="1"/>
        <pt x="275" y="41" on="0"/>
        <pt x="339" y="117" on="0"/>
        <pt x="339" y="191" on="1"/>
        <pt x="339" y="645" on="1"/>
        <pt x="97" y="645" on="1"/>
        <pt x="97" y="698" on="1"/>
      </contour>
    </TTGlyph>
    <TTGlyph name="K" xMin="99" yMin="0" xMax="589" yMax="698">
      <contour>
        <pt x="272" y="360" on="1"/>
        <pt x="159" y="235" on="1"/>
        <pt x="159" y="0" on="1"/>
        <pt x="99" y="0" on="1"/>
        <pt x="99" y="698" on="1"/>
        <pt x="159" y="698" on="1"/>
        <pt x="159" y="305" on="1"/>
        <pt x="161" y="305" on="1"/>
        <pt x="273" y="434" on="1"/>
        <pt x="503" y="698" on="1"/>
        <pt x="576" y="698" on="1"/>
        <pt x="313" y="401" on="1"/>
        <pt x="589" y="0" on="1"/>
        <pt x="515" y="0" on="1"/>
      </contour>
    </TTGlyph>
    <TTGlyph name="L" xMin="99" yMin="0" xMax="467" yMax="698">
      <contour>
        <pt x="99" y="0" on="1"/>
        <pt x="99" y="698" on="1"/>
        <pt x="159" y="698" on="1"/>
        <pt x="159" y="53" on="1"/>
        <pt x="467" y="53" on="1"/>
        <pt x="467" y="0" on="1"/>
      </contour>
    </TTGlyph>
    <TTGlyph name="Lslash" xMin="1" yMin="0" xMax="470" yMax="698">
      <contour>
        <pt x="470" y="0" on="1"/>
        <pt x="102" y="0" on="1"/>
        <pt x="102" y="283" on="1"/>
        <pt x="1" y="251" on="1"/>
        <pt x="1" y="299" on="1"/>
        <pt x="102" y="333" on="1"/>
        <pt x="102" y="698" on="1"/>
        <pt x="162" y="698" on="1"/>
        <pt x="162" y="353" on="1"/>
        <pt x="352" y="415" on="1"/>
        <pt x="352" y="364" on="1"/>
        <pt x="162" y="303" on="1"/>
        <pt x="162" y="54" on="1"/>
        <pt x="470" y="54" on="1"/>
      </contour>
    </TTGlyph>
    <TTGlyph name="M" xMin="99" yMin="0" xMax="705" yMax="698">
      <contour>
        <pt x="647" y="621" on="1"/>
        <pt x="643" y="621" on="1"/>
        <pt x="402" y="194" on="1"/>
        <pt x="161" y="621" on="1"/>
        <pt x="157" y="621" on="1"/>
        <pt x="157" y="0" on="1"/>
        <pt x="99" y="0" on="1"/>
        <pt x="99" y="698" on="1"/>
        <pt x="181" y="698" on="1"/>
        <pt x="402" y="305" on="1"/>
        <pt x="405" y="305" on="1"/>
        <pt x="626" y="698" on="1"/>
        <pt x="705" y="698" on="1"/>
        <pt x="705" y="0" on="1"/>
        <pt x="647" y="0" on="1"/>
      </contour>
    </TTGlyph>
    <TTGlyph name="N" xMin="99" yMin="0" xMax="602" yMax="698">
      <contour>
        <pt x="160" y="616" on="1"/>
        <pt x="157" y="616" on="1"/>
        <pt x="157" y="0" on="1"/>
        <pt x="99" y="0" on="1"/>
        <pt x="99" y="698" on="1"/>
        <pt x="174" y="698" on="1"/>
        <pt x="541" y="82" on="1"/>
        <pt x="544" y="82" on="1"/>
        <pt x="544" y="698" on="1"/>
        <pt x="602" y="698" on="1"/>
        <pt x="602" y="0" on="1"/>
        <pt x="527" y="0" on="1"/>
      </contour>
    </TTGlyph>
    <TTGlyph name="Ntilde" xMin="99" yMin="0" xMax="602" yMax="892">
      <component glyphName="N" x="0" y="0" flags="0x204"/>
      <component glyphName="tilde.case" x="50" y="0" flags="0x4"/>
    </TTGlyph>
    <TTGlyph name="O" xMin="63" yMin="-12" xMax="634" yMax="710">
      <contour>
        <pt x="349" y="-12" on="1"/>
        <pt x="215" y="-12" on="0"/>
        <pt x="63" y="171" on="0"/>
        <pt x="63" y="349" on="1"/>
        <pt x="63" y="527" on="0"/>
        <pt x="215" y="710" on="0"/>
        <pt x="349" y="710" on="1"/>
        <pt x="482" y="710" on="0"/>
        <pt x="634" y="526" on="0"/>
        <pt x="634" y="349" on="1"/>
        <pt x="634" y="172" on="0"/>
        <pt x="482" y="-12" on="0"/>
      </contour>
      <contour>
        <pt x="349" y="42" on="1"/>
        <pt x="399" y="42" on="0"/>
        <pt x="480" y="77" on="0"/>
        <pt x="538" y="145" on="0"/>
        <pt x="570" y="243" on="0"/>
        <pt x="570" y="305" on="1"/>
        <pt x="570" y="393" on="1"/>
        <pt x="570" y="455" on="0"/>
        <pt x="538" y="553" on="0"/>
        <pt x="480" y="620" on="0"/>
        <pt x="399" y="656" on="0"/>
        <pt x="349" y="656" on="1"/>
        <pt x="299" y="656" on="0"/>
        <pt x="217" y="620" on="0"/>
        <pt x="159" y="553" on="0"/>
        <pt x="127" y="455" on="0"/>
        <pt x="127" y="393" on="1"/>
        <pt x="127" y="305" on="1"/>
        <pt x="127" y="243" on="0"/>
        <pt x="159" y="145" on="0"/>
        <pt x="217" y="77" on="0"/>
        <pt x="299" y="42" on="0"/>
      </contour>
    </TTGlyph>
    <TTGlyph name="OE" xMin="63" yMin="-12" xMax="911" yMax="710">
      <contour>
        <pt x="502" y="0" on="1"/>
        <pt x="476" y="-5" on="0"/>
        <pt x="403" y="-12" on="0"/>
        <pt x="368" y="-12" on="1"/>
        <pt x="222" y="-12" on="0"/>
        <pt x="63" y="170" on="0"/>
        <pt x="63" y="349" on="1"/>
        <pt x="63" y="528" on="0"/>
        <pt x="222" y="710" on="0"/>
        <pt x="368" y="710" on="1"/>
        <pt x="403" y="710" on="0"/>
        <pt x="476" y="703" on="0"/>
        <pt x="502" y="698" on="1"/>
        <pt x="911" y="698" on="1"/>
        <pt x="911" y="645" on="1"/>
        <pt x="562" y="645" on="1"/>
        <pt x="562" y="381" on="1"/>
        <pt x="894" y="381" on="1"/>
        <pt x="894" y="328" on="1"/>
        <pt x="562" y="328" on="1"/>
        <pt x="562" y="53" on="1"/>
        <pt x="911" y="53" on="1"/>
        <pt x="911" y="0" on="1"/>
      </contour>
      <contour>
        <pt x="374" y="42" on="1"/>
        <pt x="409" y="42" on="0"/>
        <pt x="476" y="50" on="0"/>
        <pt x="502" y="58" on="1"/>
        <pt x="502" y="640" on="1"/>
        <pt x="476" y="648" on="0"/>
        <pt x="409" y="656" on="0"/>
        <pt x="374" y="656" on="1"/>
        <pt x="252" y="656" on="0"/>
        <pt x="127" y="518" on="0"/>
        <pt x="127" y="393" on="1"/>
        <pt x="127" y="305" on="1"/>
        <pt x="127" y="180" on="0"/>
        <pt x="252" y="42" on="0"/>
      </contour>
    </TTGlyph>
    <TTGlyph name="Oacute" xMin="63" yMin="-12" xMax="634" yMax="942">
      <component glyphName="O" x="0" y="0" flags="0x204"/>
      <component glyphName="acute.case" x="49" y="0" flags="0x4"/>
    </TTGlyph>
    <TTGlyph name="Ocircumflex" xMin="63" yMin="-12" xMax="634" yMax="930">
      <component glyphName="O" x="0" y="0" flags="0x204"/>
      <component glyphName="circumflex.case" x="49" y="0" flags="0x4"/>
    </TTGlyph>
    <TTGlyph name="Odieresis" xMin="63" yMin="-12" xMax="634" yMax="884">
      <component glyphName="O" x="0" y="0" flags="0x204"/>
      <component glyphName="dieresis.case" x="49" y="0" flags="0x4"/>
    </TTGlyph>
    <TTGlyph name="Ograve" xMin="63" yMin="-12" xMax="634" yMax="942">
      <component glyphName="O" x="0" y="0" flags="0x204"/>
      <component glyphName="grave.case" x="49" y="0" flags="0x4"/>
    </TTGlyph>
    <TTGlyph name="Omega" xMin="67" yMin="0" xMax="642" yMax="710">
      <contour>
        <pt x="67" y="53" on="1"/>
        <pt x="233" y="53" on="1"/>
        <pt x="233" y="66" on="1"/>
        <pt x="155" y="110" on="0"/>
        <pt x="67" y="261" on="0"/>
        <pt x="67" y="378" on="1"/>
        <pt x="67" y="447" on="0"/>
        <pt x="102" y="568" on="0"/>
        <pt x="174" y="658" on="0"/>
        <pt x="282" y="710" on="0"/>
        <pt x="355" y="710" on="1"/>
        <pt x="427" y="710" on="0"/>
        <pt x="535" y="658" on="0"/>
        <pt x="607" y="568" on="0"/>
        <pt x="642" y="447" on="0"/>
        <pt x="642" y="378" on="1"/>
        <pt x="642" y="261" on="0"/>
        <pt x="554" y="110" on="0"/>
        <pt x="476" y="66" on="1"/>
        <pt x="476" y="53" on="1"/>
        <pt x="642" y="53" on="1"/>
        <pt x="642" y="0" on="1"/>
        <pt x="425" y="0" on="1"/>
        <pt x="425" y="87" on="1"/>
        <pt x="450" y="98" on="0"/>
        <pt x="505" y="144" on="0"/>
        <pt x="549" y="210" on="0"/>
        <pt x="578" y="294" on="0"/>
        <pt x="578" y="343" on="1"/>
        <pt x="578" y="423" on="1"/>
        <pt x="578" y="470" on="0"/>
        <pt x="547" y="555" on="0"/>
        <pt x="489" y="619" on="0"/>
        <pt x="406" y="656" on="0"/>
        <pt x="355" y="656" on="1"/>
        <pt x="303" y="656" on="0"/>
        <pt x="220" y="619" on="0"/>
        <pt x="162" y="555" on="0"/>
        <pt x="131" y="470" on="0"/>
        <pt x="131" y="423" on="1"/>
        <pt x="131" y="343" on="1"/>
        <pt x="131" y="294" on="0"/>
        <pt x="160" y="210" on="0"/>
        <pt x="204" y="144" on="0"/>
        <pt x="258" y="98" on="0"/>
        <pt x="284" y="87" on="1"/>
        <pt x="284" y="0" on="1"/>
        <pt x="67" y="0" on="1"/>
      </contour>
    </TTGlyph>
    <TTGlyph name="Oslash" xMin="63" yMin="-40" xMax="634" yMax="738">
      <contour>
        <pt x="349" y="-12" on="1"/>
        <pt x="240" y="-12" on="0"/>
        <pt x="170" y="50" on="1"/>
        <pt x="108" y="-40" on="1"/>
        <pt x="66" y="-13" on="1"/>
        <pt x="135" y="85" on="1"/>
        <pt x="63" y="178" on="0"/>
        <pt x="63" y="349" on="1"/>
        <pt x="63" y="527" on="0"/>
        <pt x="215" y="710" on="0"/>
        <pt x="349" y="710" on="1"/>
        <pt x="455" y="710" on="0"/>
        <pt x="527" y="649" on="1"/>
        <pt x="589" y="738" on="1"/>
        <pt x="631" y="711" on="1"/>
        <pt x="562" y="613" on="1"/>
        <pt x="634" y="520" on="0"/>
        <pt x="634" y="349" on="1"/>
        <pt x="634" y="172" on="0"/>
        <pt x="482" y="-12" on="0"/>
      </contour>
      <contour>
        <pt x="127" y="305" on="1"/>
        <pt x="127" y="253" on="0"/>
        <pt x="149" y="168" on="0"/>
        <pt x="169" y="136" on="1"/>
        <pt x="494" y="602" on="1"/>
        <pt x="438" y="656" on="0"/>
        <pt x="349" y="656" on="1"/>
        <pt x="299" y="656" on="0"/>
        <pt x="217" y="620" on="0"/>
        <pt x="159" y="553" on="0"/>
        <pt x="127" y="455" on="0"/>
        <pt x="127" y="393" on="1"/>
      </contour>
      <contour>
        <pt x="570" y="393" on="1"/>
        <pt x="570" y="497" on="0"/>
        <pt x="528" y="562" on="1"/>
        <pt x="203" y="96" on="1"/>
        <pt x="258" y="42" on="0"/>
        <pt x="349" y="42" on="1"/>
        <pt x="399" y="42" on="0"/>
        <pt x="480" y="77" on="0"/>
        <pt x="538" y="145" on="0"/>
        <pt x="570" y="243" on="0"/>
        <pt x="570" y="305" on="1"/>
      </contour>
    </TTGlyph>
    <TTGlyph name="Otilde" xMin="63" yMin="-12" xMax="634" yMax="892">
      <component glyphName="O" x="0" y="0" flags="0x204"/>
      <component glyphName="tilde.case" x="49" y="0" flags="0x4"/>
    </TTGlyph>
    <TTGlyph name="P" xMin="99" yMin="0" xMax="560" yMax="698">
      <contour>
        <pt x="99" y="0" on="1"/>
        <pt x="99" y="698" on="1"/>
        <pt x="373" y="698" on="1"/>
        <pt x="464" y="698" on="0"/>
        <pt x="560" y="593" on="0"/>
        <pt x="560" y="503" on="1"/>
        <pt x="560" y="412" on="0"/>
        <pt x="464" y="307" on="0"/>
        <pt x="373" y="307" on="1"/>
        <pt x="159" y="307" on="1"/>
        <pt x="159" y="0" on="1"/>
      </contour>
      <contour>
        <pt x="159" y="360" on="1"/>
        <pt x="373" y="360" on="1"/>
        <pt x="433" y="360" on="0"/>
        <pt x="496" y="427" on="0"/>
        <pt x="496" y="479" on="1"/>
        <pt x="496" y="527" on="1"/>
        <pt x="496" y="578" on="0"/>
        <pt x="433" y="645" on="0"/>
        <pt x="373" y="645" on="1"/>
        <pt x="159" y="645" on="1"/>
      </contour>
    </TTGlyph>
    <TTGlyph name="Q" xMin="63" yMin="-157" xMax="634" yMax="710">
      <contour>
        <pt x="488" y="-157" on="1"/>
        <pt x="387" y="-157" on="1"/>
        <pt x="356" y="-157" on="0"/>
        <pt x="325" y="-123" on="0"/>
        <pt x="325" y="-96" on="1"/>
        <pt x="325" y="-11" on="1"/>
        <pt x="201" y="-3" on="0"/>
        <pt x="63" y="179" on="0"/>
        <pt x="63" y="349" on="1"/>
        <pt x="63" y="527" on="0"/>
        <pt x="215" y="710" on="0"/>
        <pt x="349" y="710" on="1"/>
        <pt x="482" y="710" on="0"/>
        <pt x="634" y="526" on="0"/>
        <pt x="634" y="349" on="1"/>
        <pt x="634" y="182" on="0"/>
        <pt x="501" y="1" on="0"/>
        <pt x="382" y="-10" on="1"/>
        <pt x="382" y="-106" on="1"/>
        <pt x="488" y="-106" on="1"/>
      </contour>
      <contour>
        <pt x="349" y="42" on="1"/>
        <pt x="399" y="42" on="0"/>
        <pt x="480" y="77" on="0"/>
        <pt x="538" y="145" on="0"/>
        <pt x="570" y="243" on="0"/>
        <pt x="570" y="305" on="1"/>
        <pt x="570" y="393" on="1"/>
        <pt x="570" y="455" on="0"/>
        <pt x="538" y="553" on="0"/>
        <pt x="480" y="620" on="0"/>
        <pt x="399" y="656" on="0"/>
        <pt x="349" y="656" on="1"/>
        <pt x="299" y="656" on="0"/>
        <pt x="217" y="620" on="0"/>
        <pt x="159" y="553" on="0"/>
        <pt x="127" y="455" on="0"/>
        <pt x="127" y="393" on="1"/>
        <pt x="127" y="305" on="1"/>
        <pt x="127" y="243" on="0"/>
        <pt x="159" y="145" on="0"/>
        <pt x="217" y="77" on="0"/>
        <pt x="299" y="42" on="0"/>
      </contour>
    </TTGlyph>
    <TTGlyph name="R" xMin="99" yMin="0" xMax="578" yMax="698">
      <contour>
        <pt x="159" y="0" on="1"/>
        <pt x="99" y="0" on="1"/>
        <pt x="99" y="698" on="1"/>
        <pt x="373" y="698" on="1"/>
        <pt x="463" y="698" on="0"/>
        <pt x="560" y="596" on="0"/>
        <pt x="560" y="504" on="1"/>
        <pt x="560" y="423" on="0"/>
        <pt x="481" y="323" on="0"/>
        <pt x="406" y="313" on="1"/>
        <pt x="578" y="0" on="1"/>
        <pt x="511" y="0" on="1"/>
        <pt x="344" y="309" on="1"/>
        <pt x="159" y="309" on="1"/>
      </contour>
      <contour>
        <pt x="373" y="360" on="1"/>
        <pt x="433" y="360" on="0"/>
        <pt x="496" y="427" on="0"/>
        <pt x="496" y="479" on="1"/>
        <pt x="496" y="527" on="1"/>
        <pt x="496" y="578" on="0"/>
        <pt x="433" y="645" on="0"/>
        <pt x="373" y="645" on="1"/>
        <pt x="159" y="645" on="1"/>
        <pt x="159" y="360" on="1"/>
      </contour>
    </TTGlyph>
    <TTGlyph name="S" xMin="42" yMin="-12" xMax="513" yMax="710">
      <contour>
        <pt x="284" y="-12" on="1"/>
        <pt x="198" y="-12" on="0"/>
        <pt x="83" y="53" on="0"/>
        <pt x="42" y="107" on="1"/>
        <pt x="87" y="144" on="1"/>
        <pt x="124" y="95" on="0"/>
        <pt x="217" y="41" on="0"/>
        <pt x="286" y="41" on="1"/>
        <pt x="367" y="41" on="0"/>
        <pt x="454" y="118" on="0"/>
        <pt x="454" y="187" on="1"/>
        <pt x="454" y="251" on="0"/>
        <pt x="380" y="311" on="0"/>
        <pt x="313" y="325" on="1"/>
        <pt x="251" y="338" on="1"/>
        <pt x="151" y="358" on="0"/>
        <pt x="61" y="452" on="0"/>
        <pt x="61" y="525" on="1"/>
        <pt x="61" y="571" on="0"/>
        <pt x="93" y="640" on="0"/>
        <pt x="152" y="686" on="0"/>
        <pt x="235" y="710" on="0"/>
        <pt x="285" y="710" on="1"/>
        <pt x="363" y="710" on="0"/>
        <pt x="471" y="654" on="0"/>
        <pt x="506" y="603" on="1"/>
        <pt x="461" y="570" on="1"/>
        <pt x="432" y="612" on="0"/>
        <pt x="345" y="657" on="0"/>
        <pt x="282" y="657" on="1"/>
        <pt x="207" y="657" on="0"/>
        <pt x="120" y="592" on="0"/>
        <pt x="120" y="527" on="1"/>
        <pt x="120" y="465" on="0"/>
        <pt x="198" y="407" on="0"/>
        <pt x="263" y="394" on="1"/>
        <pt x="325" y="381" on="1"/>
        <pt x="429" y="358" on="0"/>
        <pt x="513" y="262" on="0"/>
        <pt x="513" y="190" on="1"/>
        <pt x="513" y="94" on="0"/>
        <pt x="391" y="-12" on="0"/>
      </contour>
    </TTGlyph>
    <TTGlyph name="Scaron" xMin="42" yMin="-12" xMax="513" yMax="937">
      <component glyphName="S" x="0" y="0" flags="0x204"/>
      <component glyphName="caron.case" x="-19" y="0" flags="0x4"/>
    </TTGlyph>
    <TTGlyph name="T" xMin="20" yMin="0" xMax="548" yMax="698">
      <contour>
        <pt x="314" y="645" on="1"/>
        <pt x="314" y="0" on="1"/>
        <pt x="254" y="0" on="1"/>
        <pt x="254" y="645" on="1"/>
        <pt x="20" y="645" on="1"/>
        <pt x="20" y="698" on="1"/>
        <pt x="548" y="698" on="1"/>
        <pt x="548" y="645" on="1"/>
      </contour>
    </TTGlyph>
    <TTGlyph name="Thorn" xMin="99" yMin="0" xMax="560" yMax="698">
      <contour>
        <pt x="99" y="0" on="1"/>
        <pt x="99" y="698" on="1"/>
        <pt x="159" y="698" on="1"/>
        <pt x="159" y="549" on="1"/>
        <pt x="373" y="549" on="1"/>
        <pt x="464" y="549" on="0"/>
        <pt x="560" y="444" on="0"/>
        <pt x="560" y="354" on="1"/>
        <pt x="560" y="264" on="0"/>
        <pt x="464" y="159" on="0"/>
        <pt x="373" y="159" on="1"/>
        <pt x="159" y="159" on="1"/>
        <pt x="159" y="0" on="1"/>
      </contour>
      <contour>
        <pt x="159" y="212" on="1"/>
        <pt x="373" y="212" on="1"/>
        <pt x="433" y="212" on="0"/>
        <pt x="496" y="279" on="0"/>
        <pt x="496" y="331" on="1"/>
        <pt x="496" y="377" on="1"/>
        <pt x="496" y="429" on="0"/>
        <pt x="433" y="496" on="0"/>
        <pt x="373" y="496" on="1"/>
        <pt x="159" y="496" on="1"/>
      </contour>
    </TTGlyph>
    <TTGlyph name="U" xMin="93" yMin="-12" xMax="575" yMax="698">
      <contour>
        <pt x="153" y="698" on="1"/>
        <pt x="153" y="267" on="1"/>
        <pt x="153" y="209" on="0"/>
        <pt x="171" y="124" on="0"/>
        <pt x="213" y="69" on="0"/>
        <pt x="283" y="42" on="0"/>
        <pt x="334" y="42" on="1"/>
        <pt x="385" y="42" on="0"/>
        <pt x="454" y="69" on="0"/>
        <pt x="497" y="124" on="0"/>
        <pt x="515" y="209" on="0"/>
        <pt x="515" y="267" on="1"/>
        <pt x="515" y="698" on="1"/>
        <pt x="575" y="698" on="1"/>
        <pt x="575" y="280" on="1"/>
        <pt x="575" y="203" on="0"/>
        <pt x="549" y="93" on="0"/>
        <pt x="492" y="22" on="0"/>
        <pt x="399" y="-12" on="0"/>
        <pt x="332" y="-12" on="1"/>
        <pt x="265" y="-12" on="0"/>
        <pt x="173" y="22" on="0"/>
        <pt x="117" y="93" on="0"/>
        <pt x="93" y="203" on="0"/>
        <pt x="93" y="280" on="1"/>
        <pt x="93" y="698" on="1"/>
      </contour>
    </TTGlyph>
    <TTGlyph name="Uacute" xMin="93" yMin="-12" xMax="575" yMax="942">
      <component glyphName="U" x="0" y="0" flags="0x204"/>
      <component glyphName="acute.case" x="32" y="0" flags="0x4"/>
    </TTGlyph>
    <TTGlyph name="Ucircumflex" xMin="93" yMin="-12" xMax="575" yMax="930">
      <component glyphName="U" x="0" y="0" flags="0x204"/>
      <component glyphName="circumflex.case" x="32" y="0" flags="0x4"/>
    </TTGlyph>
    <TTGlyph name="Udieresis" xMin="93" yMin="-12" xMax="575" yMax="884">
      <component glyphName="U" x="0" y="0" flags="0x204"/>
      <component glyphName="dieresis.case" x="32" y="0" flags="0x4"/>
    </TTGlyph>
    <TTGlyph name="Ugrave" xMin="93" yMin="-12" xMax="575" yMax="942">
      <component glyphName="U" x="0" y="0" flags="0x204"/>
      <component glyphName="grave.case" x="32" y="0" flags="0x4"/>
    </TTGlyph>
    <TTGlyph name="V" xMin="24" yMin="0" xMax="570" yMax="698">
      <contour>
        <pt x="258" y="0" on="1"/>
        <pt x="24" y="698" on="1"/>
        <pt x="89" y="698" on="1"/>
        <pt x="295" y="61" on="1"/>
        <pt x="299" y="61" on="1"/>
        <pt x="507" y="698" on="1"/>
        <pt x="570" y="698" on="1"/>
        <pt x="334" y="0" on="1"/>
      </contour>
    </TTGlyph>
    <TTGlyph name="W" xMin="24" yMin="0" xMax="860" yMax="698">
      <contour>
        <pt x="200" y="0" on="1"/>
        <pt x="24" y="698" on="1"/>
        <pt x="88" y="698" on="1"/>
        <pt x="237" y="74" on="1"/>
        <pt x="240" y="74" on="1"/>
        <pt x="405" y="698" on="1"/>
        <pt x="478" y="698" on="1"/>
        <pt x="641" y="74" on="1"/>
        <pt x="644" y="74" on="1"/>
        <pt x="798" y="698" on="1"/>
        <pt x="860" y="698" on="1"/>
        <pt x="678" y="0" on="1"/>
        <pt x="608" y="0" on="1"/>
        <pt x="441" y="631" on="1"/>
        <pt x="439" y="631" on="1"/>
        <pt x="270" y="0" on="1"/>
      </contour>
    </TTGlyph>
    <TTGlyph name="X" xMin="26" yMin="0" xMax="566" yMax="698">
      <contour>
        <pt x="566" y="0" on="1"/>
        <pt x="494" y="0" on="1"/>
        <pt x="296" y="309" on="1"/>
        <pt x="294" y="309" on="1"/>
        <pt x="95" y="0" on="1"/>
        <pt x="26" y="0" on="1"/>
        <pt x="257" y="355" on="1"/>
        <pt x="33" y="698" on="1"/>
        <pt x="104" y="698" on="1"/>
        <pt x="295" y="403" on="1"/>
        <pt x="297" y="403" on="1"/>
        <pt x="490" y="698" on="1"/>
        <pt x="559" y="698" on="1"/>
        <pt x="333" y="358" on="1"/>
      </contour>
    </TTGlyph>
    <TTGlyph name="Y" xMin="16" yMin="0" xMax="559" yMax="698">
      <contour>
        <pt x="257" y="0" on="1"/>
        <pt x="257" y="283" on="1"/>
        <pt x="16" y="698" on="1"/>
        <pt x="84" y="698" on="1"/>
        <pt x="286" y="346" on="1"/>
        <pt x="289" y="346" on="1"/>
        <pt x="491" y="698" on="1"/>
        <pt x="559" y="698" on="1"/>
        <pt x="317" y="286" on="1"/>
        <pt x="317" y="0" on="1"/>
      </contour>
    </TTGlyph>
    <TTGlyph name="Yacute" xMin="16" yMin="0" xMax="559" yMax="942">
      <component glyphName="Y" x="0" y="0" flags="0x204"/>
      <component glyphName="acute.case" x="-12" y="0" flags="0x4"/>
    </TTGlyph>
    <TTGlyph name="Ydieresis" xMin="16" yMin="0" xMax="559" yMax="884">
      <component glyphName="Y" x="0" y="0" flags="0x204"/>
      <component glyphName="dieresis.case" x="-12" y="0" flags="0x4"/>
    </TTGlyph>
    <TTGlyph name="Z" xMin="37" yMin="0" xMax="537" yMax="698">
      <contour>
        <pt x="537" y="0" on="1"/>
        <pt x="37" y="0" on="1"/>
        <pt x="37" y="55" on="1"/>
        <pt x="456" y="645" on="1"/>
        <pt x="59" y="645" on="1"/>
        <pt x="59" y="698" on="1"/>
        <pt x="521" y="698" on="1"/>
        <pt x="521" y="643" on="1"/>
        <pt x="101" y="53" on="1"/>
        <pt x="537" y="53" on="1"/>
      </contour>
    </TTGlyph>
    <TTGlyph name="Zcaron" xMin="37" yMin="0" xMax="537" yMax="937">
      <component glyphName="Z" x="0" y="0" flags="0x204"/>
      <component glyphName="caron.case" x="-8" y="0" flags="0x4"/>
    </TTGlyph>
    <TTGlyph name="a" xMin="51" yMin="-12" xMax="503" yMax="524">
      <contour>
        <pt x="445" y="0" on="1"/>
        <pt x="412" y="0" on="0"/>
        <pt x="382" y="34" on="0"/>
        <pt x="380" y="63" on="1"/>
        <pt x="380" y="81" on="1"/>
        <pt x="375" y="81" on="1"/>
        <pt x="358" y="38" on="0"/>
        <pt x="280" y="-12" on="0"/>
        <pt x="220" y="-12" on="1"/>
        <pt x="139" y="-12" on="0"/>
        <pt x="51" y="67" on="0"/>
        <pt x="51" y="139" on="1"/>
        <pt x="51" y="207" on="0"/>
        <pt x="148" y="287" on="0"/>
        <pt x="259" y="287" on="1"/>
        <pt x="377" y="287" on="1"/>
        <pt x="377" y="347" on="1"/>
        <pt x="377" y="474" on="0"/>
        <pt x="246" y="474" on="1"/>
        <pt x="195" y="474" on="0"/>
        <pt x="127" y="431" on="0"/>
        <pt x="106" y="391" on="1"/>
        <pt x="70" y="421" on="1"/>
        <pt x="91" y="466" on="0"/>
        <pt x="178" y="524" on="0"/>
        <pt x="248" y="524" on="1"/>
        <pt x="338" y="524" on="0"/>
        <pt x="434" y="434" on="0"/>
        <pt x="434" y="353" on="1"/>
        <pt x="434" y="50" on="1"/>
        <pt x="503" y="50" on="1"/>
        <pt x="503" y="0" on="1"/>
      </contour>
      <contour>
        <pt x="228" y="37" on="1"/>
        <pt x="259" y="37" on="0"/>
        <pt x="313" y="53" on="0"/>
        <pt x="354" y="82" on="0"/>
        <pt x="377" y="123" on="0"/>
        <pt x="377" y="149" on="1"/>
        <pt x="377" y="244" on="1"/>
        <pt x="257" y="244" on="1"/>
        <pt x="180" y="244" on="0"/>
        <pt x="111" y="195" on="0"/>
        <pt x="111" y="152" on="1"/>
        <pt x="111" y="128" on="1"/>
        <pt x="111" y="83" on="0"/>
        <pt x="175" y="37" on="0"/>
      </contour>
    </TTGlyph>
    <TTGlyph name="a.alt01" xMin="54" yMin="-12" xMax="481" yMax="524">
      <contour>
        <pt x="424" y="82" on="1"/>
        <pt x="421" y="82" on="1"/>
        <pt x="401" y="39" on="0"/>
        <pt x="324" y="-12" on="0"/>
        <pt x="265" y="-12" on="1"/>
        <pt x="166" y="-12" on="0"/>
        <pt x="54" y="128" on="0"/>
        <pt x="54" y="256" on="1"/>
        <pt x="54" y="384" on="0"/>
        <pt x="166" y="524" on="0"/>
        <pt x="265" y="524" on="1"/>
        <pt x="324" y="524" on="0"/>
        <pt x="402" y="473" on="0"/>
        <pt x="421" y="430" on="1"/>
        <pt x="424" y="430" on="1"/>
        <pt x="424" y="512" on="1"/>
        <pt x="481" y="512" on="1"/>
        <pt x="481" y="0" on="1"/>
        <pt x="424" y="0" on="1"/>
      </contour>
      <contour>
        <pt x="278" y="39" on="1"/>
        <pt x="308" y="39" on="0"/>
        <pt x="361" y="55" on="0"/>
        <pt x="401" y="86" on="0"/>
        <pt x="424" y="129" on="0"/>
        <pt x="424" y="156" on="1"/>
        <pt x="424" y="359" on="1"/>
        <pt x="424" y="384" on="0"/>
        <pt x="401" y="426" on="0"/>
        <pt x="361" y="456" on="0"/>
        <pt x="308" y="473" on="0"/>
        <pt x="278" y="473" on="1"/>
        <pt x="201" y="473" on="0"/>
        <pt x="115" y="375" on="0"/>
        <pt x="115" y="292" on="1"/>
        <pt x="115" y="220" on="1"/>
        <pt x="115" y="137" on="0"/>
        <pt x="201" y="39" on="0"/>
      </contour>
    </TTGlyph>
    <TTGlyph name="aacute" xMin="51" yMin="-12" xMax="503" yMax="768">
      <component glyphName="a" x="0" y="0" flags="0x4"/>
      <component glyphName="acute" x="-48" y="0" flags="0x4"/>
    </TTGlyph>
    <TTGlyph name="aacute.alt01" xMin="54" yMin="-12" xMax="481" yMax="768">
      <component glyphName="a.alt01" x="0" y="0" flags="0x204"/>
      <component glyphName="acute" x="-23" y="0" flags="0x4"/>
    </TTGlyph>
    <TTGlyph name="acircumflex" xMin="51" yMin="-12" xMax="503" yMax="756">
      <component glyphName="a" x="0" y="0" flags="0x4"/>
      <component glyphName="circumflex" x="-48" y="0" flags="0x4"/>
    </TTGlyph>
    <TTGlyph name="acircumflex.alt01" xMin="54" yMin="-12" xMax="481" yMax="756">
      <component glyphName="a.alt01" x="0" y="0" flags="0x204"/>
      <component glyphName="circumflex" x="-23" y="0" flags="0x4"/>
    </TTGlyph>
    <TTGlyph name="acute" xMin="260" yMin="586" xMax="407" yMax="768">
      <contour>
        <pt x="297" y="586" on="1"/>
        <pt x="260" y="604" on="1"/>
        <pt x="355" y="768" on="1"/>
        <pt x="407" y="742" on="1"/>
      </contour>
    </TTGlyph>
    <TTGlyph name="acute.case" xMin="260" yMin="760" xMax="407" yMax="942">
      <contour>
        <pt x="297" y="760" on="1"/>
        <pt x="260" y="778" on="1"/>
        <pt x="355" y="942" on="1"/>
        <pt x="407" y="916" on="1"/>
      </contour>
    </TTGlyph>
    <TTGlyph name="adieresis" xMin="51" yMin="-12" xMax="503" yMax="709">
      <component glyphName="a" x="0" y="0" flags="0x4"/>
      <component glyphName="dieresis" x="-48" y="0" flags="0x4"/>
    </TTGlyph>
    <TTGlyph name="adieresis.alt01" xMin="54" yMin="-12" xMax="481" yMax="709">
      <component glyphName="a.alt01" x="0" y="0" flags="0x204"/>
      <component glyphName="dieresis" x="-23" y="0" flags="0x4"/>
    </TTGlyph>
    <TTGlyph name="ae" xMin="49" yMin="-12" xMax="811" yMax="524">
      <contour>
        <pt x="255" y="245" on="1"/>
        <pt x="178" y="244" on="0"/>
        <pt x="109" y="195" on="0"/>
        <pt x="109" y="152" on="1"/>
        <pt x="109" y="128" on="1"/>
        <pt x="109" y="83" on="0"/>
        <pt x="172" y="37" on="0"/>
        <pt x="226" y="37" on="1"/>
        <pt x="257" y="37" on="0"/>
        <pt x="311" y="53" on="0"/>
        <pt x="351" y="82" on="0"/>
        <pt x="375" y="123" on="0"/>
        <pt x="375" y="149" on="1"/>
        <pt x="375" y="245" on="1"/>
      </contour>
      <contour>
        <pt x="749" y="289" on="1"/>
        <pt x="749" y="297" on="1"/>
        <pt x="749" y="337" on="0"/>
        <pt x="727" y="404" on="0"/>
        <pt x="686" y="450" on="0"/>
        <pt x="629" y="476" on="0"/>
        <pt x="595" y="476" on="1"/>
        <pt x="558" y="476" on="0"/>
        <pt x="498" y="449" on="0"/>
        <pt x="455" y="401" on="0"/>
        <pt x="432" y="334" on="0"/>
        <pt x="432" y="294" on="1"/>
        <pt x="432" y="289" on="1"/>
      </contour>
      <contour>
        <pt x="599" y="38" on="1"/>
        <pt x="710" y="38" on="0"/>
        <pt x="754" y="140" on="1"/>
        <pt x="796" y="113" on="1"/>
        <pt x="772" y="56" on="0"/>
        <pt x="671" y="-12" on="0"/>
        <pt x="602" y="-12" on="1"/>
        <pt x="563" y="-12" on="0"/>
        <pt x="499" y="9" on="0"/>
        <pt x="450" y="43" on="0"/>
        <pt x="417" y="87" on="0"/>
        <pt x="410" y="111" on="1"/>
        <pt x="406" y="111" on="1"/>
        <pt x="401" y="88" on="0"/>
        <pt x="371" y="43" on="0"/>
        <pt x="322" y="9" on="0"/>
        <pt x="257" y="-12" on="0"/>
        <pt x="217" y="-12" on="1"/>
        <pt x="139" y="-12" on="0"/>
        <pt x="49" y="67" on="0"/>
        <pt x="49" y="137" on="1"/>
        <pt x="49" y="207" on="0"/>
        <pt x="147" y="289" on="0"/>
        <pt x="257" y="289" on="1"/>
        <pt x="375" y="289" on="1"/>
        <pt x="375" y="347" on="1"/>
        <pt x="375" y="411" on="0"/>
        <pt x="309" y="475" on="0"/>
        <pt x="246" y="475" on="1"/>
        <pt x="193" y="475" on="0"/>
        <pt x="126" y="433" on="0"/>
        <pt x="104" y="391" on="1"/>
        <pt x="68" y="421" on="1"/>
        <pt x="89" y="465" on="0"/>
        <pt x="176" y="524" on="0"/>
        <pt x="247" y="524" on="1"/>
        <pt x="288" y="524" on="0"/>
        <pt x="346" y="502" on="0"/>
        <pt x="385" y="467" on="0"/>
        <pt x="405" y="423" on="0"/>
        <pt x="409" y="401" on="1"/>
        <pt x="413" y="401" on="1"/>
        <pt x="420" y="424" on="0"/>
        <pt x="453" y="468" on="0"/>
        <pt x="501" y="503" on="0"/>
        <pt x="563" y="524" on="0"/>
        <pt x="600" y="524" on="1"/>
        <pt x="648" y="524" on="0"/>
        <pt x="726" y="487" on="0"/>
        <pt x="781" y="421" on="0"/>
        <pt x="811" y="328" on="0"/>
        <pt x="811" y="272" on="1"/>
        <pt x="811" y="245" on="1"/>
        <pt x="432" y="245" on="1"/>
        <pt x="432" y="220" on="1"/>
        <pt x="432" y="180" on="0"/>
        <pt x="455" y="113" on="0"/>
        <pt x="498" y="65" on="0"/>
        <pt x="560" y="38" on="0"/>
      </contour>
    </TTGlyph>
    <TTGlyph name="agrave" xMin="51" yMin="-12" xMax="503" yMax="768">
      <component glyphName="a" x="0" y="0" flags="0x4"/>
      <component glyphName="grave" x="-48" y="0" flags="0x4"/>
    </TTGlyph>
    <TTGlyph name="agrave.alt01" xMin="54" yMin="-12" xMax="481" yMax="768">
      <component glyphName="a.alt01" x="0" y="0" flags="0x204"/>
      <component glyphName="grave" x="-23" y="0" flags="0x4"/>
    </TTGlyph>
    <TTGlyph name="ampersand" xMin="71" yMin="-12" xMax="657" yMax="710">
      <contour>
        <pt x="492" y="95" on="1"/>
        <pt x="479" y="76" on="0"/>
        <pt x="441" y="38" on="0"/>
        <pt x="388" y="7" on="0"/>
        <pt x="321" y="-12" on="0"/>
        <pt x="280" y="-12" on="1"/>
        <pt x="230" y="-12" on="0"/>
        <pt x="153" y="16" on="0"/>
        <pt x="99" y="66" on="0"/>
        <pt x="71" y="135" on="0"/>
        <pt x="71" y="175" on="1"/>
        <pt x="71" y="215" on="0"/>
        <pt x="97" y="276" on="0"/>
        <pt x="139" y="323" on="0"/>
        <pt x="194" y="360" on="0"/>
        <pt x="224" y="375" on="1"/>
        <pt x="184" y="419" on="0"/>
        <pt x="138" y="499" on="0"/>
        <pt x="138" y="547" on="1"/>
        <pt x="138" y="582" on="0"/>
        <pt x="163" y="642" on="0"/>
        <pt x="209" y="685" on="0"/>
        <pt x="274" y="710" on="0"/>
        <pt x="314" y="710" on="1"/>
        <pt x="351" y="710" on="0"/>
        <pt x="412" y="688" on="0"/>
        <pt x="455" y="649" on="0"/>
        <pt x="479" y="596" on="0"/>
        <pt x="479" y="564" on="1"/>
        <pt x="479" y="529" on="0"/>
        <pt x="452" y="473" on="0"/>
        <pt x="406" y="426" on="0"/>
        <pt x="342" y="386" on="0"/>
        <pt x="305" y="367" on="1"/>
        <pt x="486" y="179" on="1"/>
        <pt x="502" y="218" on="0"/>
        <pt x="517" y="311" on="0"/>
        <pt x="519" y="361" on="1"/>
        <pt x="644" y="361" on="1"/>
        <pt x="644" y="311" on="1"/>
        <pt x="566" y="311" on="1"/>
        <pt x="557" y="216" on="0"/>
        <pt x="522" y="141" on="1"/>
        <pt x="657" y="0" on="1"/>
        <pt x="583" y="0" on="1"/>
      </contour>
      <contour>
        <pt x="311" y="662" on="1"/>
        <pt x="258" y="662" on="0"/>
        <pt x="195" y="600" on="0"/>
        <pt x="195" y="555" on="1"/>
        <pt x="195" y="541" on="1"/>
        <pt x="195" y="506" on="0"/>
        <pt x="239" y="437" on="0"/>
        <pt x="273" y="400" on="1"/>
        <pt x="303" y="415" on="0"/>
        <pt x="358" y="448" on="0"/>
        <pt x="399" y="486" on="0"/>
        <pt x="423" y="527" on="0"/>
        <pt x="423" y="551" on="1"/>
        <pt x="423" y="564" on="1"/>
        <pt x="423" y="587" on="0"/>
        <pt x="405" y="624" on="0"/>
        <pt x="374" y="649" on="0"/>
        <pt x="333" y="662" on="0"/>
      </contour>
      <contour>
        <pt x="131" y="169" on="1"/>
        <pt x="131" y="109" on="0"/>
        <pt x="215" y="39" on="0"/>
        <pt x="284" y="39" on="1"/>
        <pt x="345" y="39" on="0"/>
        <pt x="431" y="87" on="0"/>
        <pt x="459" y="130" on="1"/>
        <pt x="255" y="342" on="1"/>
        <pt x="230" y="329" on="0"/>
        <pt x="185" y="301" on="0"/>
        <pt x="151" y="265" on="0"/>
        <pt x="131" y="218" on="0"/>
        <pt x="131" y="186" on="1"/>
      </contour>
    </TTGlyph>
    <TTGlyph name="approxequal" xMin="63" yMin="153" xMax="537" yMax="458">
      <component glyphName="asciitilde" x="0" y="93" flags="0x204"/>
      <component glyphName="asciitilde" x="0" y="-92" flags="0x4"/>
    </TTGlyph>
    <TTGlyph name="aring" xMin="51" yMin="-12" xMax="503" yMax="792">
      <component glyphName="a" x="0" y="0" flags="0x4"/>
      <component glyphName="ring" x="-48" y="0" flags="0x4"/>
    </TTGlyph>
    <TTGlyph name="aring.alt01" xMin="54" yMin="-12" xMax="481" yMax="792">
      <component glyphName="a.alt01" x="0" y="0" flags="0x204"/>
      <component glyphName="ring" x="-23" y="0" flags="0x4"/>
    </TTGlyph>
    <TTGlyph name="asciicircum" xMin="57" yMin="306" xMax="543" yMax="698">
      <contour>
        <pt x="499" y="306" on="1"/>
        <pt x="302" y="644" on="1"/>
        <pt x="298" y="644" on="1"/>
        <pt x="101" y="306" on="1"/>
        <pt x="57" y="330" on="1"/>
        <pt x="269" y="698" on="1"/>
        <pt x="331" y="698" on="1"/>
        <pt x="543" y="330" on="1"/>
      </contour>
    </TTGlyph>
    <TTGlyph name="asciitilde" xMin="63" yMin="245" xMax="537" yMax="365">
      <contour>
        <pt x="421" y="245" on="1"/>
        <pt x="387" y="245" on="0"/>
        <pt x="331" y="264" on="0"/>
        <pt x="292" y="282" on="1"/>
        <pt x="257" y="298" on="0"/>
        <pt x="205" y="317" on="0"/>
        <pt x="176" y="317" on="1"/>
        <pt x="150" y="317" on="0"/>
        <pt x="111" y="300" on="0"/>
        <pt x="88" y="281" on="1"/>
        <pt x="63" y="313" on="1"/>
        <pt x="85" y="338" on="0"/>
        <pt x="138" y="365" on="0"/>
        <pt x="179" y="365" on="1"/>
        <pt x="213" y="365" on="0"/>
        <pt x="269" y="346" on="0"/>
        <pt x="308" y="328" on="1"/>
        <pt x="343" y="312" on="0"/>
        <pt x="395" y="293" on="0"/>
        <pt x="424" y="293" on="1"/>
        <pt x="450" y="293" on="0"/>
        <pt x="489" y="310" on="0"/>
        <pt x="512" y="329" on="1"/>
        <pt x="537" y="297" on="1"/>
        <pt x="515" y="272" on="0"/>
        <pt x="462" y="245" on="0"/>
      </contour>
    </TTGlyph>
    <TTGlyph name="asterisk" xMin="29" yMin="407" xMax="387" yMax="747">
      <contour>
        <pt x="122" y="407" on="1"/>
        <pt x="82" y="436" on="1"/>
        <pt x="174" y="557" on="1"/>
        <pt x="29" y="598" on="1"/>
        <pt x="44" y="647" on="1"/>
        <pt x="187" y="596" on="1"/>
        <pt x="183" y="747" on="1"/>
        <pt x="233" y="747" on="1"/>
        <pt x="229" y="596" on="1"/>
        <pt x="371" y="647" on="1"/>
        <pt x="387" y="598" on="1"/>
        <pt x="242" y="557" on="1"/>
        <pt x="334" y="436" on="1"/>
        <pt x="294" y="407" on="1"/>
        <pt x="208" y="532" on="1"/>
      </contour>
    </TTGlyph>
    <TTGlyph name="at" xMin="67" yMin="-121" xMax="820" yMax="709">
      <contour>
        <pt x="678" y="-121" on="1"/>
        <pt x="444" y="-121" on="1"/>
        <pt x="361" y="-121" on="0"/>
        <pt x="223" y="-64" on="0"/>
        <pt x="123" y="44" on="0"/>
        <pt x="67" y="197" on="0"/>
        <pt x="67" y="293" on="1"/>
        <pt x="67" y="387" on="0"/>
        <pt x="123" y="540" on="0"/>
        <pt x="225" y="649" on="0"/>
        <pt x="366" y="709" on="0"/>
        <pt x="451" y="709" on="1"/>
        <pt x="523" y="709" on="0"/>
        <pt x="657" y="664" on="0"/>
        <pt x="759" y="569" on="0"/>
        <pt x="820" y="425" on="0"/>
        <pt x="820" y="326" on="1"/>
        <pt x="820" y="273" on="0"/>
        <pt x="802" y="180" on="0"/>
        <pt x="763" y="110" on="0"/>
        <pt x="701" y="69" on="0"/>
        <pt x="658" y="69" on="1"/>
        <pt x="614" y="69" on="0"/>
        <pt x="565" y="115" on="0"/>
        <pt x="560" y="152" on="1"/>
        <pt x="557" y="152" on="1"/>
        <pt x="539" y="117" on="0"/>
        <pt x="478" y="69" on="0"/>
        <pt x="428" y="69" on="1"/>
        <pt x="391" y="69" on="0"/>
        <pt x="328" y="96" on="0"/>
        <pt x="281" y="151" on="0"/>
        <pt x="255" y="233" on="0"/>
        <pt x="255" y="288" on="1"/>
        <pt x="255" y="343" on="0"/>
        <pt x="281" y="426" on="0"/>
        <pt x="328" y="482" on="0"/>
        <pt x="391" y="509" on="0"/>
        <pt x="428" y="509" on="1"/>
        <pt x="478" y="509" on="0"/>
        <pt x="536" y="463" on="0"/>
        <pt x="550" y="432" on="1"/>
        <pt x="554" y="432" on="1"/>
        <pt x="554" y="498" on="1"/>
        <pt x="604" y="498" on="1"/>
        <pt x="604" y="183" on="1"/>
        <pt x="604" y="146" on="0"/>
        <pt x="636" y="113" on="0"/>
        <pt x="666" y="113" on="1"/>
        <pt x="716" y="113" on="0"/>
        <pt x="771" y="217" on="0"/>
        <pt x="771" y="308" on="1"/>
        <pt x="771" y="354" on="1"/>
        <pt x="771" y="424" on="0"/>
        <pt x="722" y="539" on="0"/>
        <pt x="635" y="621" on="0"/>
        <pt x="518" y="665" on="0"/>
        <pt x="450" y="665" on="1"/>
        <pt x="377" y="665" on="0"/>
        <pt x="254" y="613" on="0"/>
        <pt x="166" y="521" on="0"/>
        <pt x="116" y="396" on="0"/>
        <pt x="116" y="323" on="1"/>
        <pt x="116" y="267" on="1"/>
        <pt x="116" y="191" on="0"/>
        <pt x="165" y="64" on="0"/>
        <pt x="252" y="-27" on="0"/>
        <pt x="373" y="-77" on="0"/>
        <pt x="445" y="-77" on="1"/>
        <pt x="678" y="-77" on="1"/>
      </contour>
      <contour>
        <pt x="437" y="117" on="1"/>
        <pt x="491" y="117" on="0"/>
        <pt x="554" y="174" on="0"/>
        <pt x="554" y="224" on="1"/>
        <pt x="554" y="357" on="1"/>
        <pt x="554" y="403" on="0"/>
        <pt x="491" y="461" on="0"/>
        <pt x="437" y="461" on="1"/>
        <pt x="375" y="461" on="0"/>
        <pt x="315" y="386" on="0"/>
        <pt x="315" y="320" on="1"/>
        <pt x="315" y="256" on="1"/>
        <pt x="315" y="193" on="0"/>
        <pt x="375" y="117" on="0"/>
      </contour>
    </TTGlyph>
    <TTGlyph name="atilde" xMin="51" yMin="-12" xMax="503" yMax="718">
      <component glyphName="a" x="0" y="0" flags="0x4"/>
      <component glyphName="tilde" x="-48" y="0" flags="0x4"/>
    </TTGlyph>
    <TTGlyph name="atilde.alt01" xMin="54" yMin="-12" xMax="481" yMax="718">
      <component glyphName="a.alt01" x="0" y="0" flags="0x204"/>
      <component glyphName="tilde" x="-23" y="0" flags="0x4"/>
    </TTGlyph>
    <TTGlyph name="b" xMin="93" yMin="-12" xMax="520" yMax="740">
      <contour>
        <pt x="93" y="740" on="1"/>
        <pt x="150" y="740" on="1"/>
        <pt x="150" y="430" on="1"/>
        <pt x="153" y="430" on="1"/>
        <pt x="172" y="473" on="0"/>
        <pt x="250" y="524" on="0"/>
        <pt x="309" y="524" on="1"/>
        <pt x="408" y="524" on="0"/>
        <pt x="520" y="384" on="0"/>
        <pt x="520" y="256" on="1"/>
        <pt x="520" y="128" on="0"/>
        <pt x="408" y="-12" on="0"/>
        <pt x="309" y="-12" on="1"/>
        <pt x="250" y="-12" on="0"/>
        <pt x="174" y="39" on="0"/>
        <pt x="153" y="82" on="1"/>
        <pt x="150" y="82" on="1"/>
        <pt x="150" y="0" on="1"/>
        <pt x="93" y="0" on="1"/>
      </contour>
      <contour>
        <pt x="296" y="39" on="1"/>
        <pt x="373" y="39" on="0"/>
        <pt x="459" y="137" on="0"/>
        <pt x="459" y="220" on="1"/>
        <pt x="459" y="292" on="1"/>
        <pt x="459" y="375" on="0"/>
        <pt x="373" y="473" on="0"/>
        <pt x="296" y="473" on="1"/>
        <pt x="266" y="473" on="0"/>
        <pt x="213" y="456" on="0"/>
        <pt x="173" y="426" on="0"/>
        <pt x="150" y="384" on="0"/>
        <pt x="150" y="359" on="1"/>
        <pt x="150" y="156" on="1"/>
        <pt x="150" y="129" on="0"/>
        <pt x="173" y="86" on="0"/>
        <pt x="213" y="55" on="0"/>
        <pt x="266" y="39" on="0"/>
      </contour>
    </TTGlyph>
    <TTGlyph name="backslash" xMin="40" yMin="-151" xMax="341" yMax="740">
      <contour>
        <pt x="289" y="-151" on="1"/>
        <pt x="40" y="740" on="1"/>
        <pt x="92" y="740" on="1"/>
        <pt x="341" y="-151" on="1"/>
      </contour>
    </TTGlyph>
    <TTGlyph name="bar" xMin="118" yMin="-138" xMax="167" yMax="760">
      <contour>
        <pt x="118" y="-138" on="1"/>
        <pt x="118" y="760" on="1"/>
        <pt x="167" y="760" on="1"/>
        <pt x="167" y="-138" on="1"/>
      </contour>
    </TTGlyph>
    <TTGlyph name="braceleft" xMin="23" yMin="-138" xMax="269" yMax="760">
      <contour>
        <pt x="179" y="-138" on="1"/>
        <pt x="150" y="-138" on="0"/>
        <pt x="120" y="-104" on="0"/>
        <pt x="120" y="-78" on="1"/>
        <pt x="120" y="191" on="1"/>
        <pt x="120" y="235" on="0"/>
        <pt x="67" y="278" on="0"/>
        <pt x="23" y="278" on="1"/>
        <pt x="23" y="344" on="1"/>
        <pt x="67" y="344" on="0"/>
        <pt x="120" y="387" on="0"/>
        <pt x="120" y="431" on="1"/>
        <pt x="120" y="700" on="1"/>
        <pt x="120" y="726" on="0"/>
        <pt x="150" y="760" on="0"/>
        <pt x="179" y="760" on="1"/>
        <pt x="269" y="760" on="1"/>
        <pt x="269" y="715" on="1"/>
        <pt x="170" y="715" on="1"/>
        <pt x="170" y="437" on="1"/>
        <pt x="170" y="389" on="0"/>
        <pt x="117" y="324" on="0"/>
        <pt x="74" y="319" on="1"/>
        <pt x="74" y="303" on="1"/>
        <pt x="117" y="298" on="0"/>
        <pt x="170" y="233" on="0"/>
        <pt x="170" y="185" on="1"/>
        <pt x="170" y="-93" on="1"/>
        <pt x="269" y="-93" on="1"/>
        <pt x="269" y="-138" on="1"/>
      </contour>
    </TTGlyph>
    <TTGlyph name="braceright" xMin="63" yMin="-138" xMax="309" yMax="760">
      <contour>
        <pt x="153" y="760" on="1"/>
        <pt x="182" y="760" on="0"/>
        <pt x="212" y="726" on="0"/>
        <pt x="212" y="700" on="1"/>
        <pt x="212" y="431" on="1"/>
        <pt x="212" y="387" on="0"/>
        <pt x="265" y="344" on="0"/>
        <pt x="309" y="344" on="1"/>
        <pt x="309" y="278" on="1"/>
        <pt x="265" y="278" on="0"/>
        <pt x="212" y="235" on="0"/>
        <pt x="212" y="191" on="1"/>
        <pt x="212" y="-78" on="1"/>
        <pt x="212" y="-104" on="0"/>
        <pt x="182" y="-138" on="0"/>
        <pt x="153" y="-138" on="1"/>
        <pt x="63" y="-138" on="1"/>
        <pt x="63" y="-93" on="1"/>
        <pt x="162" y="-93" on="1"/>
        <pt x="162" y="185" on="1"/>
        <pt x="162" y="233" on="0"/>
        <pt x="215" y="298" on="0"/>
        <pt x="259" y="303" on="1"/>
        <pt x="259" y="319" on="1"/>
        <pt x="215" y="324" on="0"/>
        <pt x="162" y="389" on="0"/>
        <pt x="162" y="437" on="1"/>
        <pt x="162" y="715" on="1"/>
        <pt x="63" y="715" on="1"/>
        <pt x="63" y="760" on="1"/>
      </contour>
    </TTGlyph>
    <TTGlyph name="bracketleft" xMin="99" yMin="-138" xMax="247" yMax="760">
      <contour>
        <pt x="99" y="-138" on="1"/>
        <pt x="99" y="760" on="1"/>
        <pt x="247" y="760" on="1"/>
        <pt x="247" y="715" on="1"/>
        <pt x="149" y="715" on="1"/>
        <pt x="149" y="-93" on="1"/>
        <pt x="247" y="-93" on="1"/>
        <pt x="247" y="-138" on="1"/>
      </contour>
    </TTGlyph>
    <TTGlyph name="bracketright" xMin="64" yMin="-138" xMax="212" yMax="760">
      <contour>
        <pt x="212" y="760" on="1"/>
        <pt x="212" y="-138" on="1"/>
        <pt x="64" y="-138" on="1"/>
        <pt x="64" y="-93" on="1"/>
        <pt x="162" y="-93" on="1"/>
        <pt x="162" y="715" on="1"/>
        <pt x="64" y="715" on="1"/>
        <pt x="64" y="760" on="1"/>
      </contour>
    </TTGlyph>
    <TTGlyph name="breve" xMin="156" yMin="600" xMax="444" yMax="738">
      <contour>
        <pt x="300" y="600" on="1"/>
        <pt x="265" y="600" on="0"/>
        <pt x="219" y="621" on="0"/>
        <pt x="187" y="655" on="0"/>
        <pt x="165" y="699" on="0"/>
        <pt x="156" y="722" on="1"/>
        <pt x="189" y="738" on="1"/>
        <pt x="208" y="707" on="1"/>
        <pt x="227" y="675" on="0"/>
        <pt x="264" y="646" on="0"/>
        <pt x="300" y="646" on="1"/>
        <pt x="336" y="646" on="0"/>
        <pt x="373" y="675" on="0"/>
        <pt x="392" y="707" on="1"/>
        <pt x="411" y="738" on="1"/>
        <pt x="444" y="722" on="1"/>
        <pt x="435" y="699" on="0"/>
        <pt x="413" y="655" on="0"/>
        <pt x="381" y="621" on="0"/>
        <pt x="334" y="600" on="0"/>
      </contour>
    </TTGlyph>
    <TTGlyph name="breve.case" xMin="156" yMin="774" xMax="444" yMax="912">
      <contour>
        <pt x="300" y="774" on="1"/>
        <pt x="265" y="774" on="0"/>
        <pt x="219" y="795" on="0"/>
        <pt x="187" y="829" on="0"/>
        <pt x="165" y="873" on="0"/>
        <pt x="156" y="896" on="1"/>
        <pt x="189" y="912" on="1"/>
        <pt x="208" y="881" on="1"/>
        <pt x="227" y="849" on="0"/>
        <pt x="264" y="820" on="0"/>
        <pt x="300" y="820" on="1"/>
        <pt x="336" y="820" on="0"/>
        <pt x="373" y="849" on="0"/>
        <pt x="392" y="881" on="1"/>
        <pt x="411" y="912" on="1"/>
        <pt x="444" y="896" on="1"/>
        <pt x="435" y="873" on="0"/>
        <pt x="413" y="829" on="0"/>
        <pt x="381" y="795" on="0"/>
        <pt x="334" y="774" on="0"/>
      </contour>
    </TTGlyph>
    <TTGlyph name="brokenbar" xMin="118" yMin="-138" xMax="167" yMax="760">
      <contour>
        <pt x="118" y="404" on="1"/>
        <pt x="118" y="760" on="1"/>
        <pt x="167" y="760" on="1"/>
        <pt x="167" y="404" on="1"/>
      </contour>
      <contour>
        <pt x="118" y="-138" on="1"/>
        <pt x="118" y="218" on="1"/>
        <pt x="167" y="218" on="1"/>
        <pt x="167" y="-138" on="1"/>
      </contour>
    </TTGlyph>
    <TTGlyph name="bullet" xMin="78" yMin="198" xMax="294" yMax="410">
      <contour>
        <pt x="186" y="198" on="1"/>
        <pt x="127" y="198" on="0"/>
        <pt x="78" y="252" on="0"/>
        <pt x="78" y="291" on="1"/>
        <pt x="78" y="317" on="1"/>
        <pt x="78" y="356" on="0"/>
        <pt x="127" y="410" on="0"/>
        <pt x="186" y="410" on="1"/>
        <pt x="245" y="410" on="0"/>
        <pt x="294" y="356" on="0"/>
        <pt x="294" y="317" on="1"/>
        <pt x="294" y="291" on="1"/>
        <pt x="294" y="252" on="0"/>
        <pt x="245" y="198" on="0"/>
      </contour>
    </TTGlyph>
    <TTGlyph name="c" xMin="52" yMin="-12" xMax="462" yMax="524">
      <contour>
        <pt x="273" y="-12" on="1"/>
        <pt x="167" y="-12" on="0"/>
        <pt x="52" y="128" on="0"/>
        <pt x="52" y="256" on="1"/>
        <pt x="52" y="384" on="0"/>
        <pt x="167" y="524" on="0"/>
        <pt x="273" y="524" on="1"/>
        <pt x="344" y="524" on="0"/>
        <pt x="432" y="462" on="0"/>
        <pt x="455" y="411" on="1"/>
        <pt x="407" y="387" on="1"/>
        <pt x="389" y="429" on="0"/>
        <pt x="324" y="473" on="0"/>
        <pt x="273" y="473" on="1"/>
        <pt x="195" y="473" on="0"/>
        <pt x="113" y="373" on="0"/>
        <pt x="113" y="292" on="1"/>
        <pt x="113" y="220" on="1"/>
        <pt x="113" y="139" on="0"/>
        <pt x="195" y="39" on="0"/>
        <pt x="273" y="39" on="1"/>
        <pt x="326" y="39" on="0"/>
        <pt x="398" y="85" on="0"/>
        <pt x="420" y="128" on="1"/>
        <pt x="462" y="100" on="1"/>
        <pt x="437" y="49" on="0"/>
        <pt x="344" y="-12" on="0"/>
      </contour>
    </TTGlyph>
    <TTGlyph name="caron" xMin="147" yMin="601" xMax="453" yMax="763">
      <contour>
        <pt x="265" y="601" on="1"/>
        <pt x="147" y="740" on="1"/>
        <pt x="179" y="763" on="1"/>
        <pt x="300" y="642" on="1"/>
        <pt x="421" y="763" on="1"/>
        <pt x="453" y="740" on="1"/>
        <pt x="335" y="601" on="1"/>
      </contour>
    </TTGlyph>
    <TTGlyph name="caron.case" xMin="147" yMin="774" xMax="453" yMax="937">
      <contour>
        <pt x="265" y="774" on="1"/>
        <pt x="147" y="914" on="1"/>
        <pt x="179" y="937" on="1"/>
        <pt x="300" y="816" on="1"/>
        <pt x="421" y="937" on="1"/>
        <pt x="453" y="914" on="1"/>
        <pt x="335" y="774" on="1"/>
      </contour>
    </TTGlyph>
    <TTGlyph name="ccedilla" xMin="52" yMin="-205" xMax="462" yMax="524">
      <contour>
        <pt x="273" y="524" on="1"/>
        <pt x="344" y="524" on="0"/>
        <pt x="432" y="462" on="0"/>
        <pt x="455" y="412" on="1"/>
        <pt x="407" y="387" on="1"/>
        <pt x="389" y="429" on="0"/>
        <pt x="324" y="473" on="0"/>
        <pt x="273" y="473" on="1"/>
        <pt x="195" y="473" on="0"/>
        <pt x="113" y="373" on="0"/>
        <pt x="113" y="292" on="1"/>
        <pt x="113" y="220" on="1"/>
        <pt x="113" y="139" on="0"/>
        <pt x="195" y="39" on="0"/>
        <pt x="273" y="39" on="1"/>
        <pt x="326" y="39" on="0"/>
        <pt x="398" y="85" on="0"/>
        <pt x="420" y="128" on="1"/>
        <pt x="462" y="100" on="1"/>
        <pt x="439" y="52" on="0"/>
        <pt x="354" y="-8" on="0"/>
        <pt x="290" y="-11" on="1"/>
        <pt x="278" y="-66" on="1"/>
        <pt x="280" y="-68" on="1"/>
        <pt x="300" y="-63" on="0"/>
        <pt x="316" y="-63" on="1"/>
        <pt x="345" y="-63" on="0"/>
        <pt x="384" y="-96" on="0"/>
        <pt x="384" y="-127" on="1"/>
        <pt x="384" y="-164" on="0"/>
        <pt x="326" y="-205" on="0"/>
        <pt x="284" y="-205" on="1"/>
        <pt x="248" y="-205" on="0"/>
        <pt x="202" y="-182" on="0"/>
        <pt x="192" y="-168" on="1"/>
        <pt x="220" y="-137" on="1"/>
        <pt x="230" y="-149" on="0"/>
        <pt x="261" y="-165" on="0"/>
        <pt x="284" y="-165" on="1"/>
        <pt x="306" y="-165" on="0"/>
        <pt x="335" y="-146" on="0"/>
        <pt x="335" y="-126" on="1"/>
        <pt x="335" y="-110" on="0"/>
        <pt x="308" y="-88" on="0"/>
        <pt x="269" y="-83" on="1"/>
        <pt x="238" y="-80" on="1"/>
        <pt x="252" y="-11" on="1"/>
        <pt x="155" y="-4" on="0"/>
        <pt x="52" y="135" on="0"/>
        <pt x="52" y="256" on="1"/>
        <pt x="52" y="384" on="0"/>
        <pt x="167" y="524" on="0"/>
      </contour>
    </TTGlyph>
    <TTGlyph name="cedilla" xMin="219" yMin="-205" xMax="411" yMax="13">
      <contour>
        <pt x="311" y="-205" on="1"/>
        <pt x="275" y="-205" on="0"/>
        <pt x="229" y="-182" on="0"/>
        <pt x="219" y="-168" on="1"/>
        <pt x="247" y="-137" on="1"/>
        <pt x="257" y="-149" on="0"/>
        <pt x="288" y="-165" on="0"/>
        <pt x="311" y="-165" on="1"/>
        <pt x="333" y="-165" on="0"/>
        <pt x="361" y="-146" on="0"/>
        <pt x="361" y="-126" on="1"/>
        <pt x="361" y="-110" on="0"/>
        <pt x="335" y="-88" on="0"/>
        <pt x="296" y="-83" on="1"/>
        <pt x="265" y="-80" on="1"/>
        <pt x="284" y="13" on="1"/>
        <pt x="322" y="13" on="1"/>
        <pt x="305" y="-66" on="1"/>
        <pt x="307" y="-68" on="1"/>
        <pt x="327" y="-63" on="0"/>
        <pt x="343" y="-63" on="1"/>
        <pt x="372" y="-63" on="0"/>
        <pt x="411" y="-96" on="0"/>
        <pt x="411" y="-127" on="1"/>
        <pt x="411" y="-164" on="0"/>
        <pt x="353" y="-205" on="0"/>
      </contour>
    </TTGlyph>
    <TTGlyph name="cent" xMin="52" yMin="-114" xMax="463" yMax="626">
      <contour>
        <pt x="242" y="-114" on="1"/>
        <pt x="242" y="-10" on="1"/>
        <pt x="151" y="0" on="0"/>
        <pt x="52" y="138" on="0"/>
        <pt x="52" y="256" on="1"/>
        <pt x="52" y="374" on="0"/>
        <pt x="151" y="512" on="0"/>
        <pt x="242" y="522" on="1"/>
        <pt x="242" y="626" on="1"/>
        <pt x="292" y="626" on="1"/>
        <pt x="292" y="523" on="1"/>
        <pt x="353" y="520" on="0"/>
        <pt x="433" y="459" on="0"/>
        <pt x="455" y="411" on="1"/>
        <pt x="409" y="388" on="1"/>
        <pt x="391" y="426" on="0"/>
        <pt x="334" y="470" on="0"/>
        <pt x="291" y="473" on="1"/>
        <pt x="291" y="39" on="1"/>
        <pt x="337" y="42" on="0"/>
        <pt x="401" y="88" on="0"/>
        <pt x="421" y="127" on="1"/>
        <pt x="463" y="99" on="1"/>
        <pt x="440" y="51" on="0"/>
        <pt x="355" y="-8" on="0"/>
        <pt x="292" y="-11" on="1"/>
        <pt x="292" y="-114" on="1"/>
      </contour>
      <contour>
        <pt x="113" y="220" on="1"/>
        <pt x="113" y="147" on="0"/>
        <pt x="180" y="50" on="0"/>
        <pt x="243" y="42" on="1"/>
        <pt x="243" y="471" on="1"/>
        <pt x="180" y="462" on="0"/>
        <pt x="113" y="366" on="0"/>
        <pt x="113" y="292" on="1"/>
      </contour>
    </TTGlyph>
    <TTGlyph name="circumflex" xMin="147" yMin="594" xMax="453" yMax="756">
      <contour>
        <pt x="335" y="756" on="1"/>
        <pt x="453" y="617" on="1"/>
        <pt x="421" y="594" on="1"/>
        <pt x="300" y="715" on="1"/>
        <pt x="179" y="594" on="1"/>
        <pt x="147" y="617" on="1"/>
        <pt x="265" y="756" on="1"/>
      </contour>
    </TTGlyph>
    <TTGlyph name="circumflex.case" xMin="147" yMin="768" xMax="453" yMax="930">
      <contour>
        <pt x="335" y="930" on="1"/>
        <pt x="453" y="791" on="1"/>
        <pt x="421" y="768" on="1"/>
        <pt x="300" y="888" on="1"/>
        <pt x="179" y="768" on="1"/>
        <pt x="147" y="791" on="1"/>
        <pt x="265" y="930" on="1"/>
      </contour>
    </TTGlyph>
    <TTGlyph name="colon" xMin="92" yMin="-9" xMax="188" yMax="521">
      <component glyphName="period" x="10" y="0" flags="0x4"/>
      <component glyphName="period" x="10" y="429" flags="0x4"/>
    </TTGlyph>
    <TTGlyph name="comma" xMin="44" yMin="-138" xMax="178" yMax="92">
      <contour>
        <pt x="130" y="92" on="1"/>
        <pt x="155" y="92" on="0"/>
        <pt x="178" y="66" on="0"/>
        <pt x="178" y="46" on="1"/>
        <pt x="178" y="33" on="1"/>
        <pt x="178" y="-9" on="0"/>
        <pt x="131" y="-104" on="0"/>
        <pt x="92" y="-138" on="1"/>
        <pt x="44" y="-138" on="1"/>
        <pt x="77" y="-104" on="0"/>
        <pt x="112" y="-40" on="0"/>
        <pt x="118" y="-7" on="1"/>
        <pt x="98" y="-5" on="0"/>
        <pt x="82" y="18" on="0"/>
        <pt x="82" y="34" on="1"/>
        <pt x="82" y="46" on="1"/>
        <pt x="82" y="66" on="0"/>
        <pt x="105" y="92" on="0"/>
      </contour>
    </TTGlyph>
    <TTGlyph name="copyright" xMin="45" yMin="-11" xMax="703" yMax="709">
      <contour>
        <pt x="374" y="-11" on="1"/>
        <pt x="303" y="-11" on="0"/>
        <pt x="183" y="39" on="0"/>
        <pt x="95" y="133" on="0"/>
        <pt x="45" y="266" on="0"/>
        <pt x="45" y="349" on="1"/>
        <pt x="45" y="432" on="0"/>
        <pt x="95" y="565" on="0"/>
        <pt x="183" y="659" on="0"/>
        <pt x="303" y="709" on="0"/>
        <pt x="374" y="709" on="1"/>
        <pt x="444" y="709" on="0"/>
        <pt x="565" y="659" on="0"/>
        <pt x="653" y="565" on="0"/>
        <pt x="703" y="432" on="0"/>
        <pt x="703" y="349" on="1"/>
        <pt x="703" y="266" on="0"/>
        <pt x="653" y="133" on="0"/>
        <pt x="565" y="39" on="0"/>
        <pt x="444" y="-11" on="0"/>
      </contour>
      <contour>
        <pt x="374" y="32" on="1"/>
        <pt x="436" y="32" on="0"/>
        <pt x="539" y="76" on="0"/>
        <pt x="612" y="154" on="0"/>
        <pt x="653" y="260" on="0"/>
        <pt x="653" y="322" on="1"/>
        <pt x="653" y="376" on="1"/>
        <pt x="653" y="438" on="0"/>
        <pt x="612" y="544" on="0"/>
        <pt x="539" y="622" on="0"/>
        <pt x="436" y="666" on="0"/>
        <pt x="374" y="666" on="1"/>
        <pt x="312" y="666" on="0"/>
        <pt x="209" y="622" on="0"/>
        <pt x="136" y="544" on="0"/>
        <pt x="95" y="438" on="0"/>
        <pt x="95" y="376" on="1"/>
        <pt x="95" y="322" on="1"/>
        <pt x="95" y="260" on="0"/>
        <pt x="136" y="154" on="0"/>
        <pt x="209" y="76" on="0"/>
        <pt x="312" y="32" on="0"/>
      </contour>
      <contour>
        <pt x="377" y="153" on="1"/>
        <pt x="303" y="153" on="0"/>
        <pt x="219" y="256" on="0"/>
        <pt x="219" y="348" on="1"/>
        <pt x="219" y="440" on="0"/>
        <pt x="303" y="543" on="0"/>
        <pt x="378" y="543" on="1"/>
        <pt x="428" y="543" on="0"/>
        <pt x="492" y="496" on="0"/>
        <pt x="507" y="458" on="1"/>
        <pt x="466" y="437" on="1"/>
        <pt x="455" y="466" on="0"/>
        <pt x="412" y="498" on="0"/>
        <pt x="378" y="498" on="1"/>
        <pt x="328" y="498" on="0"/>
        <pt x="273" y="431" on="0"/>
        <pt x="273" y="371" on="1"/>
        <pt x="273" y="324" on="1"/>
        <pt x="273" y="264" on="0"/>
        <pt x="328" y="198" on="0"/>
        <pt x="378" y="198" on="1"/>
        <pt x="413" y="198" on="0"/>
        <pt x="458" y="232" on="0"/>
        <pt x="473" y="261" on="1"/>
        <pt x="513" y="238" on="1"/>
        <pt x="496" y="201" on="0"/>
        <pt x="428" y="153" on="0"/>
      </contour>
    </TTGlyph>
    <TTGlyph name="currency" xMin="20" yMin="68" xMax="582" yMax="630">
      <contour>
        <pt x="301" y="123" on="1"/>
        <pt x="213" y="123" on="0"/>
        <pt x="160" y="174" on="1"/>
        <pt x="55" y="68" on="1"/>
        <pt x="20" y="103" on="1"/>
        <pt x="128" y="211" on="1"/>
        <pt x="112" y="238" on="0"/>
        <pt x="95" y="307" on="0"/>
        <pt x="95" y="349" on="1"/>
        <pt x="95" y="391" on="0"/>
        <pt x="112" y="460" on="0"/>
        <pt x="128" y="487" on="1"/>
        <pt x="20" y="595" on="1"/>
        <pt x="55" y="630" on="1"/>
        <pt x="160" y="524" on="1"/>
        <pt x="213" y="575" on="0"/>
        <pt x="301" y="575" on="1"/>
        <pt x="389" y="575" on="0"/>
        <pt x="442" y="524" on="1"/>
        <pt x="547" y="630" on="1"/>
        <pt x="582" y="595" on="1"/>
        <pt x="474" y="487" on="1"/>
        <pt x="490" y="460" on="0"/>
        <pt x="507" y="391" on="0"/>
        <pt x="507" y="349" on="1"/>
        <pt x="507" y="307" on="0"/>
        <pt x="490" y="238" on="0"/>
        <pt x="474" y="211" on="1"/>
        <pt x="582" y="103" on="1"/>
        <pt x="547" y="68" on="1"/>
        <pt x="442" y="174" on="1"/>
        <pt x="389" y="123" on="0"/>
      </contour>
      <contour>
        <pt x="301" y="171" on="1"/>
        <pt x="368" y="171" on="0"/>
        <pt x="446" y="248" on="0"/>
        <pt x="446" y="321" on="1"/>
        <pt x="446" y="377" on="1"/>
        <pt x="446" y="450" on="0"/>
        <pt x="368" y="527" on="0"/>
        <pt x="301" y="527" on="1"/>
        <pt x="234" y="527" on="0"/>
        <pt x="156" y="450" on="0"/>
        <pt x="156" y="377" on="1"/>
        <pt x="156" y="321" on="1"/>
        <pt x="156" y="248" on="0"/>
        <pt x="234" y="171" on="0"/>
      </contour>
    </TTGlyph>
    <TTGlyph name="d" xMin="54" yMin="-12" xMax="481" yMax="740">
      <contour>
        <pt x="424" y="82" on="1"/>
        <pt x="421" y="82" on="1"/>
        <pt x="401" y="39" on="0"/>
        <pt x="324" y="-12" on="0"/>
        <pt x="265" y="-12" on="1"/>
        <pt x="166" y="-12" on="0"/>
        <pt x="54" y="128" on="0"/>
        <pt x="54" y="256" on="1"/>
        <pt x="54" y="384" on="0"/>
        <pt x="166" y="524" on="0"/>
        <pt x="265" y="524" on="1"/>
        <pt x="324" y="524" on="0"/>
        <pt x="402" y="473" on="0"/>
        <pt x="421" y="430" on="1"/>
        <pt x="424" y="430" on="1"/>
        <pt x="424" y="740" on="1"/>
        <pt x="481" y="740" on="1"/>
        <pt x="481" y="0" on="1"/>
        <pt x="424" y="0" on="1"/>
      </contour>
      <contour>
        <pt x="278" y="39" on="1"/>
        <pt x="308" y="39" on="0"/>
        <pt x="361" y="55" on="0"/>
        <pt x="401" y="86" on="0"/>
        <pt x="424" y="129" on="0"/>
        <pt x="424" y="156" on="1"/>
        <pt x="424" y="359" on="1"/>
        <pt x="424" y="384" on="0"/>
        <pt x="401" y="426" on="0"/>
        <pt x="361" y="456" on="0"/>
        <pt x="308" y="473" on="0"/>
        <pt x="278" y="473" on="1"/>
        <pt x="201" y="473" on="0"/>
        <pt x="115" y="375" on="0"/>
        <pt x="115" y="292" on="1"/>
        <pt x="115" y="220" on="1"/>
        <pt x="115" y="137" on="0"/>
        <pt x="201" y="39" on="0"/>
      </contour>
    </TTGlyph>
    <TTGlyph name="dagger" xMin="54" yMin="-200" xMax="503" yMax="740">
      <contour>
        <pt x="253" y="-200" on="1"/>
        <pt x="253" y="466" on="1"/>
        <pt x="54" y="466" on="1"/>
        <pt x="54" y="512" on="1"/>
        <pt x="253" y="512" on="1"/>
        <pt x="253" y="740" on="1"/>
        <pt x="304" y="740" on="1"/>
        <pt x="304" y="512" on="1"/>
        <pt x="503" y="512" on="1"/>
        <pt x="503" y="466" on="1"/>
        <pt x="304" y="466" on="1"/>
        <pt x="304" y="-200" on="1"/>
      </contour>
    </TTGlyph>
    <TTGlyph name="daggerdbl" xMin="54" yMin="-200" xMax="503" yMax="740">
      <contour>
        <pt x="253" y="-200" on="1"/>
        <pt x="253" y="28" on="1"/>
        <pt x="54" y="28" on="1"/>
        <pt x="54" y="74" on="1"/>
        <pt x="253" y="74" on="1"/>
        <pt x="253" y="466" on="1"/>
        <pt x="54" y="466" on="1"/>
        <pt x="54" y="512" on="1"/>
        <pt x="253" y="512" on="1"/>
        <pt x="253" y="740" on="1"/>
        <pt x="304" y="740" on="1"/>
        <pt x="304" y="512" on="1"/>
        <pt x="503" y="512" on="1"/>
        <pt x="503" y="466" on="1"/>
        <pt x="304" y="466" on="1"/>
        <pt x="304" y="74" on="1"/>
        <pt x="503" y="74" on="1"/>
        <pt x="503" y="28" on="1"/>
        <pt x="304" y="28" on="1"/>
        <pt x="304" y="-200" on="1"/>
      </contour>
    </TTGlyph>
    <TTGlyph name="degree" xMin="67" yMin="370" xMax="399" yMax="710">
      <contour>
        <pt x="233" y="370" on="1"/>
        <pt x="197" y="370" on="0"/>
        <pt x="137" y="396" on="0"/>
        <pt x="92" y="442" on="0"/>
        <pt x="67" y="504" on="0"/>
        <pt x="67" y="540" on="1"/>
        <pt x="67" y="576" on="0"/>
        <pt x="92" y="638" on="0"/>
        <pt x="137" y="684" on="0"/>
        <pt x="197" y="710" on="0"/>
        <pt x="233" y="710" on="1"/>
        <pt x="269" y="710" on="0"/>
        <pt x="329" y="684" on="0"/>
        <pt x="374" y="638" on="0"/>
        <pt x="399" y="576" on="0"/>
        <pt x="399" y="540" on="1"/>
        <pt x="399" y="504" on="0"/>
        <pt x="374" y="442" on="0"/>
        <pt x="329" y="396" on="0"/>
        <pt x="269" y="370" on="0"/>
      </contour>
      <contour>
        <pt x="233" y="416" on="1"/>
        <pt x="260" y="416" on="0"/>
        <pt x="302" y="436" on="0"/>
        <pt x="332" y="469" on="0"/>
        <pt x="348" y="514" on="0"/>
        <pt x="348" y="540" on="1"/>
        <pt x="348" y="565" on="0"/>
        <pt x="332" y="611" on="0"/>
        <pt x="302" y="644" on="0"/>
        <pt x="260" y="664" on="0"/>
        <pt x="233" y="664" on="1"/>
        <pt x="206" y="664" on="0"/>
        <pt x="164" y="644" on="0"/>
        <pt x="134" y="611" on="0"/>
        <pt x="118" y="565" on="0"/>
        <pt x="118" y="540" on="1"/>
        <pt x="118" y="514" on="0"/>
        <pt x="134" y="469" on="0"/>
        <pt x="164" y="436" on="0"/>
        <pt x="206" y="416" on="0"/>
      </contour>
    </TTGlyph>
    <TTGlyph name="dieresis" xMin="169" yMin="627" xMax="431" yMax="709">
      <contour>
        <pt x="208" y="627" on="1"/>
        <pt x="187" y="627" on="0"/>
        <pt x="169" y="647" on="0"/>
        <pt x="169" y="663" on="1"/>
        <pt x="169" y="673" on="1"/>
        <pt x="169" y="689" on="0"/>
        <pt x="187" y="709" on="0"/>
        <pt x="208" y="709" on="1"/>
        <pt x="228" y="709" on="0"/>
        <pt x="247" y="689" on="0"/>
        <pt x="247" y="673" on="1"/>
        <pt x="247" y="663" on="1"/>
        <pt x="247" y="647" on="0"/>
        <pt x="228" y="627" on="0"/>
      </contour>
      <contour>
        <pt x="392" y="627" on="1"/>
        <pt x="372" y="627" on="0"/>
        <pt x="353" y="647" on="0"/>
        <pt x="353" y="663" on="1"/>
        <pt x="353" y="673" on="1"/>
        <pt x="353" y="689" on="0"/>
        <pt x="372" y="709" on="0"/>
        <pt x="392" y="709" on="1"/>
        <pt x="413" y="709" on="0"/>
        <pt x="431" y="689" on="0"/>
        <pt x="431" y="673" on="1"/>
        <pt x="431" y="663" on="1"/>
        <pt x="431" y="647" on="0"/>
        <pt x="413" y="627" on="0"/>
      </contour>
    </TTGlyph>
    <TTGlyph name="dieresis.case" xMin="168" yMin="800" xMax="432" yMax="884">
      <contour>
        <pt x="208" y="800" on="1"/>
        <pt x="187" y="800" on="0"/>
        <pt x="168" y="821" on="0"/>
        <pt x="168" y="837" on="1"/>
        <pt x="168" y="847" on="1"/>
        <pt x="168" y="863" on="0"/>
        <pt x="187" y="884" on="0"/>
        <pt x="208" y="884" on="1"/>
        <pt x="228" y="884" on="0"/>
        <pt x="247" y="863" on="0"/>
        <pt x="247" y="847" on="1"/>
        <pt x="247" y="837" on="1"/>
        <pt x="247" y="821" on="0"/>
        <pt x="228" y="800" on="0"/>
      </contour>
      <contour>
        <pt x="392" y="800" on="1"/>
        <pt x="372" y="800" on="0"/>
        <pt x="353" y="821" on="0"/>
        <pt x="353" y="837" on="1"/>
        <pt x="353" y="847" on="1"/>
        <pt x="353" y="863" on="0"/>
        <pt x="372" y="884" on="0"/>
        <pt x="392" y="884" on="1"/>
        <pt x="413" y="884" on="0"/>
        <pt x="432" y="863" on="0"/>
        <pt x="432" y="847" on="1"/>
        <pt x="432" y="837" on="1"/>
        <pt x="432" y="821" on="0"/>
        <pt x="413" y="800" on="0"/>
      </contour>
    </TTGlyph>
    <TTGlyph name="divide" xMin="65" yMin="63" xMax="535" yMax="547">
      <contour>
        <pt x="65" y="281" on="1"/>
        <pt x="65" y="330" on="1"/>
        <pt x="535" y="330" on="1"/>
        <pt x="535" y="281" on="1"/>
      </contour>
      <contour>
        <pt x="300" y="63" on="1"/>
        <pt x="272" y="63" on="0"/>
        <pt x="249" y="86" on="0"/>
        <pt x="249" y="103" on="1"/>
        <pt x="249" y="120" on="1"/>
        <pt x="249" y="137" on="0"/>
        <pt x="272" y="159" on="0"/>
        <pt x="300" y="159" on="1"/>
        <pt x="328" y="159" on="0"/>
        <pt x="351" y="137" on="0"/>
        <pt x="351" y="120" on="1"/>
        <pt x="351" y="103" on="1"/>
        <pt x="351" y="86" on="0"/>
        <pt x="328" y="63" on="0"/>
      </contour>
      <contour>
        <pt x="300" y="451" on="1"/>
        <pt x="272" y="451" on="0"/>
        <pt x="249" y="474" on="0"/>
        <pt x="249" y="491" on="1"/>
        <pt x="249" y="507" on="1"/>
        <pt x="249" y="524" on="0"/>
        <pt x="272" y="547" on="0"/>
        <pt x="300" y="547" on="1"/>
        <pt x="328" y="547" on="0"/>
        <pt x="351" y="524" on="0"/>
        <pt x="351" y="507" on="1"/>
        <pt x="351" y="491" on="1"/>
        <pt x="351" y="474" on="0"/>
        <pt x="328" y="451" on="0"/>
      </contour>
    </TTGlyph>
    <TTGlyph name="dollar" xMin="48" yMin="-82" xMax="520" yMax="780">
      <contour>
        <pt x="270" y="-82" on="1"/>
        <pt x="270" y="0" on="1"/>
        <pt x="191" y="4" on="0"/>
        <pt x="85" y="68" on="0"/>
        <pt x="48" y="117" on="1"/>
        <pt x="91" y="154" on="1"/>
        <pt x="125" y="110" on="0"/>
        <pt x="210" y="56" on="0"/>
        <pt x="270" y="51" on="1"/>
        <pt x="270" y="337" on="1"/>
        <pt x="258" y="339" on="1"/>
        <pt x="205" y="348" on="0"/>
        <pt x="133" y="381" on="0"/>
        <pt x="87" y="428" on="0"/>
        <pt x="67" y="488" on="0"/>
        <pt x="67" y="523" on="1"/>
        <pt x="67" y="564" on="0"/>
        <pt x="96" y="627" on="0"/>
        <pt x="150" y="671" on="0"/>
        <pt x="225" y="695" on="0"/>
        <pt x="270" y="698" on="1"/>
        <pt x="270" y="780" on="1"/>
        <pt x="314" y="780" on="1"/>
        <pt x="314" y="699" on="1"/>
        <pt x="383" y="694" on="0"/>
        <pt x="480" y="639" on="0"/>
        <pt x="512" y="593" on="1"/>
        <pt x="468" y="560" on="1"/>
        <pt x="442" y="597" on="0"/>
        <pt x="367" y="642" on="0"/>
        <pt x="314" y="647" on="1"/>
        <pt x="314" y="384" on="1"/>
        <pt x="331" y="381" on="1"/>
        <pt x="384" y="372" on="0"/>
        <pt x="456" y="338" on="0"/>
        <pt x="501" y="290" on="0"/>
        <pt x="520" y="230" on="0"/>
        <pt x="520" y="194" on="1"/>
        <pt x="520" y="106" on="0"/>
        <pt x="409" y="7" on="0"/>
        <pt x="314" y="0" on="1"/>
        <pt x="314" y="-82" on="1"/>
      </contour>
      <contour>
        <pt x="463" y="191" on="1"/>
        <pt x="463" y="255" on="0"/>
        <pt x="390" y="319" on="0"/>
        <pt x="321" y="329" on="1"/>
        <pt x="314" y="330" on="1"/>
        <pt x="314" y="51" on="1"/>
        <pt x="384" y="57" on="0"/>
        <pt x="463" y="129" on="0"/>
      </contour>
      <contour>
        <pt x="124" y="526" on="1"/>
        <pt x="124" y="495" on="0"/>
        <pt x="143" y="451" on="0"/>
        <pt x="178" y="419" on="0"/>
        <pt x="228" y="399" on="0"/>
        <pt x="260" y="393" on="1"/>
        <pt x="270" y="391" on="1"/>
        <pt x="270" y="647" on="1"/>
        <pt x="202" y="642" on="0"/>
        <pt x="124" y="582" on="0"/>
      </contour>
    </TTGlyph>
    <TTGlyph name="dotaccent" xMin="260" yMin="626" xMax="340" yMax="708">
      <contour>
        <pt x="300" y="626" on="1"/>
        <pt x="280" y="626" on="0"/>
        <pt x="260" y="646" on="0"/>
        <pt x="260" y="662" on="1"/>
        <pt x="260" y="672" on="1"/>
        <pt x="260" y="688" on="0"/>
        <pt x="280" y="708" on="0"/>
        <pt x="300" y="708" on="1"/>
        <pt x="320" y="708" on="0"/>
        <pt x="340" y="688" on="0"/>
        <pt x="340" y="672" on="1"/>
        <pt x="340" y="662" on="1"/>
        <pt x="340" y="646" on="0"/>
        <pt x="320" y="626" on="0"/>
      </contour>
    </TTGlyph>
    <TTGlyph name="dotaccent.case" xMin="257" yMin="796" xMax="343" yMax="889">
      <contour>
        <pt x="300" y="796" on="1"/>
        <pt x="277" y="796" on="0"/>
        <pt x="257" y="819" on="0"/>
        <pt x="257" y="837" on="1"/>
        <pt x="257" y="848" on="1"/>
        <pt x="257" y="866" on="0"/>
        <pt x="277" y="889" on="0"/>
        <pt x="300" y="889" on="1"/>
        <pt x="323" y="889" on="0"/>
        <pt x="343" y="866" on="0"/>
        <pt x="343" y="848" on="1"/>
        <pt x="343" y="837" on="1"/>
        <pt x="343" y="819" on="0"/>
        <pt x="323" y="796" on="0"/>
      </contour>
    </TTGlyph>
    <TTGlyph name="dotlessi" xMin="93" yMin="0" xMax="150" yMax="512">
      <contour>
        <pt x="93" y="0" on="1"/>
        <pt x="93" y="512" on="1"/>
        <pt x="150" y="512" on="1"/>
        <pt x="150" y="0" on="1"/>
      </contour>
    </TTGlyph>
    <TTGlyph name="e" xMin="52" yMin="-12" xMax="491" yMax="524">
      <contour>
        <pt x="276" y="-12" on="1"/>
        <pt x="225" y="-12" on="0"/>
        <pt x="142" y="24" on="0"/>
        <pt x="83" y="93" on="0"/>
        <pt x="52" y="193" on="0"/>
        <pt x="52" y="256" on="1"/>
        <pt x="52" y="319" on="0"/>
        <pt x="83" y="418" on="0"/>
        <pt x="142" y="487" on="0"/>
        <pt x="224" y="524" on="0"/>
        <pt x="275" y="524" on="1"/>
        <pt x="324" y="524" on="0"/>
        <pt x="404" y="487" on="0"/>
        <pt x="460" y="421" on="0"/>
        <pt x="491" y="328" on="0"/>
        <pt x="491" y="272" on="1"/>
        <pt x="491" y="245" on="1"/>
        <pt x="112" y="245" on="1"/>
        <pt x="112" y="220" on="1"/>
        <pt x="112" y="180" on="0"/>
        <pt x="135" y="113" on="0"/>
        <pt x="178" y="65" on="0"/>
        <pt x="240" y="38" on="0"/>
        <pt x="279" y="38" on="1"/>
        <pt x="391" y="38" on="0"/>
        <pt x="434" y="141" on="1"/>
        <pt x="476" y="113" on="1"/>
        <pt x="452" y="56" on="0"/>
        <pt x="349" y="-12" on="0"/>
      </contour>
      <contour>
        <pt x="275" y="476" on="1"/>
        <pt x="238" y="476" on="0"/>
        <pt x="178" y="449" on="0"/>
        <pt x="135" y="401" on="0"/>
        <pt x="112" y="334" on="0"/>
        <pt x="112" y="294" on="1"/>
        <pt x="112" y="289" on="1"/>
        <pt x="429" y="289" on="1"/>
        <pt x="429" y="297" on="1"/>
        <pt x="429" y="337" on="0"/>
        <pt x="407" y="404" on="0"/>
        <pt x="366" y="450" on="0"/>
        <pt x="309" y="476" on="0"/>
      </contour>
    </TTGlyph>
    <TTGlyph name="eacute" xMin="52" yMin="-12" xMax="491" yMax="768">
      <component glyphName="e" x="0" y="0" flags="0x204"/>
      <component glyphName="acute" x="-24" y="0" flags="0x4"/>
    </TTGlyph>
    <TTGlyph name="ecircumflex" xMin="52" yMin="-12" xMax="491" yMax="756">
      <component glyphName="e" x="0" y="0" flags="0x204"/>
      <component glyphName="circumflex" x="-24" y="0" flags="0x4"/>
    </TTGlyph>
    <TTGlyph name="edieresis" xMin="52" yMin="-12" xMax="491" yMax="709">
      <component glyphName="e" x="0" y="0" flags="0x204"/>
      <component glyphName="dieresis" x="-24" y="0" flags="0x4"/>
    </TTGlyph>
    <TTGlyph name="egrave" xMin="52" yMin="-12" xMax="491" yMax="768">
      <component glyphName="e" x="0" y="0" flags="0x204"/>
      <component glyphName="grave" x="-24" y="0" flags="0x4"/>
    </TTGlyph>
    <TTGlyph name="eight" xMin="63" yMin="-12" xMax="537" yMax="710">
      <contour>
        <pt x="300" y="-12" on="1"/>
        <pt x="243" y="-12" on="0"/>
        <pt x="155" y="18" on="0"/>
        <pt x="94" y="70" on="0"/>
        <pt x="63" y="143" on="0"/>
        <pt x="63" y="186" on="1"/>
        <pt x="63" y="259" on="0"/>
        <pt x="143" y="348" on="0"/>
        <pt x="210" y="363" on="1"/>
        <pt x="210" y="370" on="1"/>
        <pt x="153" y="386" on="0"/>
        <pt x="86" y="472" on="0"/>
        <pt x="86" y="535" on="1"/>
        <pt x="86" y="615" on="0"/>
        <pt x="199" y="710" on="0"/>
        <pt x="300" y="710" on="1"/>
        <pt x="401" y="710" on="0"/>
        <pt x="514" y="615" on="0"/>
        <pt x="514" y="535" on="1"/>
        <pt x="514" y="472" on="0"/>
        <pt x="447" y="386" on="0"/>
        <pt x="390" y="370" on="1"/>
        <pt x="390" y="363" on="1"/>
        <pt x="457" y="348" on="0"/>
        <pt x="537" y="259" on="0"/>
        <pt x="537" y="186" on="1"/>
        <pt x="537" y="143" on="0"/>
        <pt x="506" y="70" on="0"/>
        <pt x="445" y="18" on="0"/>
        <pt x="357" y="-12" on="0"/>
      </contour>
      <contour>
        <pt x="300" y="40" on="1"/>
        <pt x="381" y="40" on="0"/>
        <pt x="473" y="115" on="0"/>
        <pt x="473" y="179" on="1"/>
        <pt x="473" y="202" on="1"/>
        <pt x="473" y="267" on="0"/>
        <pt x="381" y="341" on="0"/>
        <pt x="300" y="341" on="1"/>
        <pt x="219" y="341" on="0"/>
        <pt x="127" y="267" on="0"/>
        <pt x="127" y="202" on="1"/>
        <pt x="127" y="179" on="1"/>
        <pt x="127" y="115" on="0"/>
        <pt x="219" y="40" on="0"/>
      </contour>
      <contour>
        <pt x="300" y="392" on="1"/>
        <pt x="372" y="392" on="0"/>
        <pt x="452" y="457" on="0"/>
        <pt x="452" y="516" on="1"/>
        <pt x="452" y="534" on="1"/>
        <pt x="452" y="592" on="0"/>
        <pt x="372" y="658" on="0"/>
        <pt x="300" y="658" on="1"/>
        <pt x="228" y="658" on="0"/>
        <pt x="148" y="592" on="0"/>
        <pt x="148" y="534" on="1"/>
        <pt x="148" y="516" on="1"/>
        <pt x="148" y="457" on="0"/>
        <pt x="228" y="392" on="0"/>
      </contour>
    </TTGlyph>
    <TTGlyph name="ellipsis" xMin="82" yMin="-9" xMax="698" yMax="92">
      <component glyphName="period" x="0" y="0" flags="0x4"/>
      <component glyphName="period" x="260" y="0" flags="0x4"/>
      <component glyphName="period" x="520" y="0" flags="0x4"/>
    </TTGlyph>
    <TTGlyph name="emdash" xMin="36" yMin="278" xMax="744" yMax="331">
      <contour>
        <pt x="36" y="278" on="1"/>
        <pt x="36" y="331" on="1"/>
        <pt x="744" y="331" on="1"/>
        <pt x="744" y="278" on="1"/>
      </contour>
    </TTGlyph>
    <TTGlyph name="endash" xMin="36" yMin="278" xMax="552" yMax="331">
      <contour>
        <pt x="36" y="278" on="1"/>
        <pt x="36" y="331" on="1"/>
        <pt x="552" y="331" on="1"/>
        <pt x="552" y="278" on="1"/>
      </contour>
    </TTGlyph>
    <TTGlyph name="equal" xMin="65" yMin="186" xMax="535" yMax="426">
      <contour>
        <pt x="65" y="377" on="1"/>
        <pt x="65" y="426" on="1"/>
        <pt x="535" y="426" on="1"/>
        <pt x="535" y="377" on="1"/>
      </contour>
      <contour>
        <pt x="65" y="186" on="1"/>
        <pt x="65" y="235" on="1"/>
        <pt x="535" y="235" on="1"/>
        <pt x="535" y="186" on="1"/>
      </contour>
    </TTGlyph>
    <TTGlyph name="eth" xMin="52" yMin="-12" xMax="495" yMax="753">
      <contour>
        <pt x="413" y="722" on="1"/>
        <pt x="323" y="658" on="1"/>
        <pt x="356" y="626" on="0"/>
        <pt x="418" y="543" on="0"/>
        <pt x="466" y="443" on="0"/>
        <pt x="495" y="327" on="0"/>
        <pt x="495" y="262" on="1"/>
        <pt x="495" y="195" on="0"/>
        <pt x="462" y="92" on="0"/>
        <pt x="404" y="24" on="0"/>
        <pt x="323" y="-12" on="0"/>
        <pt x="274" y="-12" on="1"/>
        <pt x="223" y="-12" on="0"/>
        <pt x="141" y="25" on="0"/>
        <pt x="83" y="92" on="0"/>
        <pt x="52" y="188" on="0"/>
        <pt x="52" y="247" on="1"/>
        <pt x="52" y="305" on="0"/>
        <pt x="83" y="399" on="0"/>
        <pt x="141" y="466" on="0"/>
        <pt x="223" y="502" on="0"/>
        <pt x="274" y="502" on="1"/>
        <pt x="324" y="502" on="0"/>
        <pt x="397" y="458" on="0"/>
        <pt x="417" y="414" on="1"/>
        <pt x="421" y="416" on="1"/>
        <pt x="403" y="479" on="0"/>
        <pt x="329" y="584" on="0"/>
        <pt x="282" y="629" on="1"/>
        <pt x="192" y="564" on="1"/>
        <pt x="169" y="595" on="1"/>
        <pt x="253" y="655" on="1"/>
        <pt x="225" y="678" on="0"/>
        <pt x="161" y="722" on="0"/>
        <pt x="129" y="740" on="1"/>
        <pt x="218" y="740" on="1"/>
        <pt x="238" y="728" on="0"/>
        <pt x="272" y="703" on="0"/>
        <pt x="293" y="684" on="1"/>
        <pt x="389" y="753" on="1"/>
      </contour>
      <contour>
        <pt x="274" y="37" on="1"/>
        <pt x="310" y="37" on="0"/>
        <pt x="368" y="62" on="0"/>
        <pt x="411" y="108" on="0"/>
        <pt x="434" y="174" on="0"/>
        <pt x="434" y="215" on="1"/>
        <pt x="434" y="275" on="1"/>
        <pt x="434" y="316" on="0"/>
        <pt x="411" y="382" on="0"/>
        <pt x="369" y="428" on="0"/>
        <pt x="310" y="453" on="0"/>
        <pt x="274" y="453" on="1"/>
        <pt x="203" y="453" on="0"/>
        <pt x="114" y="357" on="0"/>
        <pt x="114" y="275" on="1"/>
        <pt x="114" y="215" on="1"/>
        <pt x="114" y="174" on="0"/>
        <pt x="137" y="108" on="0"/>
        <pt x="179" y="62" on="0"/>
        <pt x="238" y="37" on="0"/>
      </contour>
    </TTGlyph>
    <TTGlyph name="exclam" xMin="88" yMin="-9" xMax="184" yMax="698">
      <contour>
        <pt x="121" y="181" on="1"/>
        <pt x="105" y="464" on="1"/>
        <pt x="105" y="698" on="1"/>
        <pt x="167" y="698" on="1"/>
        <pt x="167" y="464" on="1"/>
        <pt x="150" y="181" on="1"/>
      </contour>
      <contour>
        <pt x="136" y="-9" on="1"/>
        <pt x="111" y="-9" on="0"/>
        <pt x="88" y="16" on="0"/>
        <pt x="88" y="36" on="1"/>
        <pt x="88" y="47" on="1"/>
        <pt x="88" y="67" on="0"/>
        <pt x="111" y="92" on="0"/>
        <pt x="136" y="92" on="1"/>
        <pt x="160" y="92" on="0"/>
        <pt x="184" y="67" on="0"/>
        <pt x="184" y="47" on="1"/>
        <pt x="184" y="36" on="1"/>
        <pt x="184" y="16" on="0"/>
        <pt x="160" y="-9" on="0"/>
      </contour>
    </TTGlyph>
    <TTGlyph name="exclamdown" xMin="88" yMin="-185" xMax="184" yMax="521">
      <contour>
        <pt x="104" y="-185" on="1"/>
        <pt x="104" y="49" on="1"/>
        <pt x="121" y="331" on="1"/>
        <pt x="150" y="331" on="1"/>
        <pt x="166" y="49" on="1"/>
        <pt x="166" y="-185" on="1"/>
      </contour>
      <contour>
        <pt x="136" y="420" on="1"/>
        <pt x="111" y="420" on="0"/>
        <pt x="88" y="445" on="0"/>
        <pt x="88" y="465" on="1"/>
        <pt x="88" y="476" on="1"/>
        <pt x="88" y="496" on="0"/>
        <pt x="111" y="521" on="0"/>
        <pt x="136" y="521" on="1"/>
        <pt x="160" y="521" on="0"/>
        <pt x="184" y="496" on="0"/>
        <pt x="184" y="476" on="1"/>
        <pt x="184" y="465" on="1"/>
        <pt x="184" y="445" on="0"/>
        <pt x="160" y="420" on="0"/>
      </contour>
    </TTGlyph>
    <TTGlyph name="f" xMin="29" yMin="0" xMax="287" yMax="740">
      <contour>
        <pt x="117" y="462" on="1"/>
        <pt x="29" y="462" on="1"/>
        <pt x="29" y="512" on="1"/>
        <pt x="117" y="512" on="1"/>
        <pt x="117" y="655" on="1"/>
        <pt x="117" y="694" on="0"/>
        <pt x="156" y="740" on="0"/>
        <pt x="197" y="740" on="1"/>
        <pt x="287" y="740" on="1"/>
        <pt x="287" y="690" on="1"/>
        <pt x="174" y="690" on="1"/>
        <pt x="174" y="512" on="1"/>
        <pt x="287" y="512" on="1"/>
        <pt x="287" y="462" on="1"/>
        <pt x="174" y="462" on="1"/>
        <pt x="174" y="0" on="1"/>
        <pt x="117" y="0" on="1"/>
      </contour>
    </TTGlyph>
    <TTGlyph name="fi" xMin="29" yMin="0" xMax="463" yMax="740">
      <contour>
        <pt x="117" y="462" on="1"/>
        <pt x="29" y="462" on="1"/>
        <pt x="29" y="512" on="1"/>
        <pt x="117" y="512" on="1"/>
        <pt x="117" y="655" on="1"/>
        <pt x="117" y="694" on="0"/>
        <pt x="156" y="740" on="0"/>
        <pt x="197" y="740" on="1"/>
        <pt x="287" y="740" on="1"/>
        <pt x="287" y="690" on="1"/>
        <pt x="174" y="690" on="1"/>
        <pt x="174" y="512" on="1"/>
        <pt x="452" y="512" on="1"/>
        <pt x="452" y="0" on="1"/>
        <pt x="395" y="0" on="1"/>
        <pt x="395" y="462" on="1"/>
        <pt x="174" y="462" on="1"/>
        <pt x="174" y="0" on="1"/>
        <pt x="117" y="0" on="1"/>
      </contour>
      <contour>
        <pt x="424" y="651" on="1"/>
        <pt x="403" y="651" on="0"/>
        <pt x="385" y="671" on="0"/>
        <pt x="385" y="687" on="1"/>
        <pt x="385" y="697" on="1"/>
        <pt x="385" y="713" on="0"/>
        <pt x="403" y="733" on="0"/>
        <pt x="424" y="733" on="1"/>
        <pt x="444" y="733" on="0"/>
        <pt x="463" y="713" on="0"/>
        <pt x="463" y="697" on="1"/>
        <pt x="463" y="687" on="1"/>
        <pt x="463" y="671" on="0"/>
        <pt x="444" y="651" on="0"/>
      </contour>
    </TTGlyph>
    <TTGlyph name="five" xMin="80" yMin="-12" xMax="520" yMax="698">
      <contour>
        <pt x="491" y="645" on="1"/>
        <pt x="179" y="645" on="1"/>
        <pt x="157" y="353" on="1"/>
        <pt x="163" y="352" on="1"/>
        <pt x="189" y="389" on="0"/>
        <pt x="259" y="426" on="0"/>
        <pt x="315" y="426" on="1"/>
        <pt x="361" y="426" on="0"/>
        <pt x="437" y="397" on="0"/>
        <pt x="491" y="342" on="0"/>
        <pt x="520" y="263" on="0"/>
        <pt x="520" y="213" on="1"/>
        <pt x="520" y="162" on="0"/>
        <pt x="489" y="79" on="0"/>
        <pt x="431" y="20" on="0"/>
        <pt x="348" y="-12" on="0"/>
        <pt x="296" y="-12" on="1"/>
        <pt x="255" y="-12" on="0"/>
        <pt x="189" y="5" on="0"/>
        <pt x="137" y="36" on="0"/>
        <pt x="96" y="78" on="0"/>
        <pt x="80" y="102" on="1"/>
        <pt x="125" y="136" on="1"/>
        <pt x="154" y="91" on="0"/>
        <pt x="231" y="42" on="0"/>
        <pt x="296" y="42" on="1"/>
        <pt x="374" y="42" on="0"/>
        <pt x="457" y="127" on="0"/>
        <pt x="457" y="200" on="1"/>
        <pt x="457" y="217" on="1"/>
        <pt x="457" y="290" on="0"/>
        <pt x="376" y="375" on="0"/>
        <pt x="299" y="375" on="1"/>
        <pt x="272" y="375" on="0"/>
        <pt x="230" y="366" on="0"/>
        <pt x="197" y="349" on="0"/>
        <pt x="170" y="326" on="0"/>
        <pt x="157" y="311" on="1"/>
        <pt x="105" y="319" on="1"/>
        <pt x="130" y="698" on="1"/>
        <pt x="491" y="698" on="1"/>
      </contour>
    </TTGlyph>
    <TTGlyph name="fl" xMin="29" yMin="0" xMax="538" yMax="740">
      <component glyphName="f" x="0" y="0" flags="0x4"/>
      <component glyphName="l" x="309" y="0" flags="0x4"/>
    </TTGlyph>
    <TTGlyph name="florin" xMin="-3" yMin="-134" xMax="462" yMax="698">
      <contour>
        <pt x="2" y="-84" on="1"/>
        <pt x="160" y="-84" on="1"/>
        <pt x="199" y="305" on="1"/>
        <pt x="44" y="305" on="1"/>
        <pt x="50" y="357" on="1"/>
        <pt x="204" y="357" on="1"/>
        <pt x="230" y="615" on="1"/>
        <pt x="234" y="653" on="0"/>
        <pt x="278" y="698" on="0"/>
        <pt x="320" y="698" on="1"/>
        <pt x="462" y="698" on="1"/>
        <pt x="457" y="648" on="1"/>
        <pt x="291" y="648" on="1"/>
        <pt x="262" y="357" on="1"/>
        <pt x="447" y="357" on="1"/>
        <pt x="441" y="305" on="1"/>
        <pt x="256" y="305" on="1"/>
        <pt x="221" y="-51" on="1"/>
        <pt x="217" y="-89" on="0"/>
        <pt x="173" y="-134" on="0"/>
        <pt x="131" y="-134" on="1"/>
        <pt x="-3" y="-134" on="1"/>
      </contour>
    </TTGlyph>
    <TTGlyph name="four" xMin="42" yMin="0" xMax="554" yMax="698">
      <contour>
        <pt x="389" y="0" on="1"/>
        <pt x="389" y="146" on="1"/>
        <pt x="42" y="146" on="1"/>
        <pt x="42" y="199" on="1"/>
        <pt x="360" y="698" on="1"/>
        <pt x="446" y="698" on="1"/>
        <pt x="446" y="196" on="1"/>
        <pt x="554" y="196" on="1"/>
        <pt x="554" y="146" on="1"/>
        <pt x="446" y="146" on="1"/>
        <pt x="446" y="0" on="1"/>
      </contour>
      <contour>
        <pt x="98" y="196" on="1"/>
        <pt x="389" y="196" on="1"/>
        <pt x="389" y="647" on="1"/>
        <pt x="386" y="647" on="1"/>
      </contour>
    </TTGlyph>
    <TTGlyph name="fraction" xMin="-186" yMin="0" xMax="334" yMax="698">
      <contour>
        <pt x="-186" y="0" on="1"/>
        <pt x="285" y="698" on="1"/>
        <pt x="334" y="698" on="1"/>
        <pt x="-137" y="0" on="1"/>
      </contour>
    </TTGlyph>
    <TTGlyph name="g" xMin="46" yMin="-212" xMax="513" yMax="576">
      <contour>
        <pt x="513" y="-60" on="1"/>
        <pt x="513" y="-138" on="0"/>
        <pt x="388" y="-212" on="0"/>
        <pt x="267" y="-212" on="1"/>
        <pt x="150" y="-212" on="0"/>
        <pt x="46" y="-144" on="0"/>
        <pt x="46" y="-84" on="1"/>
        <pt x="46" y="-40" on="0"/>
        <pt x="92" y="12" on="0"/>
        <pt x="134" y="24" on="1"/>
        <pt x="134" y="32" on="1"/>
        <pt x="86" y="51" on="0"/>
        <pt x="86" y="102" on="1"/>
        <pt x="86" y="140" on="0"/>
        <pt x="136" y="180" on="0"/>
        <pt x="173" y="190" on="1"/>
        <pt x="173" y="194" on="1"/>
        <pt x="128" y="214" on="0"/>
        <pt x="78" y="294" on="0"/>
        <pt x="78" y="350" on="1"/>
        <pt x="78" y="389" on="0"/>
        <pt x="104" y="453" on="0"/>
        <pt x="153" y="499" on="0"/>
        <pt x="222" y="524" on="0"/>
        <pt x="264" y="524" on="1"/>
        <pt x="323" y="524" on="0"/>
        <pt x="367" y="499" on="1"/>
        <pt x="367" y="524" on="1"/>
        <pt x="367" y="547" on="0"/>
        <pt x="389" y="576" on="0"/>
        <pt x="414" y="576" on="1"/>
        <pt x="502" y="576" on="1"/>
        <pt x="502" y="526" on="1"/>
        <pt x="398" y="526" on="1"/>
        <pt x="398" y="477" on="1"/>
        <pt x="424" y="454" on="0"/>
        <pt x="452" y="389" on="0"/>
        <pt x="452" y="350" on="1"/>
        <pt x="452" y="311" on="0"/>
        <pt x="425" y="247" on="0"/>
        <pt x="376" y="200" on="0"/>
        <pt x="307" y="175" on="0"/>
        <pt x="265" y="175" on="1"/>
        <pt x="251" y="175" on="0"/>
        <pt x="225" y="179" on="0"/>
        <pt x="212" y="181" on="1"/>
        <pt x="179" y="172" on="0"/>
        <pt x="136" y="141" on="0"/>
        <pt x="136" y="115" on="1"/>
        <pt x="136" y="69" on="0"/>
        <pt x="218" y="69" on="1"/>
        <pt x="337" y="69" on="1"/>
        <pt x="430" y="69" on="0"/>
        <pt x="513" y="0" on="0"/>
      </contour>
      <contour>
        <pt x="458" y="-64" on="1"/>
        <pt x="458" y="-27" on="0"/>
        <pt x="405" y="16" on="0"/>
        <pt x="337" y="16" on="1"/>
        <pt x="171" y="16" on="1"/>
        <pt x="138" y="5" on="0"/>
        <pt x="100" y="-39" on="0"/>
        <pt x="100" y="-72" on="1"/>
        <pt x="100" y="-112" on="0"/>
        <pt x="166" y="-165" on="0"/>
        <pt x="233" y="-165" on="1"/>
        <pt x="297" y="-165" on="1"/>
        <pt x="372" y="-165" on="0"/>
        <pt x="458" y="-116" on="0"/>
      </contour>
      <contour>
        <pt x="265" y="221" on="1"/>
        <pt x="324" y="221" on="0"/>
        <pt x="391" y="280" on="0"/>
        <pt x="391" y="334" on="1"/>
        <pt x="391" y="366" on="1"/>
        <pt x="391" y="419" on="0"/>
        <pt x="324" y="478" on="0"/>
        <pt x="265" y="478" on="1"/>
        <pt x="205" y="478" on="0"/>
        <pt x="139" y="419" on="0"/>
        <pt x="139" y="366" on="1"/>
        <pt x="139" y="334" on="1"/>
        <pt x="139" y="280" on="0"/>
        <pt x="206" y="221" on="0"/>
      </contour>
    </TTGlyph>
    <TTGlyph name="g.alt01" xMin="54" yMin="-212" xMax="481" yMax="524">
      <contour>
        <pt x="481" y="6" on="1"/>
        <pt x="481" y="-97" on="0"/>
        <pt x="370" y="-212" on="0"/>
        <pt x="265" y="-212" on="1"/>
        <pt x="202" y="-212" on="0"/>
        <pt x="115" y="-175" on="0"/>
        <pt x="84" y="-143" on="1"/>
        <pt x="118" y="-103" on="1"/>
        <pt x="145" y="-132" on="0"/>
        <pt x="214" y="-162" on="0"/>
        <pt x="266" y="-162" on="1"/>
        <pt x="343" y="-162" on="0"/>
        <pt x="424" y="-79" on="0"/>
        <pt x="424" y="3" on="1"/>
        <pt x="424" y="82" on="1"/>
        <pt x="421" y="82" on="1"/>
        <pt x="401" y="40" on="0"/>
        <pt x="324" y="-12" on="0"/>
        <pt x="265" y="-12" on="1"/>
        <pt x="167" y="-12" on="0"/>
        <pt x="54" y="128" on="0"/>
        <pt x="54" y="256" on="1"/>
        <pt x="54" y="384" on="0"/>
        <pt x="167" y="524" on="0"/>
        <pt x="265" y="524" on="1"/>
        <pt x="324" y="524" on="0"/>
        <pt x="402" y="473" on="0"/>
        <pt x="421" y="430" on="1"/>
        <pt x="424" y="430" on="1"/>
        <pt x="424" y="512" on="1"/>
        <pt x="481" y="512" on="1"/>
      </contour>
      <contour>
        <pt x="278" y="39" on="1"/>
        <pt x="308" y="39" on="0"/>
        <pt x="361" y="55" on="0"/>
        <pt x="401" y="86" on="0"/>
        <pt x="424" y="129" on="0"/>
        <pt x="424" y="156" on="1"/>
        <pt x="424" y="359" on="1"/>
        <pt x="424" y="384" on="0"/>
        <pt x="401" y="426" on="0"/>
        <pt x="361" y="456" on="0"/>
        <pt x="308" y="473" on="0"/>
        <pt x="278" y="473" on="1"/>
        <pt x="201" y="473" on="0"/>
        <pt x="115" y="375" on="0"/>
        <pt x="115" y="292" on="1"/>
        <pt x="115" y="220" on="1"/>
        <pt x="115" y="137" on="0"/>
        <pt x="201" y="39" on="0"/>
      </contour>
    </TTGlyph>
    <TTGlyph name="g.alt02" xMin="46" yMin="-212" xMax="513" yMax="524">
      <contour>
        <pt x="513" y="-60" on="1"/>
        <pt x="513" y="-138" on="0"/>
        <pt x="388" y="-212" on="0"/>
        <pt x="267" y="-212" on="1"/>
        <pt x="150" y="-212" on="0"/>
        <pt x="46" y="-144" on="0"/>
        <pt x="46" y="-84" on="1"/>
        <pt x="46" y="-40" on="0"/>
        <pt x="92" y="12" on="0"/>
        <pt x="134" y="24" on="1"/>
        <pt x="134" y="32" on="1"/>
        <pt x="86" y="51" on="0"/>
        <pt x="86" y="102" on="1"/>
        <pt x="86" y="140" on="0"/>
        <pt x="136" y="180" on="0"/>
        <pt x="173" y="190" on="1"/>
        <pt x="173" y="194" on="1"/>
        <pt x="128" y="214" on="0"/>
        <pt x="78" y="294" on="0"/>
        <pt x="78" y="350" on="1"/>
        <pt x="78" y="389" on="0"/>
        <pt x="104" y="453" on="0"/>
        <pt x="153" y="499" on="0"/>
        <pt x="222" y="524" on="0"/>
        <pt x="264" y="524" on="1"/>
        <pt x="307" y="524" on="0"/>
        <pt x="340" y="512" on="1"/>
        <pt x="503" y="512" on="1"/>
        <pt x="503" y="466" on="1"/>
        <pt x="403" y="466" on="1"/>
        <pt x="426" y="446" on="0"/>
        <pt x="452" y="387" on="0"/>
        <pt x="452" y="350" on="1"/>
        <pt x="452" y="311" on="0"/>
        <pt x="425" y="247" on="0"/>
        <pt x="376" y="200" on="0"/>
        <pt x="307" y="175" on="0"/>
        <pt x="265" y="175" on="1"/>
        <pt x="251" y="175" on="0"/>
        <pt x="225" y="179" on="0"/>
        <pt x="212" y="181" on="1"/>
        <pt x="179" y="172" on="0"/>
        <pt x="136" y="141" on="0"/>
        <pt x="136" y="115" on="1"/>
        <pt x="136" y="69" on="0"/>
        <pt x="218" y="69" on="1"/>
        <pt x="337" y="69" on="1"/>
        <pt x="430" y="69" on="0"/>
        <pt x="513" y="0" on="0"/>
      </contour>
      <contour>
        <pt x="265" y="221" on="1"/>
        <pt x="324" y="221" on="0"/>
        <pt x="391" y="280" on="0"/>
        <pt x="391" y="334" on="1"/>
        <pt x="391" y="366" on="1"/>
        <pt x="391" y="419" on="0"/>
        <pt x="324" y="478" on="0"/>
        <pt x="265" y="478" on="1"/>
        <pt x="205" y="478" on="0"/>
        <pt x="139" y="419" on="0"/>
        <pt x="139" y="366" on="1"/>
        <pt x="139" y="334" on="1"/>
        <pt x="139" y="280" on="0"/>
        <pt x="206" y="221" on="0"/>
      </contour>
      <contour>
        <pt x="458" y="-64" on="1"/>
        <pt x="458" y="-27" on="0"/>
        <pt x="405" y="16" on="0"/>
        <pt x="337" y="16" on="1"/>
        <pt x="171" y="16" on="1"/>
        <pt x="138" y="5" on="0"/>
        <pt x="100" y="-39" on="0"/>
        <pt x="100" y="-72" on="1"/>
        <pt x="100" y="-112" on="0"/>
        <pt x="166" y="-165" on="0"/>
        <pt x="233" y="-165" on="1"/>
        <pt x="297" y="-165" on="1"/>
        <pt x="372" y="-165" on="0"/>
        <pt x="458" y="-116" on="0"/>
      </contour>
    </TTGlyph>
    <TTGlyph name="germandbls" xMin="33" yMin="-12" xMax="606" yMax="752">
      <contour>
        <pt x="606" y="140" on="1"/>
        <pt x="606" y="68" on="0"/>
        <pt x="514" y="-12" on="0"/>
        <pt x="433" y="-12" on="1"/>
        <pt x="371" y="-12" on="0"/>
        <pt x="282" y="31" on="0"/>
        <pt x="250" y="76" on="1"/>
        <pt x="290" y="109" on="1"/>
        <pt x="320" y="71" on="0"/>
        <pt x="389" y="37" on="0"/>
        <pt x="436" y="37" on="1"/>
        <pt x="492" y="37" on="0"/>
        <pt x="551" y="87" on="0"/>
        <pt x="551" y="134" on="1"/>
        <pt x="551" y="174" on="0"/>
        <pt x="512" y="218" on="0"/>
        <pt x="466" y="229" on="1"/>
        <pt x="430" y="237" on="1"/>
        <pt x="400" y="244" on="0"/>
        <pt x="350" y="264" on="0"/>
        <pt x="314" y="296" on="0"/>
        <pt x="293" y="343" on="0"/>
        <pt x="293" y="376" on="1"/>
        <pt x="293" y="445" on="0"/>
        <pt x="396" y="515" on="0"/>
        <pt x="481" y="516" on="1"/>
        <pt x="481" y="525" on="1"/>
        <pt x="481" y="613" on="0"/>
        <pt x="405" y="703" on="0"/>
        <pt x="329" y="703" on="1"/>
        <pt x="253" y="703" on="0"/>
        <pt x="178" y="613" on="0"/>
        <pt x="178" y="525" on="1"/>
        <pt x="178" y="0" on="1"/>
        <pt x="121" y="0" on="1"/>
        <pt x="121" y="462" on="1"/>
        <pt x="33" y="462" on="1"/>
        <pt x="33" y="512" on="1"/>
        <pt x="121" y="512" on="1"/>
        <pt x="121" y="521" on="1"/>
        <pt x="121" y="573" on="0"/>
        <pt x="149" y="659" on="0"/>
        <pt x="202" y="719" on="0"/>
        <pt x="279" y="752" on="0"/>
        <pt x="329" y="752" on="1"/>
        <pt x="378" y="752" on="0"/>
        <pt x="456" y="719" on="0"/>
        <pt x="509" y="659" on="0"/>
        <pt x="537" y="573" on="0"/>
        <pt x="537" y="521" on="1"/>
        <pt x="537" y="471" on="1"/>
        <pt x="502" y="471" on="1"/>
        <pt x="432" y="471" on="0"/>
        <pt x="348" y="428" on="0"/>
        <pt x="348" y="379" on="1"/>
        <pt x="348" y="337" on="0"/>
        <pt x="393" y="299" on="0"/>
        <pt x="438" y="288" on="1"/>
        <pt x="473" y="280" on="1"/>
        <pt x="540" y="263" on="0"/>
        <pt x="606" y="200" on="0"/>
      </contour>
    </TTGlyph>
    <TTGlyph name="germandbls.alt01" xMin="93" yMin="-200" xMax="527" yMax="740">
      <contour>
        <pt x="93" y="0" on="1"/>
        <pt x="93" y="656" on="1"/>
        <pt x="93" y="694" on="0"/>
        <pt x="131" y="740" on="0"/>
        <pt x="172" y="740" on="1"/>
        <pt x="319" y="740" on="1"/>
        <pt x="319" y="690" on="1"/>
        <pt x="150" y="690" on="1"/>
        <pt x="150" y="512" on="1"/>
        <pt x="496" y="512" on="1"/>
        <pt x="496" y="465" on="1"/>
        <pt x="302" y="209" on="1"/>
        <pt x="412" y="204" on="0"/>
        <pt x="527" y="108" on="0"/>
        <pt x="527" y="12" on="1"/>
        <pt x="527" y="-97" on="0"/>
        <pt x="396" y="-200" on="0"/>
        <pt x="277" y="-200" on="1"/>
        <pt x="226" y="-200" on="1"/>
        <pt x="226" y="-150" on="1"/>
        <pt x="278" y="-150" on="1"/>
        <pt x="371" y="-150" on="0"/>
        <pt x="466" y="-81" on="0"/>
        <pt x="466" y="0" on="1"/>
        <pt x="466" y="19" on="1"/>
        <pt x="466" y="94" on="0"/>
        <pt x="371" y="162" on="0"/>
        <pt x="268" y="162" on="1"/>
        <pt x="248" y="162" on="1"/>
        <pt x="248" y="213" on="1"/>
        <pt x="435" y="462" on="1"/>
        <pt x="150" y="462" on="1"/>
        <pt x="150" y="0" on="1"/>
      </contour>
    </TTGlyph>
    <TTGlyph name="grave" xMin="193" yMin="586" xMax="340" yMax="768">
      <contour>
        <pt x="193" y="742" on="1"/>
        <pt x="245" y="768" on="1"/>
        <pt x="340" y="604" on="1"/>
        <pt x="302" y="586" on="1"/>
      </contour>
    </TTGlyph>
    <TTGlyph name="grave.case" xMin="193" yMin="760" xMax="340" yMax="942">
      <contour>
        <pt x="193" y="916" on="1"/>
        <pt x="245" y="942" on="1"/>
        <pt x="340" y="778" on="1"/>
        <pt x="302" y="760" on="1"/>
      </contour>
    </TTGlyph>
    <TTGlyph name="greater" xMin="88" yMin="8" xMax="512" yMax="568">
      <contour>
        <pt x="88" y="68" on="1"/>
        <pt x="457" y="285" on="1"/>
        <pt x="457" y="291" on="1"/>
        <pt x="88" y="508" on="1"/>
        <pt x="88" y="568" on="1"/>
        <pt x="512" y="316" on="1"/>
        <pt x="512" y="260" on="1"/>
        <pt x="88" y="8" on="1"/>
      </contour>
    </TTGlyph>
    <TTGlyph name="greaterequal" xMin="88" yMin="0" xMax="512" yMax="591">
      <contour>
        <pt x="88" y="170" on="1"/>
        <pt x="457" y="349" on="1"/>
        <pt x="457" y="355" on="1"/>
        <pt x="88" y="534" on="1"/>
        <pt x="88" y="591" on="1"/>
        <pt x="512" y="383" on="1"/>
        <pt x="512" y="321" on="1"/>
        <pt x="88" y="112" on="1"/>
      </contour>
      <contour>
        <pt x="88" y="49" on="1"/>
        <pt x="512" y="49" on="1"/>
        <pt x="512" y="0" on="1"/>
        <pt x="88" y="0" on="1"/>
      </contour>
    </TTGlyph>
    <TTGlyph name="guillemotleft" xMin="35" yMin="90" xMax="446" yMax="486">
      <component glyphName="guilsinglleft" x="0" y="0" flags="0x4"/>
      <component glyphName="guilsinglleft" x="198" y="0" flags="0x4"/>
    </TTGlyph>
    <TTGlyph name="guillemotright" xMin="51" yMin="90" xMax="462" yMax="486">
      <component glyphName="guilsinglright" x="0" y="0" flags="0x4"/>
      <component glyphName="guilsinglright" x="198" y="0" flags="0x4"/>
    </TTGlyph>
    <TTGlyph name="guilsinglleft" xMin="35" yMin="90" xMax="248" yMax="486">
      <contour>
        <pt x="230" y="90" on="1"/>
        <pt x="35" y="261" on="1"/>
        <pt x="35" y="315" on="1"/>
        <pt x="230" y="486" on="1"/>
        <pt x="248" y="447" on="1"/>
        <pt x="92" y="288" on="1"/>
        <pt x="248" y="129" on="1"/>
      </contour>
    </TTGlyph>
    <TTGlyph name="guilsinglright" xMin="51" yMin="90" xMax="264" yMax="486">
      <contour>
        <pt x="51" y="129" on="1"/>
        <pt x="207" y="288" on="1"/>
        <pt x="51" y="447" on="1"/>
        <pt x="69" y="486" on="1"/>
        <pt x="264" y="315" on="1"/>
        <pt x="264" y="261" on="1"/>
        <pt x="69" y="90" on="1"/>
      </contour>
    </TTGlyph>
    <TTGlyph name="h" xMin="93" yMin="0" xMax="477" yMax="740">
      <contour>
        <pt x="93" y="740" on="1"/>
        <pt x="150" y="740" on="1"/>
        <pt x="150" y="431" on="1"/>
        <pt x="153" y="431" on="1"/>
        <pt x="170" y="471" on="0"/>
        <pt x="242" y="524" on="0"/>
        <pt x="304" y="524" on="1"/>
        <pt x="386" y="524" on="0"/>
        <pt x="477" y="423" on="0"/>
        <pt x="477" y="329" on="1"/>
        <pt x="477" y="0" on="1"/>
        <pt x="420" y="0" on="1"/>
        <pt x="420" y="319" on="1"/>
        <pt x="420" y="397" on="0"/>
        <pt x="353" y="473" on="0"/>
        <pt x="289" y="473" on="1"/>
        <pt x="262" y="473" on="0"/>
        <pt x="212" y="459" on="0"/>
        <pt x="173" y="431" on="0"/>
        <pt x="150" y="388" on="0"/>
        <pt x="150" y="360" on="1"/>
        <pt x="150" y="0" on="1"/>
        <pt x="93" y="0" on="1"/>
      </contour>
    </TTGlyph>
    <TTGlyph name="hungarumlaut" xMin="189" yMin="586" xMax="494" yMax="767">
      <contour>
        <pt x="224" y="586" on="1"/>
        <pt x="189" y="604" on="1"/>
        <pt x="284" y="767" on="1"/>
        <pt x="334" y="743" on="1"/>
      </contour>
      <contour>
        <pt x="384" y="586" on="1"/>
        <pt x="349" y="604" on="1"/>
        <pt x="444" y="767" on="1"/>
        <pt x="494" y="743" on="1"/>
      </contour>
    </TTGlyph>
    <TTGlyph name="hyphen" xMin="74" yMin="274" xMax="323" yMax="335">
      <contour>
        <pt x="74" y="274" on="1"/>
        <pt x="74" y="335" on="1"/>
        <pt x="323" y="335" on="1"/>
        <pt x="323" y="274" on="1"/>
      </contour>
    </TTGlyph>
    <TTGlyph name="i" xMin="82" yMin="0" xMax="160" yMax="733">
      <contour>
        <pt x="121" y="651" on="1"/>
        <pt x="101" y="651" on="0"/>
        <pt x="82" y="671" on="0"/>
        <pt x="82" y="687" on="1"/>
        <pt x="82" y="697" on="1"/>
        <pt x="82" y="713" on="0"/>
        <pt x="101" y="733" on="0"/>
        <pt x="121" y="733" on="1"/>
        <pt x="141" y="733" on="0"/>
        <pt x="160" y="713" on="0"/>
        <pt x="160" y="697" on="1"/>
        <pt x="160" y="687" on="1"/>
        <pt x="160" y="671" on="0"/>
        <pt x="141" y="651" on="0"/>
      </contour>
      <contour>
        <pt x="93" y="512" on="1"/>
        <pt x="150" y="512" on="1"/>
        <pt x="150" y="0" on="1"/>
        <pt x="93" y="0" on="1"/>
      </contour>
    </TTGlyph>
    <TTGlyph name="iacute" xMin="82" yMin="0" xMax="229" yMax="768">
      <component glyphName="dotlessi" x="0" y="0" flags="0x204"/>
      <component glyphName="acute" x="-178" y="0" flags="0x4"/>
    </TTGlyph>
    <TTGlyph name="icircumflex" xMin="-31" yMin="0" xMax="275" yMax="756">
      <component glyphName="dotlessi" x="0" y="0" flags="0x204"/>
      <component glyphName="circumflex" x="-178" y="0" flags="0x4"/>
    </TTGlyph>
    <TTGlyph name="idieresis" xMin="-9" yMin="0" xMax="253" yMax="709">
      <component glyphName="dotlessi" x="0" y="0" flags="0x204"/>
      <component glyphName="dieresis" x="-178" y="0" flags="0x4"/>
    </TTGlyph>
    <TTGlyph name="igrave" xMin="15" yMin="0" xMax="162" yMax="768">
      <component glyphName="dotlessi" x="0" y="0" flags="0x204"/>
      <component glyphName="grave" x="-178" y="0" flags="0x4"/>
    </TTGlyph>
    <TTGlyph name="ij" xMin="82" yMin="-200" xMax="403" yMax="733">
      <component glyphName="i" x="0" y="0" flags="0x4"/>
      <component glyphName="j" x="243" y="0" flags="0x4"/>
    </TTGlyph>
    <TTGlyph name="infinity" xMin="21" yMin="119" xMax="716" yMax="491">
      <contour>
        <pt x="193" y="119" on="1"/>
        <pt x="152" y="119" on="0"/>
        <pt x="88" y="146" on="0"/>
        <pt x="44" y="195" on="0"/>
        <pt x="21" y="263" on="0"/>
        <pt x="21" y="305" on="1"/>
        <pt x="21" y="347" on="0"/>
        <pt x="44" y="415" on="0"/>
        <pt x="88" y="464" on="0"/>
        <pt x="152" y="491" on="0"/>
        <pt x="193" y="491" on="1"/>
        <pt x="265" y="491" on="0"/>
        <pt x="358" y="416" on="0"/>
        <pt x="379" y="344" on="1"/>
        <pt x="383" y="344" on="1"/>
        <pt x="400" y="418" on="0"/>
        <pt x="487" y="491" on="0"/>
        <pt x="544" y="491" on="1"/>
        <pt x="585" y="491" on="0"/>
        <pt x="649" y="464" on="0"/>
        <pt x="693" y="415" on="0"/>
        <pt x="716" y="347" on="0"/>
        <pt x="716" y="305" on="1"/>
        <pt x="716" y="263" on="0"/>
        <pt x="693" y="195" on="0"/>
        <pt x="649" y="146" on="0"/>
        <pt x="585" y="119" on="0"/>
        <pt x="544" y="119" on="1"/>
        <pt x="472" y="119" on="0"/>
        <pt x="379" y="194" on="0"/>
        <pt x="358" y="266" on="1"/>
        <pt x="353" y="266" on="1"/>
        <pt x="337" y="192" on="0"/>
        <pt x="250" y="119" on="0"/>
      </contour>
      <contour>
        <pt x="192" y="168" on="1"/>
        <pt x="243" y="168" on="0"/>
        <pt x="319" y="234" on="0"/>
        <pt x="339" y="305" on="1"/>
        <pt x="319" y="378" on="0"/>
        <pt x="243" y="442" on="0"/>
        <pt x="192" y="442" on="1"/>
        <pt x="141" y="442" on="0"/>
        <pt x="79" y="381" on="0"/>
        <pt x="79" y="327" on="1"/>
        <pt x="79" y="283" on="1"/>
        <pt x="79" y="229" on="0"/>
        <pt x="141" y="168" on="0"/>
      </contour>
      <contour>
        <pt x="545" y="168" on="1"/>
        <pt x="595" y="168" on="0"/>
        <pt x="658" y="229" on="0"/>
        <pt x="658" y="283" on="1"/>
        <pt x="658" y="327" on="1"/>
        <pt x="658" y="381" on="0"/>
        <pt x="595" y="442" on="0"/>
        <pt x="545" y="442" on="1"/>
        <pt x="494" y="442" on="0"/>
        <pt x="417" y="376" on="0"/>
        <pt x="398" y="305" on="1"/>
        <pt x="417" y="232" on="0"/>
        <pt x="494" y="168" on="0"/>
      </contour>
    </TTGlyph>
    <TTGlyph name="integral" xMin="51" yMin="-200" xMax="348" yMax="740">
      <contour>
        <pt x="51" y="-150" on="1"/>
        <pt x="171" y="-150" on="1"/>
        <pt x="171" y="657" on="1"/>
        <pt x="171" y="695" on="0"/>
        <pt x="209" y="740" on="0"/>
        <pt x="251" y="740" on="1"/>
        <pt x="348" y="740" on="1"/>
        <pt x="348" y="690" on="1"/>
        <pt x="228" y="690" on="1"/>
        <pt x="228" y="-117" on="1"/>
        <pt x="228" y="-155" on="0"/>
        <pt x="189" y="-200" on="0"/>
        <pt x="147" y="-200" on="1"/>
        <pt x="51" y="-200" on="1"/>
      </contour>
    </TTGlyph>
    <TTGlyph name="j" xMin="8" yMin="-200" xMax="160" yMax="733">
      <contour>
        <pt x="93" y="512" on="1"/>
        <pt x="150" y="512" on="1"/>
        <pt x="150" y="-115" on="1"/>
        <pt x="150" y="-154" on="0"/>
        <pt x="112" y="-200" on="0"/>
        <pt x="70" y="-200" on="1"/>
        <pt x="8" y="-200" on="1"/>
        <pt x="8" y="-150" on="1"/>
        <pt x="93" y="-150" on="1"/>
      </contour>
      <contour>
        <pt x="121" y="651" on="1"/>
        <pt x="101" y="651" on="0"/>
        <pt x="82" y="671" on="0"/>
        <pt x="82" y="687" on="1"/>
        <pt x="82" y="697" on="1"/>
        <pt x="82" y="713" on="0"/>
        <pt x="101" y="733" on="0"/>
        <pt x="121" y="733" on="1"/>
        <pt x="141" y="733" on="0"/>
        <pt x="160" y="713" on="0"/>
        <pt x="160" y="697" on="1"/>
        <pt x="160" y="687" on="1"/>
        <pt x="160" y="671" on="0"/>
        <pt x="141" y="651" on="0"/>
      </contour>
    </TTGlyph>
    <TTGlyph name="jacute" xMin="8" yMin="-200" xMax="229" yMax="768">
      <component glyphName="uni0237" x="0" y="0" flags="0x204"/>
      <component glyphName="acute" x="-178" y="0" flags="0x4"/>
    </TTGlyph>
    <TTGlyph name="jcircumflex" xMin="-31" yMin="-200" xMax="275" yMax="756">
      <component glyphName="uni0237" x="0" y="0" flags="0x204"/>
      <component glyphName="circumflex" x="-178" y="0" flags="0x4"/>
    </TTGlyph>
    <TTGlyph name="k" xMin="93" yMin="0" xMax="495" yMax="740">
      <contour>
        <pt x="93" y="740" on="1"/>
        <pt x="150" y="740" on="1"/>
        <pt x="150" y="251" on="1"/>
        <pt x="153" y="251" on="1"/>
        <pt x="233" y="336" on="1"/>
        <pt x="403" y="512" on="1"/>
        <pt x="473" y="512" on="1"/>
        <pt x="272" y="304" on="1"/>
        <pt x="495" y="0" on="1"/>
        <pt x="425" y="0" on="1"/>
        <pt x="231" y="268" on="1"/>
        <pt x="150" y="186" on="1"/>
        <pt x="150" y="0" on="1"/>
        <pt x="93" y="0" on="1"/>
      </contour>
    </TTGlyph>
    <TTGlyph name="l" xMin="93" yMin="0" xMax="229" yMax="740">
      <contour>
        <pt x="156" y="0" on="1"/>
        <pt x="125" y="0" on="0"/>
        <pt x="93" y="34" on="0"/>
        <pt x="93" y="62" on="1"/>
        <pt x="93" y="740" on="1"/>
        <pt x="150" y="740" on="1"/>
        <pt x="150" y="50" on="1"/>
        <pt x="229" y="50" on="1"/>
        <pt x="229" y="0" on="1"/>
      </contour>
    </TTGlyph>
    <TTGlyph name="ldot" xMin="93" yMin="0" xMax="324" yMax="740">
      <component glyphName="l" x="0" y="0" flags="0x4"/>
      <component glyphName="dotaccent" x="-16" y="-378" flags="0x4"/>
    </TTGlyph>
    <TTGlyph name="less" xMin="88" yMin="8" xMax="512" yMax="568">
      <contour>
        <pt x="88" y="260" on="1"/>
        <pt x="88" y="316" on="1"/>
        <pt x="512" y="568" on="1"/>
        <pt x="512" y="508" on="1"/>
        <pt x="143" y="291" on="1"/>
        <pt x="143" y="285" on="1"/>
        <pt x="512" y="68" on="1"/>
        <pt x="512" y="8" on="1"/>
      </contour>
    </TTGlyph>
    <TTGlyph name="lessequal" xMin="88" yMin="0" xMax="512" yMax="591">
      <contour>
        <pt x="88" y="0" on="1"/>
        <pt x="88" y="49" on="1"/>
        <pt x="512" y="49" on="1"/>
        <pt x="512" y="0" on="1"/>
      </contour>
      <contour>
        <pt x="512" y="534" on="1"/>
        <pt x="143" y="355" on="1"/>
        <pt x="143" y="349" on="1"/>
        <pt x="512" y="170" on="1"/>
        <pt x="512" y="112" on="1"/>
        <pt x="88" y="321" on="1"/>
        <pt x="88" y="383" on="1"/>
        <pt x="512" y="591" on="1"/>
      </contour>
    </TTGlyph>
    <TTGlyph name="logicalnot" xMin="65" yMin="88" xMax="529" yMax="330">
      <contour>
        <pt x="478" y="88" on="1"/>
        <pt x="478" y="281" on="1"/>
        <pt x="65" y="281" on="1"/>
        <pt x="65" y="330" on="1"/>
        <pt x="529" y="330" on="1"/>
        <pt x="529" y="88" on="1"/>
      </contour>
    </TTGlyph>
    <TTGlyph name="lozenge" xMin="50" yMin="0" xMax="550" yMax="698">
      <contour>
        <pt x="272" y="0" on="1"/>
        <pt x="50" y="349" on="1"/>
        <pt x="272" y="698" on="1"/>
        <pt x="329" y="698" on="1"/>
        <pt x="550" y="349" on="1"/>
        <pt x="329" y="0" on="1"/>
      </contour>
      <contour>
        <pt x="303" y="54" on="1"/>
        <pt x="490" y="349" on="1"/>
        <pt x="303" y="644" on="1"/>
        <pt x="297" y="644" on="1"/>
        <pt x="111" y="349" on="1"/>
        <pt x="297" y="54" on="1"/>
      </contour>
    </TTGlyph>
    <TTGlyph name="lslash" xMin="24" yMin="0" xMax="252" yMax="740">
      <contour>
        <pt x="232" y="0" on="1"/>
        <pt x="159" y="0" on="1"/>
        <pt x="128" y="0" on="0"/>
        <pt x="96" y="34" on="0"/>
        <pt x="96" y="62" on="1"/>
        <pt x="96" y="335" on="1"/>
        <pt x="24" y="312" on="1"/>
        <pt x="24" y="361" on="1"/>
        <pt x="96" y="384" on="1"/>
        <pt x="96" y="740" on="1"/>
        <pt x="153" y="740" on="1"/>
        <pt x="153" y="404" on="1"/>
        <pt x="252" y="436" on="1"/>
        <pt x="252" y="387" on="1"/>
        <pt x="153" y="354" on="1"/>
        <pt x="153" y="50" on="1"/>
        <pt x="232" y="50" on="1"/>
      </contour>
    </TTGlyph>
    <TTGlyph name="m" xMin="93" yMin="0" xMax="790" yMax="524">
      <contour>
        <pt x="93" y="0" on="1"/>
        <pt x="93" y="512" on="1"/>
        <pt x="150" y="512" on="1"/>
        <pt x="150" y="431" on="1"/>
        <pt x="153" y="431" on="1"/>
        <pt x="161" y="450" on="0"/>
        <pt x="185" y="483" on="0"/>
        <pt x="219" y="509" on="0"/>
        <pt x="266" y="524" on="0"/>
        <pt x="298" y="524" on="1"/>
        <pt x="353" y="524" on="0"/>
        <pt x="437" y="472" on="0"/>
        <pt x="456" y="416" on="1"/>
        <pt x="459" y="416" on="1"/>
        <pt x="473" y="461" on="0"/>
        <pt x="552" y="524" on="0"/>
        <pt x="620" y="524" on="1"/>
        <pt x="702" y="524" on="0"/>
        <pt x="790" y="423" on="0"/>
        <pt x="790" y="329" on="1"/>
        <pt x="790" y="0" on="1"/>
        <pt x="733" y="0" on="1"/>
        <pt x="733" y="319" on="1"/>
        <pt x="733" y="473" on="0"/>
        <pt x="604" y="473" on="1"/>
        <pt x="577" y="473" on="0"/>
        <pt x="529" y="459" on="0"/>
        <pt x="492" y="430" on="0"/>
        <pt x="470" y="387" on="0"/>
        <pt x="470" y="359" on="1"/>
        <pt x="470" y="0" on="1"/>
        <pt x="413" y="0" on="1"/>
        <pt x="413" y="319" on="1"/>
        <pt x="413" y="473" on="0"/>
        <pt x="285" y="473" on="1"/>
        <pt x="259" y="473" on="0"/>
        <pt x="210" y="459" on="0"/>
        <pt x="172" y="431" on="0"/>
        <pt x="150" y="388" on="0"/>
        <pt x="150" y="360" on="1"/>
        <pt x="150" y="0" on="1"/>
      </contour>
    </TTGlyph>
    <TTGlyph name="macron" xMin="164" yMin="645" xMax="436" yMax="694">
      <contour>
        <pt x="164" y="694" on="1"/>
        <pt x="436" y="694" on="1"/>
        <pt x="436" y="645" on="1"/>
        <pt x="164" y="645" on="1"/>
      </contour>
    </TTGlyph>
    <TTGlyph name="macron.case" xMin="164" yMin="819" xMax="436" yMax="868">
      <contour>
        <pt x="164" y="868" on="1"/>
        <pt x="436" y="868" on="1"/>
        <pt x="436" y="819" on="1"/>
        <pt x="164" y="819" on="1"/>
      </contour>
    </TTGlyph>
    <TTGlyph name="minus" xMin="65" yMin="281" xMax="535" yMax="330">
      <contour>
        <pt x="65" y="281" on="1"/>
        <pt x="65" y="330" on="1"/>
        <pt x="535" y="330" on="1"/>
        <pt x="535" y="281" on="1"/>
      </contour>
    </TTGlyph>
    <TTGlyph name="mu" xMin="93" yMin="-200" xMax="477" yMax="512">
      <contour>
        <pt x="93" y="-200" on="1"/>
        <pt x="93" y="512" on="1"/>
        <pt x="150" y="512" on="1"/>
        <pt x="150" y="194" on="1"/>
        <pt x="150" y="115" on="0"/>
        <pt x="218" y="39" on="0"/>
        <pt x="282" y="39" on="1"/>
        <pt x="309" y="39" on="0"/>
        <pt x="358" y="53" on="0"/>
        <pt x="397" y="81" on="0"/>
        <pt x="420" y="125" on="0"/>
        <pt x="420" y="154" on="1"/>
        <pt x="420" y="512" on="1"/>
        <pt x="477" y="512" on="1"/>
        <pt x="477" y="0" on="1"/>
        <pt x="420" y="0" on="1"/>
        <pt x="420" y="81" on="1"/>
        <pt x="417" y="81" on="1"/>
        <pt x="410" y="63" on="0"/>
        <pt x="386" y="29" on="0"/>
        <pt x="350" y="4" on="0"/>
        <pt x="301" y="-12" on="0"/>
        <pt x="269" y="-12" on="1"/>
        <pt x="178" y="-12" on="0"/>
        <pt x="147" y="55" on="1"/>
        <pt x="144" y="55" on="1"/>
        <pt x="150" y="-45" on="1"/>
        <pt x="150" y="-200" on="1"/>
      </contour>
    </TTGlyph>
    <TTGlyph name="multiply" xMin="97" yMin="100" xMax="503" yMax="510">
      <contour>
        <pt x="300" y="270" on="1"/>
        <pt x="132" y="100" on="1"/>
        <pt x="97" y="135" on="1"/>
        <pt x="265" y="305" on="1"/>
        <pt x="97" y="475" on="1"/>
        <pt x="132" y="510" on="1"/>
        <pt x="300" y="340" on="1"/>
        <pt x="468" y="510" on="1"/>
        <pt x="503" y="475" on="1"/>
        <pt x="335" y="305" on="1"/>
        <pt x="503" y="135" on="1"/>
        <pt x="468" y="100" on="1"/>
      </contour>
    </TTGlyph>
    <TTGlyph name="n" xMin="93" yMin="0" xMax="477" yMax="524">
      <contour>
        <pt x="93" y="0" on="1"/>
        <pt x="93" y="512" on="1"/>
        <pt x="150" y="512" on="1"/>
        <pt x="150" y="431" on="1"/>
        <pt x="153" y="431" on="1"/>
        <pt x="170" y="471" on="0"/>
        <pt x="242" y="524" on="0"/>
        <pt x="304" y="524" on="1"/>
        <pt x="386" y="524" on="0"/>
        <pt x="477" y="423" on="0"/>
        <pt x="477" y="329" on="1"/>
        <pt x="477" y="0" on="1"/>
        <pt x="420" y="0" on="1"/>
        <pt x="420" y="319" on="1"/>
        <pt x="420" y="397" on="0"/>
        <pt x="353" y="473" on="0"/>
        <pt x="289" y="473" on="1"/>
        <pt x="262" y="473" on="0"/>
        <pt x="212" y="459" on="0"/>
        <pt x="173" y="431" on="0"/>
        <pt x="150" y="388" on="0"/>
        <pt x="150" y="360" on="1"/>
        <pt x="150" y="0" on="1"/>
      </contour>
    </TTGlyph>
    <TTGlyph name="nine" xMin="76" yMin="0" xMax="525" yMax="710">
      <contour>
        <pt x="525" y="454" on="1"/>
        <pt x="525" y="373" on="0"/>
        <pt x="480" y="234" on="0"/>
        <pt x="408" y="120" on="0"/>
        <pt x="315" y="31" on="0"/>
        <pt x="267" y="0" on="1"/>
        <pt x="189" y="0" on="1"/>
        <pt x="247" y="40" on="0"/>
        <pt x="337" y="120" on="0"/>
        <pt x="404" y="209" on="0"/>
        <pt x="449" y="310" on="0"/>
        <pt x="462" y="372" on="1"/>
        <pt x="458" y="373" on="1"/>
        <pt x="432" y="326" on="0"/>
        <pt x="347" y="271" on="0"/>
        <pt x="284" y="271" on="1"/>
        <pt x="238" y="271" on="0"/>
        <pt x="161" y="301" on="0"/>
        <pt x="106" y="356" on="0"/>
        <pt x="76" y="435" on="0"/>
        <pt x="76" y="484" on="1"/>
        <pt x="76" y="535" on="0"/>
        <pt x="108" y="618" on="0"/>
        <pt x="166" y="677" on="0"/>
        <pt x="249" y="710" on="0"/>
        <pt x="300" y="710" on="1"/>
        <pt x="355" y="710" on="0"/>
        <pt x="439" y="673" on="0"/>
        <pt x="496" y="606" on="0"/>
        <pt x="525" y="511" on="0"/>
      </contour>
      <contour>
        <pt x="301" y="322" on="1"/>
        <pt x="378" y="322" on="0"/>
        <pt x="463" y="408" on="0"/>
        <pt x="463" y="481" on="1"/>
        <pt x="463" y="497" on="1"/>
        <pt x="463" y="571" on="0"/>
        <pt x="377" y="658" on="0"/>
        <pt x="301" y="658" on="1"/>
        <pt x="224" y="658" on="0"/>
        <pt x="138" y="571" on="0"/>
        <pt x="138" y="498" on="1"/>
        <pt x="138" y="481" on="1"/>
        <pt x="138" y="408" on="0"/>
        <pt x="223" y="322" on="0"/>
      </contour>
    </TTGlyph>
    <TTGlyph name="notequal" xMin="65" yMin="80" xMax="535" yMax="532">
      <contour>
        <pt x="147" y="80" on="1"/>
        <pt x="207" y="186" on="1"/>
        <pt x="65" y="186" on="1"/>
        <pt x="65" y="235" on="1"/>
        <pt x="234" y="235" on="1"/>
        <pt x="314" y="377" on="1"/>
        <pt x="65" y="377" on="1"/>
        <pt x="65" y="426" on="1"/>
        <pt x="341" y="426" on="1"/>
        <pt x="401" y="532" on="1"/>
        <pt x="453" y="532" on="1"/>
        <pt x="393" y="426" on="1"/>
        <pt x="535" y="426" on="1"/>
        <pt x="535" y="377" on="1"/>
        <pt x="366" y="377" on="1"/>
        <pt x="286" y="235" on="1"/>
        <pt x="535" y="235" on="1"/>
        <pt x="535" y="186" on="1"/>
        <pt x="259" y="186" on="1"/>
        <pt x="199" y="80" on="1"/>
      </contour>
    </TTGlyph>
    <TTGlyph name="ntilde" xMin="93" yMin="0" xMax="477" yMax="718">
      <component glyphName="n" x="0" y="0" flags="0x204"/>
      <component glyphName="tilde" x="-13" y="0" flags="0x4"/>
    </TTGlyph>
    <TTGlyph name="numbersign" xMin="66" yMin="0" xMax="647" yMax="698">
      <contour>
        <pt x="416" y="211" on="1"/>
        <pt x="250" y="211" on="1"/>
        <pt x="213" y="0" on="1"/>
        <pt x="166" y="0" on="1"/>
        <pt x="202" y="211" on="1"/>
        <pt x="66" y="211" on="1"/>
        <pt x="66" y="255" on="1"/>
        <pt x="210" y="255" on="1"/>
        <pt x="242" y="443" on="1"/>
        <pt x="105" y="443" on="1"/>
        <pt x="105" y="487" on="1"/>
        <pt x="250" y="487" on="1"/>
        <pt x="286" y="698" on="1"/>
        <pt x="333" y="698" on="1"/>
        <pt x="297" y="487" on="1"/>
        <pt x="463" y="487" on="1"/>
        <pt x="499" y="698" on="1"/>
        <pt x="547" y="698" on="1"/>
        <pt x="510" y="487" on="1"/>
        <pt x="647" y="487" on="1"/>
        <pt x="647" y="443" on="1"/>
        <pt x="502" y="443" on="1"/>
        <pt x="471" y="255" on="1"/>
        <pt x="608" y="255" on="1"/>
        <pt x="608" y="211" on="1"/>
        <pt x="463" y="211" on="1"/>
        <pt x="427" y="0" on="1"/>
        <pt x="379" y="0" on="1"/>
      </contour>
      <contour>
        <pt x="423" y="255" on="1"/>
        <pt x="455" y="443" on="1"/>
        <pt x="289" y="443" on="1"/>
        <pt x="257" y="255" on="1"/>
      </contour>
    </TTGlyph>
    <TTGlyph name="o" xMin="52" yMin="-12" xMax="498" yMax="524">
      <contour>
        <pt x="275" y="-12" on="1"/>
        <pt x="224" y="-12" on="0"/>
        <pt x="142" y="24" on="0"/>
        <pt x="84" y="93" on="0"/>
        <pt x="52" y="193" on="0"/>
        <pt x="52" y="256" on="1"/>
        <pt x="52" y="319" on="0"/>
        <pt x="84" y="418" on="0"/>
        <pt x="142" y="487" on="0"/>
        <pt x="224" y="524" on="0"/>
        <pt x="275" y="524" on="1"/>
        <pt x="326" y="524" on="0"/>
        <pt x="408" y="487" on="0"/>
        <pt x="466" y="418" on="0"/>
        <pt x="498" y="319" on="0"/>
        <pt x="498" y="256" on="1"/>
        <pt x="498" y="193" on="0"/>
        <pt x="466" y="93" on="0"/>
        <pt x="408" y="24" on="0"/>
        <pt x="326" y="-12" on="0"/>
      </contour>
      <contour>
        <pt x="275" y="39" on="1"/>
        <pt x="350" y="39" on="0"/>
        <pt x="437" y="133" on="0"/>
        <pt x="437" y="224" on="1"/>
        <pt x="437" y="288" on="1"/>
        <pt x="437" y="378" on="0"/>
        <pt x="350" y="473" on="0"/>
        <pt x="275" y="473" on="1"/>
        <pt x="200" y="473" on="0"/>
        <pt x="113" y="379" on="0"/>
        <pt x="113" y="288" on="1"/>
        <pt x="113" y="224" on="1"/>
        <pt x="113" y="134" on="0"/>
        <pt x="200" y="39" on="0"/>
      </contour>
    </TTGlyph>
    <TTGlyph name="oacute" xMin="52" yMin="-12" xMax="498" yMax="768">
      <component glyphName="o" x="0" y="0" flags="0x204"/>
      <component glyphName="acute" x="-24" y="0" flags="0x4"/>
    </TTGlyph>
    <TTGlyph name="ocircumflex" xMin="52" yMin="-12" xMax="498" yMax="756">
      <component glyphName="o" x="0" y="0" flags="0x204"/>
      <component glyphName="circumflex" x="-24" y="0" flags="0x4"/>
    </TTGlyph>
    <TTGlyph name="odieresis" xMin="52" yMin="-12" xMax="498" yMax="709">
      <component glyphName="o" x="0" y="0" flags="0x204"/>
      <component glyphName="dieresis" x="-24" y="0" flags="0x4"/>
    </TTGlyph>
    <TTGlyph name="oe" xMin="52" yMin="-12" xMax="877" yMax="524">
      <contour>
        <pt x="276" y="39" on="1"/>
        <pt x="350" y="39" on="0"/>
        <pt x="438" y="134" on="0"/>
        <pt x="438" y="224" on="1"/>
        <pt x="438" y="288" on="1"/>
        <pt x="438" y="379" on="0"/>
        <pt x="350" y="473" on="0"/>
        <pt x="276" y="473" on="1"/>
        <pt x="201" y="473" on="0"/>
        <pt x="113" y="379" on="0"/>
        <pt x="113" y="288" on="1"/>
        <pt x="113" y="224" on="1"/>
        <pt x="113" y="134" on="0"/>
        <pt x="201" y="39" on="0"/>
      </contour>
      <contour>
        <pt x="815" y="289" on="1"/>
        <pt x="815" y="297" on="1"/>
        <pt x="815" y="337" on="0"/>
        <pt x="793" y="404" on="0"/>
        <pt x="753" y="450" on="0"/>
        <pt x="696" y="476" on="0"/>
        <pt x="662" y="476" on="1"/>
        <pt x="624" y="476" on="0"/>
        <pt x="564" y="449" on="0"/>
        <pt x="521" y="401" on="0"/>
        <pt x="498" y="334" on="0"/>
        <pt x="498" y="294" on="1"/>
        <pt x="498" y="289" on="1"/>
      </contour>
      <contour>
        <pt x="667" y="-12" on="1"/>
        <pt x="592" y="-12" on="0"/>
        <pt x="493" y="58" on="0"/>
        <pt x="471" y="120" on="1"/>
        <pt x="467" y="120" on="1"/>
        <pt x="446" y="59" on="0"/>
        <pt x="345" y="-12" on="0"/>
        <pt x="276" y="-12" on="1"/>
        <pt x="225" y="-12" on="0"/>
        <pt x="142" y="24" on="0"/>
        <pt x="84" y="93" on="0"/>
        <pt x="52" y="193" on="0"/>
        <pt x="52" y="256" on="1"/>
        <pt x="52" y="319" on="0"/>
        <pt x="84" y="418" on="0"/>
        <pt x="142" y="487" on="0"/>
        <pt x="225" y="524" on="0"/>
        <pt x="276" y="524" on="1"/>
        <pt x="346" y="524" on="0"/>
        <pt x="445" y="457" on="0"/>
        <pt x="468" y="393" on="1"/>
        <pt x="472" y="393" on="1"/>
        <pt x="494" y="455" on="0"/>
        <pt x="591" y="524" on="0"/>
        <pt x="662" y="524" on="1"/>
        <pt x="711" y="524" on="0"/>
        <pt x="790" y="487" on="0"/>
        <pt x="846" y="421" on="0"/>
        <pt x="877" y="328" on="0"/>
        <pt x="877" y="272" on="1"/>
        <pt x="877" y="245" on="1"/>
        <pt x="498" y="245" on="1"/>
        <pt x="498" y="220" on="1"/>
        <pt x="498" y="138" on="0"/>
        <pt x="586" y="38" on="0"/>
        <pt x="667" y="38" on="1"/>
        <pt x="721" y="38" on="0"/>
        <pt x="798" y="90" on="0"/>
        <pt x="820" y="141" on="1"/>
        <pt x="862" y="113" on="1"/>
        <pt x="840" y="60" on="0"/>
        <pt x="739" y="-12" on="0"/>
      </contour>
    </TTGlyph>
    <TTGlyph name="ogonek" xMin="163" yMin="-205" xMax="335" yMax="20">
      <contour>
        <pt x="252" y="-205" on="1"/>
        <pt x="215" y="-205" on="0"/>
        <pt x="163" y="-170" on="0"/>
        <pt x="163" y="-133" on="1"/>
        <pt x="163" y="-97" on="0"/>
        <pt x="218" y="-33" on="0"/>
        <pt x="274" y="3" on="1"/>
        <pt x="269" y="18" on="1"/>
        <pt x="309" y="20" on="1"/>
        <pt x="317" y="0" on="1"/>
        <pt x="286" y="-25" on="0"/>
        <pt x="245" y="-62" on="0"/>
        <pt x="221" y="-91" on="0"/>
        <pt x="211" y="-115" on="0"/>
        <pt x="211" y="-127" on="1"/>
        <pt x="211" y="-147" on="0"/>
        <pt x="234" y="-165" on="0"/>
        <pt x="252" y="-165" on="1"/>
        <pt x="270" y="-165" on="0"/>
        <pt x="297" y="-152" on="0"/>
        <pt x="305" y="-141" on="1"/>
        <pt x="335" y="-169" on="1"/>
        <pt x="326" y="-184" on="0"/>
        <pt x="284" y="-205" on="0"/>
      </contour>
    </TTGlyph>
    <TTGlyph name="ograve" xMin="52" yMin="-12" xMax="498" yMax="768">
      <component glyphName="o" x="0" y="0" flags="0x204"/>
      <component glyphName="grave" x="-24" y="0" flags="0x4"/>
    </TTGlyph>
    <TTGlyph name="one" xMin="63" yMin="0" xMax="546" yMax="698">
      <contour>
        <pt x="90" y="0" on="1"/>
        <pt x="90" y="53" on="1"/>
        <pt x="294" y="53" on="1"/>
        <pt x="294" y="654" on="1"/>
        <pt x="289" y="654" on="1"/>
        <pt x="97" y="483" on="1"/>
        <pt x="63" y="521" on="1"/>
        <pt x="262" y="698" on="1"/>
        <pt x="354" y="698" on="1"/>
        <pt x="354" y="53" on="1"/>
        <pt x="546" y="53" on="1"/>
        <pt x="546" y="0" on="1"/>
      </contour>
    </TTGlyph>
    <TTGlyph name="onehalf" xMin="39" yMin="0" xMax="826" yMax="698">
      <component glyphName="onesuperior" x="0" y="0" flags="0x4"/>
      <component glyphName="fraction" x="370" y="0" flags="0x4"/>
      <component glyphName="uni2082" x="519" y="0" flags="0x4"/>
    </TTGlyph>
    <TTGlyph name="onequarter" xMin="39" yMin="0" xMax="827" yMax="698">
      <component glyphName="onesuperior" x="0" y="0" flags="0x4"/>
      <component glyphName="fraction" x="370" y="0" flags="0x4"/>
      <component glyphName="uni2084" x="505" y="0" flags="0x4"/>
    </TTGlyph>
    <TTGlyph name="onesuperior" xMin="39" yMin="329" xMax="326" yMax="698">
      <contour>
        <pt x="57" y="329" on="1"/>
        <pt x="57" y="366" on="1"/>
        <pt x="174" y="366" on="1"/>
        <pt x="174" y="661" on="1"/>
        <pt x="169" y="661" on="1"/>
        <pt x="65" y="566" on="1"/>
        <pt x="39" y="593" on="1"/>
        <pt x="151" y="698" on="1"/>
        <pt x="220" y="698" on="1"/>
        <pt x="220" y="366" on="1"/>
        <pt x="326" y="366" on="1"/>
        <pt x="326" y="329" on="1"/>
      </contour>
    </TTGlyph>
    <TTGlyph name="ordfeminine" xMin="40" yMin="350" xMax="348" yMax="704">
      <contour>
        <pt x="308" y="356" on="1"/>
        <pt x="264" y="356" on="0"/>
        <pt x="264" y="396" on="1"/>
        <pt x="264" y="407" on="1"/>
        <pt x="260" y="407" on="1"/>
        <pt x="249" y="385" on="0"/>
        <pt x="196" y="350" on="0"/>
        <pt x="149" y="350" on="1"/>
        <pt x="96" y="350" on="0"/>
        <pt x="40" y="402" on="0"/>
        <pt x="40" y="444" on="1"/>
        <pt x="40" y="544" on="0"/>
        <pt x="180" y="544" on="1"/>
        <pt x="261" y="544" on="1"/>
        <pt x="261" y="583" on="1"/>
        <pt x="261" y="625" on="0"/>
        <pt x="218" y="665" on="0"/>
        <pt x="177" y="665" on="1"/>
        <pt x="143" y="665" on="0"/>
        <pt x="94" y="637" on="0"/>
        <pt x="83" y="611" on="1"/>
        <pt x="51" y="635" on="1"/>
        <pt x="65" y="663" on="0"/>
        <pt x="128" y="704" on="0"/>
        <pt x="179" y="704" on="1"/>
        <pt x="239" y="704" on="0"/>
        <pt x="307" y="643" on="0"/>
        <pt x="307" y="586" on="1"/>
        <pt x="307" y="397" on="1"/>
        <pt x="348" y="397" on="1"/>
        <pt x="348" y="356" on="1"/>
      </contour>
      <contour>
        <pt x="158" y="387" on="1"/>
        <pt x="178" y="387" on="0"/>
        <pt x="215" y="397" on="0"/>
        <pt x="244" y="415" on="0"/>
        <pt x="261" y="442" on="0"/>
        <pt x="261" y="460" on="1"/>
        <pt x="261" y="509" on="1"/>
        <pt x="179" y="509" on="1"/>
        <pt x="87" y="509" on="0"/>
        <pt x="87" y="454" on="1"/>
        <pt x="87" y="443" on="1"/>
        <pt x="87" y="415" on="0"/>
        <pt x="124" y="387" on="0"/>
      </contour>
    </TTGlyph>
    <TTGlyph name="ordmasculine" xMin="45" yMin="350" xMax="341" yMax="704">
      <contour>
        <pt x="193" y="350" on="1"/>
        <pt x="123" y="350" on="0"/>
        <pt x="45" y="445" on="0"/>
        <pt x="45" y="527" on="1"/>
        <pt x="45" y="609" on="0"/>
        <pt x="123" y="704" on="0"/>
        <pt x="193" y="704" on="1"/>
        <pt x="263" y="704" on="0"/>
        <pt x="341" y="609" on="0"/>
        <pt x="341" y="527" on="1"/>
        <pt x="341" y="445" on="0"/>
        <pt x="263" y="350" on="0"/>
      </contour>
      <contour>
        <pt x="193" y="389" on="1"/>
        <pt x="242" y="389" on="0"/>
        <pt x="292" y="453" on="0"/>
        <pt x="292" y="501" on="1"/>
        <pt x="292" y="553" on="1"/>
        <pt x="292" y="601" on="0"/>
        <pt x="242" y="665" on="0"/>
        <pt x="193" y="665" on="1"/>
        <pt x="144" y="665" on="0"/>
        <pt x="94" y="601" on="0"/>
        <pt x="94" y="553" on="1"/>
        <pt x="94" y="501" on="1"/>
        <pt x="94" y="453" on="0"/>
        <pt x="144" y="389" on="0"/>
      </contour>
    </TTGlyph>
    <TTGlyph name="oslash" xMin="36" yMin="-35" xMax="521" yMax="551">
      <contour>
        <pt x="36" y="-10" on="1"/>
        <pt x="104" y="74" on="1"/>
        <pt x="81" y="108" on="0"/>
        <pt x="55" y="199" on="0"/>
        <pt x="55" y="256" on="1"/>
        <pt x="55" y="319" on="0"/>
        <pt x="87" y="418" on="0"/>
        <pt x="145" y="487" on="0"/>
        <pt x="227" y="524" on="0"/>
        <pt x="278" y="524" on="1"/>
        <pt x="365" y="524" on="0"/>
        <pt x="424" y="470" on="1"/>
        <pt x="489" y="551" on="1"/>
        <pt x="521" y="526" on="1"/>
        <pt x="451" y="439" on="1"/>
        <pt x="475" y="405" on="0"/>
        <pt x="501" y="313" on="0"/>
        <pt x="501" y="256" on="1"/>
        <pt x="501" y="193" on="0"/>
        <pt x="469" y="93" on="0"/>
        <pt x="411" y="24" on="0"/>
        <pt x="329" y="-12" on="0"/>
        <pt x="278" y="-12" on="1"/>
        <pt x="189" y="-12" on="0"/>
        <pt x="131" y="43" on="1"/>
        <pt x="69" y="-35" on="1"/>
      </contour>
      <contour>
        <pt x="278" y="39" on="1"/>
        <pt x="353" y="39" on="0"/>
        <pt x="440" y="133" on="0"/>
        <pt x="440" y="224" on="1"/>
        <pt x="440" y="288" on="1"/>
        <pt x="440" y="354" on="0"/>
        <pt x="416" y="396" on="1"/>
        <pt x="164" y="83" on="1"/>
        <pt x="206" y="39" on="0"/>
      </contour>
      <contour>
        <pt x="116" y="224" on="1"/>
        <pt x="116" y="161" on="0"/>
        <pt x="139" y="117" on="1"/>
        <pt x="391" y="430" on="1"/>
        <pt x="350" y="473" on="0"/>
        <pt x="278" y="473" on="1"/>
        <pt x="203" y="473" on="0"/>
        <pt x="116" y="379" on="0"/>
        <pt x="116" y="288" on="1"/>
      </contour>
    </TTGlyph>
    <TTGlyph name="otilde" xMin="52" yMin="-12" xMax="498" yMax="718">
      <component glyphName="o" x="0" y="0" flags="0x204"/>
      <component glyphName="tilde" x="-24" y="0" flags="0x4"/>
    </TTGlyph>
    <TTGlyph name="p" xMin="93" yMin="-200" xMax="520" yMax="524">
      <contour>
        <pt x="93" y="512" on="1"/>
        <pt x="150" y="512" on="1"/>
        <pt x="150" y="430" on="1"/>
        <pt x="153" y="430" on="1"/>
        <pt x="172" y="473" on="0"/>
        <pt x="250" y="524" on="0"/>
        <pt x="309" y="524" on="1"/>
        <pt x="408" y="524" on="0"/>
        <pt x="520" y="384" on="0"/>
        <pt x="520" y="256" on="1"/>
        <pt x="520" y="128" on="0"/>
        <pt x="408" y="-12" on="0"/>
        <pt x="309" y="-12" on="1"/>
        <pt x="250" y="-12" on="0"/>
        <pt x="174" y="39" on="0"/>
        <pt x="153" y="82" on="1"/>
        <pt x="150" y="82" on="1"/>
        <pt x="150" y="-200" on="1"/>
        <pt x="93" y="-200" on="1"/>
      </contour>
      <contour>
        <pt x="296" y="39" on="1"/>
        <pt x="373" y="39" on="0"/>
        <pt x="459" y="137" on="0"/>
        <pt x="459" y="220" on="1"/>
        <pt x="459" y="292" on="1"/>
        <pt x="459" y="375" on="0"/>
        <pt x="373" y="473" on="0"/>
        <pt x="296" y="473" on="1"/>
        <pt x="266" y="473" on="0"/>
        <pt x="213" y="456" on="0"/>
        <pt x="173" y="426" on="0"/>
        <pt x="150" y="384" on="0"/>
        <pt x="150" y="359" on="1"/>
        <pt x="150" y="156" on="1"/>
        <pt x="150" y="129" on="0"/>
        <pt x="173" y="86" on="0"/>
        <pt x="213" y="55" on="0"/>
        <pt x="266" y="39" on="0"/>
      </contour>
    </TTGlyph>
    <TTGlyph name="paragraph" xMin="52" yMin="-149" xMax="540" yMax="698">
      <contour>
        <pt x="248" y="312" on="1"/>
        <pt x="207" y="312" on="0"/>
        <pt x="136" y="341" on="0"/>
        <pt x="83" y="392" on="0"/>
        <pt x="52" y="463" on="0"/>
        <pt x="52" y="505" on="1"/>
        <pt x="52" y="547" on="0"/>
        <pt x="83" y="617" on="0"/>
        <pt x="136" y="669" on="0"/>
        <pt x="207" y="698" on="0"/>
        <pt x="248" y="698" on="1"/>
        <pt x="540" y="698" on="1"/>
        <pt x="540" y="650" on="1"/>
        <pt x="472" y="650" on="1"/>
        <pt x="472" y="-149" on="1"/>
        <pt x="419" y="-149" on="1"/>
        <pt x="419" y="650" on="1"/>
        <pt x="301" y="650" on="1"/>
        <pt x="301" y="-149" on="1"/>
        <pt x="248" y="-149" on="1"/>
      </contour>
    </TTGlyph>
    <TTGlyph name="parenleft" xMin="92" yMin="-137" xMax="330" yMax="760">
      <contour>
        <pt x="92" y="312" on="1"/>
        <pt x="92" y="386" on="0"/>
        <pt x="121" y="520" on="0"/>
        <pt x="171" y="635" on="0"/>
        <pt x="237" y="728" on="0"/>
        <pt x="274" y="760" on="1"/>
        <pt x="330" y="760" on="1"/>
        <pt x="290" y="724" on="0"/>
        <pt x="223" y="630" on="0"/>
        <pt x="174" y="521" on="0"/>
        <pt x="146" y="403" on="0"/>
        <pt x="146" y="344" on="1"/>
        <pt x="146" y="278" on="1"/>
        <pt x="146" y="219" on="0"/>
        <pt x="174" y="101" on="0"/>
        <pt x="224" y="-8" on="0"/>
        <pt x="291" y="-103" on="0"/>
        <pt x="330" y="-137" on="1"/>
        <pt x="274" y="-137" on="1"/>
        <pt x="238" y="-106" on="0"/>
        <pt x="172" y="-13" on="0"/>
        <pt x="122" y="102" on="0"/>
        <pt x="92" y="237" on="0"/>
      </contour>
    </TTGlyph>
    <TTGlyph name="parenright" xMin="4" yMin="-137" xMax="242" yMax="760">
      <contour>
        <pt x="242" y="312" on="1"/>
        <pt x="242" y="237" on="0"/>
        <pt x="212" y="102" on="0"/>
        <pt x="162" y="-13" on="0"/>
        <pt x="96" y="-106" on="0"/>
        <pt x="60" y="-137" on="1"/>
        <pt x="4" y="-137" on="1"/>
        <pt x="43" y="-103" on="0"/>
        <pt x="110" y="-8" on="0"/>
        <pt x="160" y="101" on="0"/>
        <pt x="188" y="219" on="0"/>
        <pt x="188" y="278" on="1"/>
        <pt x="188" y="344" on="1"/>
        <pt x="188" y="403" on="0"/>
        <pt x="160" y="521" on="0"/>
        <pt x="111" y="630" on="0"/>
        <pt x="44" y="724" on="0"/>
        <pt x="4" y="760" on="1"/>
        <pt x="60" y="760" on="1"/>
        <pt x="97" y="728" on="0"/>
        <pt x="163" y="635" on="0"/>
        <pt x="213" y="520" on="0"/>
        <pt x="242" y="386" on="0"/>
      </contour>
    </TTGlyph>
    <TTGlyph name="partialdiff" xMin="68" yMin="-12" xMax="512" yMax="698">
      <contour>
        <pt x="512" y="261" on="1"/>
        <pt x="512" y="193" on="0"/>
        <pt x="481" y="91" on="0"/>
        <pt x="424" y="23" on="0"/>
        <pt x="342" y="-12" on="0"/>
        <pt x="292" y="-12" on="1"/>
        <pt x="240" y="-12" on="0"/>
        <pt x="157" y="24" on="0"/>
        <pt x="99" y="90" on="0"/>
        <pt x="68" y="186" on="0"/>
        <pt x="68" y="246" on="1"/>
        <pt x="68" y="306" on="0"/>
        <pt x="99" y="402" on="0"/>
        <pt x="156" y="468" on="0"/>
        <pt x="235" y="504" on="0"/>
        <pt x="284" y="504" on="1"/>
        <pt x="330" y="504" on="0"/>
        <pt x="399" y="470" on="0"/>
        <pt x="423" y="439" on="1"/>
        <pt x="426" y="441" on="1"/>
        <pt x="412" y="480" on="0"/>
        <pt x="356" y="553" on="0"/>
        <pt x="283" y="617" on="0"/>
        <pt x="195" y="674" on="0"/>
        <pt x="148" y="698" on="1"/>
        <pt x="240" y="698" on="1"/>
        <pt x="282" y="674" on="0"/>
        <pt x="373" y="607" on="0"/>
        <pt x="456" y="505" on="0"/>
        <pt x="512" y="359" on="0"/>
      </contour>
      <contour>
        <pt x="290" y="37" on="1"/>
        <pt x="363" y="37" on="0"/>
        <pt x="452" y="131" on="0"/>
        <pt x="452" y="216" on="1"/>
        <pt x="452" y="276" on="1"/>
        <pt x="452" y="361" on="0"/>
        <pt x="363" y="455" on="0"/>
        <pt x="290" y="455" on="1"/>
        <pt x="218" y="455" on="0"/>
        <pt x="129" y="361" on="0"/>
        <pt x="129" y="276" on="1"/>
        <pt x="129" y="216" on="1"/>
        <pt x="129" y="131" on="0"/>
        <pt x="218" y="37" on="0"/>
      </contour>
    </TTGlyph>
    <TTGlyph name="percent" xMin="69" yMin="-12" xMax="839" yMax="710">
      <contour>
        <pt x="185" y="0" on="1"/>
        <pt x="669" y="698" on="1"/>
        <pt x="725" y="698" on="1"/>
        <pt x="241" y="0" on="1"/>
      </contour>
      <contour>
        <pt x="221" y="319" on="1"/>
        <pt x="152" y="319" on="0"/>
        <pt x="69" y="415" on="0"/>
        <pt x="69" y="514" on="1"/>
        <pt x="69" y="614" on="0"/>
        <pt x="152" y="710" on="0"/>
        <pt x="221" y="710" on="1"/>
        <pt x="290" y="710" on="0"/>
        <pt x="373" y="614" on="0"/>
        <pt x="373" y="514" on="1"/>
        <pt x="373" y="415" on="0"/>
        <pt x="290" y="319" on="0"/>
      </contour>
      <contour>
        <pt x="221" y="357" on="1"/>
        <pt x="266" y="357" on="0"/>
        <pt x="321" y="421" on="0"/>
        <pt x="321" y="490" on="1"/>
        <pt x="321" y="539" on="1"/>
        <pt x="321" y="608" on="0"/>
        <pt x="266" y="672" on="0"/>
        <pt x="221" y="672" on="1"/>
        <pt x="176" y="672" on="0"/>
        <pt x="121" y="608" on="0"/>
        <pt x="121" y="539" on="1"/>
        <pt x="121" y="490" on="1"/>
        <pt x="121" y="421" on="0"/>
        <pt x="176" y="357" on="0"/>
      </contour>
      <contour>
        <pt x="687" y="-12" on="1"/>
        <pt x="618" y="-12" on="0"/>
        <pt x="535" y="84" on="0"/>
        <pt x="535" y="183" on="1"/>
        <pt x="535" y="283" on="0"/>
        <pt x="618" y="379" on="0"/>
        <pt x="687" y="379" on="1"/>
        <pt x="756" y="379" on="0"/>
        <pt x="839" y="283" on="0"/>
        <pt x="839" y="183" on="1"/>
        <pt x="839" y="84" on="0"/>
        <pt x="756" y="-12" on="0"/>
      </contour>
      <contour>
        <pt x="687" y="26" on="1"/>
        <pt x="732" y="26" on="0"/>
        <pt x="787" y="90" on="0"/>
        <pt x="787" y="159" on="1"/>
        <pt x="787" y="208" on="1"/>
        <pt x="787" y="277" on="0"/>
        <pt x="732" y="341" on="0"/>
        <pt x="687" y="341" on="1"/>
        <pt x="642" y="341" on="0"/>
        <pt x="587" y="277" on="0"/>
        <pt x="587" y="208" on="1"/>
        <pt x="587" y="159" on="1"/>
        <pt x="587" y="90" on="0"/>
        <pt x="642" y="26" on="0"/>
      </contour>
    </TTGlyph>
    <TTGlyph name="period" xMin="82" yMin="-9" xMax="178" yMax="92">
      <contour>
        <pt x="130" y="-9" on="1"/>
        <pt x="105" y="-9" on="0"/>
        <pt x="82" y="16" on="0"/>
        <pt x="82" y="36" on="1"/>
        <pt x="82" y="47" on="1"/>
        <pt x="82" y="67" on="0"/>
        <pt x="105" y="92" on="0"/>
        <pt x="130" y="92" on="1"/>
        <pt x="154" y="92" on="0"/>
        <pt x="178" y="67" on="0"/>
        <pt x="178" y="47" on="1"/>
        <pt x="178" y="36" on="1"/>
        <pt x="178" y="16" on="0"/>
        <pt x="154" y="-9" on="0"/>
      </contour>
    </TTGlyph>
    <TTGlyph name="periodcentered" xMin="110" yMin="255" xMax="206" yMax="356">
      <contour>
        <pt x="158" y="255" on="1"/>
        <pt x="133" y="255" on="0"/>
        <pt x="110" y="280" on="0"/>
        <pt x="110" y="300" on="1"/>
        <pt x="110" y="311" on="1"/>
        <pt x="110" y="331" on="0"/>
        <pt x="133" y="356" on="0"/>
        <pt x="158" y="356" on="1"/>
        <pt x="182" y="356" on="0"/>
        <pt x="206" y="331" on="0"/>
        <pt x="206" y="311" on="1"/>
        <pt x="206" y="300" on="1"/>
        <pt x="206" y="280" on="0"/>
        <pt x="182" y="255" on="0"/>
      </contour>
    </TTGlyph>
    <TTGlyph name="perthousand" xMin="69" yMin="-12" xMax="1210" yMax="710">
      <contour>
        <pt x="185" y="0" on="1"/>
        <pt x="669" y="698" on="1"/>
        <pt x="725" y="698" on="1"/>
        <pt x="241" y="0" on="1"/>
      </contour>
      <contour>
        <pt x="221" y="319" on="1"/>
        <pt x="152" y="319" on="0"/>
        <pt x="69" y="415" on="0"/>
        <pt x="69" y="514" on="1"/>
        <pt x="69" y="614" on="0"/>
        <pt x="152" y="710" on="0"/>
        <pt x="221" y="710" on="1"/>
        <pt x="290" y="710" on="0"/>
        <pt x="373" y="614" on="0"/>
        <pt x="373" y="514" on="1"/>
        <pt x="373" y="415" on="0"/>
        <pt x="290" y="319" on="0"/>
      </contour>
      <contour>
        <pt x="221" y="357" on="1"/>
        <pt x="266" y="357" on="0"/>
        <pt x="321" y="421" on="0"/>
        <pt x="321" y="490" on="1"/>
        <pt x="321" y="539" on="1"/>
        <pt x="321" y="608" on="0"/>
        <pt x="266" y="672" on="0"/>
        <pt x="221" y="672" on="1"/>
        <pt x="176" y="672" on="0"/>
        <pt x="121" y="608" on="0"/>
        <pt x="121" y="539" on="1"/>
        <pt x="121" y="490" on="1"/>
        <pt x="121" y="421" on="0"/>
        <pt x="176" y="357" on="0"/>
      </contour>
      <contour>
        <pt x="687" y="-12" on="1"/>
        <pt x="618" y="-12" on="0"/>
        <pt x="535" y="84" on="0"/>
        <pt x="535" y="183" on="1"/>
        <pt x="535" y="283" on="0"/>
        <pt x="618" y="379" on="0"/>
        <pt x="687" y="379" on="1"/>
        <pt x="756" y="379" on="0"/>
        <pt x="839" y="283" on="0"/>
        <pt x="839" y="183" on="1"/>
        <pt x="839" y="84" on="0"/>
        <pt x="756" y="-12" on="0"/>
      </contour>
      <contour>
        <pt x="687" y="26" on="1"/>
        <pt x="732" y="26" on="0"/>
        <pt x="787" y="90" on="0"/>
        <pt x="787" y="159" on="1"/>
        <pt x="787" y="208" on="1"/>
        <pt x="787" y="277" on="0"/>
        <pt x="732" y="341" on="0"/>
        <pt x="687" y="341" on="1"/>
        <pt x="642" y="341" on="0"/>
        <pt x="587" y="277" on="0"/>
        <pt x="587" y="208" on="1"/>
        <pt x="587" y="159" on="1"/>
        <pt x="587" y="90" on="0"/>
        <pt x="642" y="26" on="0"/>
      </contour>
      <contour>
        <pt x="1058" y="-12" on="1"/>
        <pt x="989" y="-12" on="0"/>
        <pt x="906" y="84" on="0"/>
        <pt x="906" y="183" on="1"/>
        <pt x="906" y="283" on="0"/>
        <pt x="989" y="379" on="0"/>
        <pt x="1058" y="379" on="1"/>
        <pt x="1127" y="379" on="0"/>
        <pt x="1210" y="283" on="0"/>
        <pt x="1210" y="183" on="1"/>
        <pt x="1210" y="84" on="0"/>
        <pt x="1127" y="-12" on="0"/>
      </contour>
      <contour>
        <pt x="1058" y="26" on="1"/>
        <pt x="1103" y="26" on="0"/>
        <pt x="1158" y="90" on="0"/>
        <pt x="1158" y="159" on="1"/>
        <pt x="1158" y="208" on="1"/>
        <pt x="1158" y="277" on="0"/>
        <pt x="1103" y="341" on="0"/>
        <pt x="1058" y="341" on="1"/>
        <pt x="1013" y="341" on="0"/>
        <pt x="958" y="277" on="0"/>
        <pt x="958" y="208" on="1"/>
        <pt x="958" y="159" on="1"/>
        <pt x="958" y="90" on="0"/>
        <pt x="1013" y="26" on="0"/>
      </contour>
    </TTGlyph>
    <TTGlyph name="pi" xMin="26" yMin="0" xMax="575" yMax="512">
      <contour>
        <pt x="471" y="50" on="1"/>
        <pt x="539" y="50" on="1"/>
        <pt x="539" y="0" on="1"/>
        <pt x="477" y="0" on="1"/>
        <pt x="445" y="0" on="0"/>
        <pt x="414" y="34" on="0"/>
        <pt x="414" y="61" on="1"/>
        <pt x="414" y="462" on="1"/>
        <pt x="178" y="462" on="1"/>
        <pt x="178" y="0" on="1"/>
        <pt x="121" y="0" on="1"/>
        <pt x="121" y="462" on="1"/>
        <pt x="26" y="462" on="1"/>
        <pt x="26" y="512" on="1"/>
        <pt x="575" y="512" on="1"/>
        <pt x="575" y="462" on="1"/>
        <pt x="471" y="462" on="1"/>
      </contour>
    </TTGlyph>
    <TTGlyph name="plus" xMin="65" yMin="63" xMax="535" yMax="548">
      <contour>
        <pt x="273" y="63" on="1"/>
        <pt x="273" y="281" on="1"/>
        <pt x="65" y="281" on="1"/>
        <pt x="65" y="330" on="1"/>
        <pt x="273" y="330" on="1"/>
        <pt x="273" y="548" on="1"/>
        <pt x="327" y="548" on="1"/>
        <pt x="327" y="330" on="1"/>
        <pt x="535" y="330" on="1"/>
        <pt x="535" y="281" on="1"/>
        <pt x="327" y="281" on="1"/>
        <pt x="327" y="63" on="1"/>
      </contour>
    </TTGlyph>
    <TTGlyph name="plusminus" xMin="65" yMin="0" xMax="535" yMax="612">
      <contour>
        <pt x="273" y="137" on="1"/>
        <pt x="273" y="350" on="1"/>
        <pt x="65" y="350" on="1"/>
        <pt x="65" y="399" on="1"/>
        <pt x="273" y="399" on="1"/>
        <pt x="273" y="612" on="1"/>
        <pt x="327" y="612" on="1"/>
        <pt x="327" y="399" on="1"/>
        <pt x="535" y="399" on="1"/>
        <pt x="535" y="350" on="1"/>
        <pt x="327" y="350" on="1"/>
        <pt x="327" y="137" on="1"/>
      </contour>
      <contour>
        <pt x="65" y="0" on="1"/>
        <pt x="65" y="49" on="1"/>
        <pt x="535" y="49" on="1"/>
        <pt x="535" y="0" on="1"/>
      </contour>
    </TTGlyph>
    <TTGlyph name="product" xMin="57" yMin="-200" xMax="650" yMax="698">
      <contour>
        <pt x="133" y="-200" on="1"/>
        <pt x="133" y="645" on="1"/>
        <pt x="57" y="645" on="1"/>
        <pt x="57" y="698" on="1"/>
        <pt x="650" y="698" on="1"/>
        <pt x="650" y="645" on="1"/>
        <pt x="574" y="645" on="1"/>
        <pt x="574" y="-200" on="1"/>
        <pt x="514" y="-200" on="1"/>
        <pt x="514" y="645" on="1"/>
        <pt x="193" y="645" on="1"/>
        <pt x="193" y="-200" on="1"/>
      </contour>
    </TTGlyph>
    <TTGlyph name="q" xMin="54" yMin="-200" xMax="481" yMax="524">
      <contour>
        <pt x="424" y="82" on="1"/>
        <pt x="421" y="82" on="1"/>
        <pt x="401" y="39" on="0"/>
        <pt x="324" y="-12" on="0"/>
        <pt x="265" y="-12" on="1"/>
        <pt x="166" y="-12" on="0"/>
        <pt x="54" y="128" on="0"/>
        <pt x="54" y="256" on="1"/>
        <pt x="54" y="384" on="0"/>
        <pt x="166" y="524" on="0"/>
        <pt x="265" y="524" on="1"/>
        <pt x="324" y="524" on="0"/>
        <pt x="402" y="473" on="0"/>
        <pt x="421" y="430" on="1"/>
        <pt x="424" y="430" on="1"/>
        <pt x="424" y="512" on="1"/>
        <pt x="481" y="512" on="1"/>
        <pt x="481" y="-200" on="1"/>
        <pt x="424" y="-200" on="1"/>
      </contour>
      <contour>
        <pt x="278" y="39" on="1"/>
        <pt x="308" y="39" on="0"/>
        <pt x="361" y="55" on="0"/>
        <pt x="401" y="86" on="0"/>
        <pt x="424" y="129" on="0"/>
        <pt x="424" y="156" on="1"/>
        <pt x="424" y="359" on="1"/>
        <pt x="424" y="384" on="0"/>
        <pt x="401" y="426" on="0"/>
        <pt x="361" y="456" on="0"/>
        <pt x="308" y="473" on="0"/>
        <pt x="278" y="473" on="1"/>
        <pt x="201" y="473" on="0"/>
        <pt x="115" y="375" on="0"/>
        <pt x="115" y="292" on="1"/>
        <pt x="115" y="220" on="1"/>
        <pt x="115" y="137" on="0"/>
        <pt x="201" y="39" on="0"/>
      </contour>
    </TTGlyph>
    <TTGlyph name="question" xMin="28" yMin="-9" xMax="433" yMax="710">
      <contour>
        <pt x="186" y="196" on="1"/>
        <pt x="186" y="363" on="1"/>
        <pt x="274" y="366" on="0"/>
        <pt x="371" y="446" on="0"/>
        <pt x="371" y="513" on="1"/>
        <pt x="371" y="532" on="1"/>
        <pt x="371" y="589" on="0"/>
        <pt x="299" y="658" on="0"/>
        <pt x="236" y="658" on="1"/>
        <pt x="171" y="658" on="0"/>
        <pt x="96" y="590" on="0"/>
        <pt x="81" y="533" on="1"/>
        <pt x="28" y="552" on="1"/>
        <pt x="38" y="586" on="0"/>
        <pt x="73" y="644" on="0"/>
        <pt x="124" y="686" on="0"/>
        <pt x="194" y="710" on="0"/>
        <pt x="238" y="710" on="1"/>
        <pt x="329" y="710" on="0"/>
        <pt x="433" y="610" on="0"/>
        <pt x="433" y="525" on="1"/>
        <pt x="433" y="479" on="0"/>
        <pt x="403" y="408" on="0"/>
        <pt x="350" y="357" on="0"/>
        <pt x="281" y="327" on="0"/>
        <pt x="242" y="321" on="1"/>
        <pt x="242" y="196" on="1"/>
      </contour>
      <contour>
        <pt x="214" y="-9" on="1"/>
        <pt x="190" y="-9" on="0"/>
        <pt x="167" y="15" on="0"/>
        <pt x="167" y="36" on="1"/>
        <pt x="167" y="47" on="1"/>
        <pt x="167" y="68" on="0"/>
        <pt x="190" y="92" on="0"/>
        <pt x="214" y="92" on="1"/>
        <pt x="239" y="92" on="0"/>
        <pt x="262" y="68" on="0"/>
        <pt x="262" y="47" on="1"/>
        <pt x="262" y="36" on="1"/>
        <pt x="262" y="15" on="0"/>
        <pt x="239" y="-9" on="0"/>
      </contour>
    </TTGlyph>
    <TTGlyph name="questiondown" xMin="36" yMin="-198" xMax="440" yMax="521">
      <contour>
        <pt x="231" y="-198" on="1"/>
        <pt x="140" y="-198" on="0"/>
        <pt x="36" y="-98" on="0"/>
        <pt x="36" y="-13" on="1"/>
        <pt x="36" y="33" on="0"/>
        <pt x="66" y="104" on="0"/>
        <pt x="119" y="154" on="0"/>
        <pt x="188" y="184" on="0"/>
        <pt x="227" y="190" on="1"/>
        <pt x="227" y="316" on="1"/>
        <pt x="282" y="316" on="1"/>
        <pt x="282" y="149" on="1"/>
        <pt x="194" y="146" on="0"/>
        <pt x="98" y="66" on="0"/>
        <pt x="98" y="-1" on="1"/>
        <pt x="98" y="-20" on="1"/>
        <pt x="98" y="-77" on="0"/>
        <pt x="170" y="-146" on="0"/>
        <pt x="233" y="-146" on="1"/>
        <pt x="297" y="-146" on="0"/>
        <pt x="373" y="-78" on="0"/>
        <pt x="387" y="-21" on="1"/>
        <pt x="440" y="-40" on="1"/>
        <pt x="431" y="-74" on="0"/>
        <pt x="396" y="-132" on="0"/>
        <pt x="345" y="-174" on="0"/>
        <pt x="275" y="-198" on="0"/>
      </contour>
      <contour>
        <pt x="256" y="420" on="1"/>
        <pt x="231" y="420" on="0"/>
        <pt x="208" y="445" on="0"/>
        <pt x="208" y="465" on="1"/>
        <pt x="208" y="476" on="1"/>
        <pt x="208" y="496" on="0"/>
        <pt x="231" y="521" on="0"/>
        <pt x="256" y="521" on="1"/>
        <pt x="280" y="521" on="0"/>
        <pt x="304" y="496" on="0"/>
        <pt x="304" y="476" on="1"/>
        <pt x="304" y="465" on="1"/>
        <pt x="304" y="445" on="0"/>
        <pt x="280" y="420" on="0"/>
      </contour>
    </TTGlyph>
    <TTGlyph name="quotedbl" xMin="90" yMin="472" xMax="310" yMax="740">
      <component glyphName="quotesingle" x="0" y="0" flags="0x4"/>
      <component glyphName="quotesingle" x="168" y="0" flags="0x4"/>
    </TTGlyph>
    <TTGlyph name="quotedblbase" xMin="42" yMin="-123" xMax="361" yMax="107">
      <component glyphName="quotesinglbase" x="0" y="0" flags="0x4"/>
      <component glyphName="quotesinglbase" x="185" y="0" flags="0x4"/>
    </TTGlyph>
    <TTGlyph name="quotedblleft" xMin="78" yMin="510" xMax="398" yMax="740">
      <component glyphName="quoteleft" x="0" y="0" flags="0x4"/>
      <component glyphName="quoteleft" x="186" y="0" flags="0x4"/>
    </TTGlyph>
    <TTGlyph name="quotedblright" xMin="48" yMin="520" xMax="367" yMax="750">
      <component glyphName="quoteright" x="0" y="0" flags="0x4"/>
      <component glyphName="quoteright" x="185" y="0" flags="0x4"/>
    </TTGlyph>
    <TTGlyph name="quoteleft" xMin="78" yMin="510" xMax="212" yMax="740">
      <contour>
        <pt x="125" y="510" on="1"/>
        <pt x="101" y="510" on="0"/>
        <pt x="78" y="535" on="0"/>
        <pt x="78" y="556" on="1"/>
        <pt x="78" y="569" on="1"/>
        <pt x="78" y="589" on="0"/>
        <pt x="90" y="635" on="0"/>
        <pt x="113" y="681" on="0"/>
        <pt x="144" y="723" on="0"/>
        <pt x="164" y="740" on="1"/>
        <pt x="212" y="740" on="1"/>
        <pt x="179" y="706" on="0"/>
        <pt x="144" y="641" on="0"/>
        <pt x="137" y="609" on="1"/>
        <pt x="157" y="606" on="0"/>
        <pt x="174" y="584" on="0"/>
        <pt x="174" y="568" on="1"/>
        <pt x="174" y="556" on="1"/>
        <pt x="174" y="535" on="0"/>
        <pt x="151" y="510" on="0"/>
      </contour>
    </TTGlyph>
    <TTGlyph name="quoteright" xMin="48" yMin="520" xMax="182" yMax="750">
      <contour>
        <pt x="134" y="750" on="1"/>
        <pt x="159" y="750" on="0"/>
        <pt x="182" y="724" on="0"/>
        <pt x="182" y="704" on="1"/>
        <pt x="182" y="691" on="1"/>
        <pt x="182" y="649" on="0"/>
        <pt x="135" y="554" on="0"/>
        <pt x="96" y="520" on="1"/>
        <pt x="48" y="520" on="1"/>
        <pt x="81" y="554" on="0"/>
        <pt x="116" y="618" on="0"/>
        <pt x="122" y="651" on="1"/>
        <pt x="103" y="653" on="0"/>
        <pt x="86" y="676" on="0"/>
        <pt x="86" y="692" on="1"/>
        <pt x="86" y="704" on="1"/>
        <pt x="86" y="724" on="0"/>
        <pt x="109" y="750" on="0"/>
      </contour>
    </TTGlyph>
    <TTGlyph name="quotesinglbase" xMin="42" yMin="-123" xMax="176" yMax="107">
      <contour>
        <pt x="128" y="107" on="1"/>
        <pt x="153" y="107" on="0"/>
        <pt x="176" y="81" on="0"/>
        <pt x="176" y="61" on="1"/>
        <pt x="176" y="48" on="1"/>
        <pt x="176" y="6" on="0"/>
        <pt x="129" y="-89" on="0"/>
        <pt x="90" y="-123" on="1"/>
        <pt x="42" y="-123" on="1"/>
        <pt x="75" y="-89" on="0"/>
        <pt x="110" y="-25" on="0"/>
        <pt x="116" y="8" on="1"/>
        <pt x="97" y="10" on="0"/>
        <pt x="80" y="33" on="0"/>
        <pt x="80" y="49" on="1"/>
        <pt x="80" y="61" on="1"/>
        <pt x="80" y="81" on="0"/>
        <pt x="103" y="107" on="0"/>
      </contour>
    </TTGlyph>
    <TTGlyph name="quotesingle" xMin="90" yMin="472" xMax="142" yMax="740">
      <contour>
        <pt x="90" y="472" on="1"/>
        <pt x="90" y="740" on="1"/>
        <pt x="142" y="740" on="1"/>
        <pt x="142" y="472" on="1"/>
      </contour>
    </TTGlyph>
    <TTGlyph name="r" xMin="93" yMin="0" xMax="341" yMax="512">
      <contour>
        <pt x="93" y="0" on="1"/>
        <pt x="93" y="512" on="1"/>
        <pt x="150" y="512" on="1"/>
        <pt x="150" y="420" on="1"/>
        <pt x="154" y="420" on="1"/>
        <pt x="169" y="456" on="0"/>
        <pt x="241" y="512" on="0"/>
        <pt x="307" y="512" on="1"/>
        <pt x="341" y="512" on="1"/>
        <pt x="341" y="456" on="1"/>
        <pt x="296" y="456" on="1"/>
        <pt x="232" y="456" on="0"/>
        <pt x="150" y="400" on="0"/>
        <pt x="150" y="350" on="1"/>
        <pt x="150" y="0" on="1"/>
      </contour>
    </TTGlyph>
    <TTGlyph name="radical" xMin="28" yMin="0" xMax="555" yMax="698">
      <contour>
        <pt x="267" y="0" on="1"/>
        <pt x="136" y="466" on="1"/>
        <pt x="28" y="466" on="1"/>
        <pt x="28" y="512" on="1"/>
        <pt x="179" y="512" on="1"/>
        <pt x="306" y="51" on="1"/>
        <pt x="310" y="51" on="1"/>
        <pt x="499" y="698" on="1"/>
        <pt x="555" y="698" on="1"/>
        <pt x="347" y="0" on="1"/>
      </contour>
    </TTGlyph>
    <TTGlyph name="registered" xMin="38" yMin="298" xMax="434" yMax="710">
      <contour>
        <pt x="236" y="298" on="1"/>
        <pt x="194" y="298" on="0"/>
        <pt x="122" y="329" on="0"/>
        <pt x="69" y="384" on="0"/>
        <pt x="38" y="459" on="0"/>
        <pt x="38" y="504" on="1"/>
        <pt x="38" y="549" on="0"/>
        <pt x="69" y="624" on="0"/>
        <pt x="122" y="679" on="0"/>
        <pt x="194" y="710" on="0"/>
        <pt x="236" y="710" on="1"/>
        <pt x="278" y="710" on="0"/>
        <pt x="350" y="679" on="0"/>
        <pt x="403" y="624" on="0"/>
        <pt x="434" y="549" on="0"/>
        <pt x="434" y="504" on="1"/>
        <pt x="434" y="459" on="0"/>
        <pt x="403" y="384" on="0"/>
        <pt x="350" y="329" on="0"/>
        <pt x="278" y="298" on="0"/>
      </contour>
      <contour>
        <pt x="236" y="329" on="1"/>
        <pt x="272" y="329" on="0"/>
        <pt x="332" y="355" on="0"/>
        <pt x="376" y="400" on="0"/>
        <pt x="400" y="460" on="0"/>
        <pt x="400" y="493" on="1"/>
        <pt x="400" y="515" on="1"/>
        <pt x="400" y="548" on="0"/>
        <pt x="376" y="608" on="0"/>
        <pt x="332" y="653" on="0"/>
        <pt x="272" y="679" on="0"/>
        <pt x="236" y="679" on="1"/>
        <pt x="200" y="679" on="0"/>
        <pt x="140" y="653" on="0"/>
        <pt x="96" y="608" on="0"/>
        <pt x="72" y="548" on="0"/>
        <pt x="72" y="515" on="1"/>
        <pt x="72" y="493" on="1"/>
        <pt x="72" y="460" on="0"/>
        <pt x="96" y="400" on="0"/>
        <pt x="140" y="355" on="0"/>
        <pt x="200" y="329" on="0"/>
      </contour>
      <contour>
        <pt x="196" y="396" on="1"/>
        <pt x="165" y="396" on="1"/>
        <pt x="165" y="607" on="1"/>
        <pt x="251" y="607" on="1"/>
        <pt x="281" y="607" on="0"/>
        <pt x="315" y="574" on="0"/>
        <pt x="315" y="544" on="1"/>
        <pt x="315" y="518" on="0"/>
        <pt x="291" y="489" on="0"/>
        <pt x="273" y="484" on="1"/>
        <pt x="323" y="396" on="1"/>
        <pt x="289" y="396" on="1"/>
        <pt x="242" y="481" on="1"/>
        <pt x="196" y="481" on="1"/>
      </contour>
      <contour>
        <pt x="250" y="506" on="1"/>
        <pt x="282" y="506" on="0"/>
        <pt x="282" y="535" on="1"/>
        <pt x="282" y="551" on="1"/>
        <pt x="282" y="581" on="0"/>
        <pt x="250" y="581" on="1"/>
        <pt x="196" y="581" on="1"/>
        <pt x="196" y="506" on="1"/>
      </contour>
    </TTGlyph>
    <TTGlyph name="ring" xMin="194" yMin="581" xMax="406" yMax="792">
      <contour>
        <pt x="300" y="581" on="1"/>
        <pt x="254" y="581" on="0"/>
        <pt x="194" y="640" on="0"/>
        <pt x="194" y="687" on="1"/>
        <pt x="194" y="733" on="0"/>
        <pt x="254" y="792" on="0"/>
        <pt x="300" y="792" on="1"/>
        <pt x="346" y="792" on="0"/>
        <pt x="406" y="733" on="0"/>
        <pt x="406" y="687" on="1"/>
        <pt x="406" y="640" on="0"/>
        <pt x="346" y="581" on="0"/>
      </contour>
      <contour>
        <pt x="300" y="618" on="1"/>
        <pt x="329" y="618" on="0"/>
        <pt x="363" y="650" on="0"/>
        <pt x="363" y="678" on="1"/>
        <pt x="363" y="695" on="1"/>
        <pt x="363" y="724" on="0"/>
        <pt x="329" y="755" on="0"/>
        <pt x="300" y="755" on="1"/>
        <pt x="271" y="755" on="0"/>
        <pt x="237" y="724" on="0"/>
        <pt x="237" y="695" on="1"/>
        <pt x="237" y="678" on="1"/>
        <pt x="237" y="650" on="0"/>
        <pt x="271" y="618" on="0"/>
      </contour>
    </TTGlyph>
    <TTGlyph name="ring.case" xMin="194" yMin="755" xMax="406" yMax="966">
      <contour>
        <pt x="300" y="755" on="1"/>
        <pt x="254" y="755" on="0"/>
        <pt x="194" y="814" on="0"/>
        <pt x="194" y="861" on="1"/>
        <pt x="194" y="907" on="0"/>
        <pt x="254" y="966" on="0"/>
        <pt x="300" y="966" on="1"/>
        <pt x="346" y="966" on="0"/>
        <pt x="406" y="907" on="0"/>
        <pt x="406" y="861" on="1"/>
        <pt x="406" y="814" on="0"/>
        <pt x="346" y="755" on="0"/>
      </contour>
      <contour>
        <pt x="300" y="792" on="1"/>
        <pt x="329" y="792" on="0"/>
        <pt x="363" y="824" on="0"/>
        <pt x="363" y="852" on="1"/>
        <pt x="363" y="869" on="1"/>
        <pt x="363" y="898" on="0"/>
        <pt x="329" y="929" on="0"/>
        <pt x="300" y="929" on="1"/>
        <pt x="271" y="929" on="0"/>
        <pt x="237" y="898" on="0"/>
        <pt x="237" y="869" on="1"/>
        <pt x="237" y="852" on="1"/>
        <pt x="237" y="824" on="0"/>
        <pt x="271" y="792" on="0"/>
      </contour>
    </TTGlyph>
    <TTGlyph name="s" xMin="41" yMin="-12" xMax="420" yMax="524">
      <contour>
        <pt x="238" y="-12" on="1"/>
        <pt x="171" y="-12" on="0"/>
        <pt x="76" y="38" on="0"/>
        <pt x="41" y="86" on="1"/>
        <pt x="83" y="119" on="1"/>
        <pt x="115" y="77" on="0"/>
        <pt x="191" y="37" on="0"/>
        <pt x="242" y="37" on="1"/>
        <pt x="301" y="37" on="0"/>
        <pt x="365" y="87" on="0"/>
        <pt x="365" y="134" on="1"/>
        <pt x="365" y="175" on="0"/>
        <pt x="316" y="222" on="0"/>
        <pt x="260" y="230" on="1"/>
        <pt x="218" y="237" on="1"/>
        <pt x="183" y="242" on="0"/>
        <pt x="125" y="262" on="0"/>
        <pt x="84" y="296" on="0"/>
        <pt x="61" y="345" on="0"/>
        <pt x="61" y="380" on="1"/>
        <pt x="61" y="416" on="0"/>
        <pt x="88" y="470" on="0"/>
        <pt x="134" y="506" on="0"/>
        <pt x="198" y="524" on="0"/>
        <pt x="235" y="524" on="1"/>
        <pt x="299" y="524" on="0"/>
        <pt x="381" y="480" on="0"/>
        <pt x="410" y="445" on="1"/>
        <pt x="372" y="410" on="1"/>
        <pt x="352" y="434" on="0"/>
        <pt x="285" y="475" on="0"/>
        <pt x="232" y="475" on="1"/>
        <pt x="177" y="475" on="0"/>
        <pt x="116" y="427" on="0"/>
        <pt x="116" y="383" on="1"/>
        <pt x="116" y="338" on="0"/>
        <pt x="171" y="298" on="0"/>
        <pt x="226" y="289" on="1"/>
        <pt x="267" y="283" on="1"/>
        <pt x="345" y="271" on="0"/>
        <pt x="420" y="202" on="0"/>
        <pt x="420" y="140" on="1"/>
        <pt x="420" y="68" on="0"/>
        <pt x="323" y="-12" on="0"/>
      </contour>
    </TTGlyph>
    <TTGlyph name="scaron" xMin="41" yMin="-12" xMax="420" yMax="763">
      <component glyphName="s" x="0" y="0" flags="0x204"/>
      <component glyphName="caron" x="-67" y="0" flags="0x4"/>
    </TTGlyph>
    <TTGlyph name="section" xMin="80" yMin="-155" xMax="498" yMax="710">
      <contour>
        <pt x="442" y="261" on="1"/>
        <pt x="442" y="310" on="0"/>
        <pt x="382" y="367" on="0"/>
        <pt x="319" y="385" on="1"/>
        <pt x="255" y="404" on="1"/>
        <pt x="245" y="406" on="0"/>
        <pt x="227" y="413" on="0"/>
        <pt x="218" y="417" on="1"/>
        <pt x="180" y="396" on="0"/>
        <pt x="136" y="336" on="0"/>
        <pt x="136" y="294" on="1"/>
        <pt x="136" y="245" on="0"/>
        <pt x="196" y="188" on="0"/>
        <pt x="258" y="170" on="1"/>
        <pt x="322" y="152" on="1"/>
        <pt x="332" y="149" on="0"/>
        <pt x="350" y="142" on="0"/>
        <pt x="359" y="138" on="1"/>
        <pt x="397" y="160" on="0"/>
        <pt x="442" y="219" on="0"/>
      </contour>
      <contour>
        <pt x="462" y="-3" on="1"/>
        <pt x="462" y="-39" on="0"/>
        <pt x="434" y="-96" on="0"/>
        <pt x="384" y="-135" on="0"/>
        <pt x="315" y="-155" on="0"/>
        <pt x="274" y="-155" on="1"/>
        <pt x="224" y="-155" on="0"/>
        <pt x="143" y="-126" on="0"/>
        <pt x="112" y="-99" on="1"/>
        <pt x="145" y="-59" on="1"/>
        <pt x="169" y="-79" on="0"/>
        <pt x="232" y="-105" on="0"/>
        <pt x="275" y="-105" on="1"/>
        <pt x="337" y="-105" on="0"/>
        <pt x="406" y="-52" on="0"/>
        <pt x="406" y="-4" on="1"/>
        <pt x="406" y="42" on="0"/>
        <pt x="343" y="91" on="0"/>
        <pt x="294" y="106" on="1"/>
        <pt x="229" y="126" on="1"/>
        <pt x="154" y="149" on="0"/>
        <pt x="80" y="223" on="0"/>
        <pt x="80" y="281" on="1"/>
        <pt x="80" y="332" on="0"/>
        <pt x="138" y="406" on="0"/>
        <pt x="189" y="426" on="1"/>
        <pt x="189" y="432" on="1"/>
        <pt x="155" y="454" on="0"/>
        <pt x="115" y="516" on="0"/>
        <pt x="115" y="559" on="1"/>
        <pt x="115" y="595" on="0"/>
        <pt x="143" y="651" on="0"/>
        <pt x="193" y="690" on="0"/>
        <pt x="262" y="710" on="0"/>
        <pt x="303" y="710" on="1"/>
        <pt x="403" y="710" on="0"/>
        <pt x="465" y="654" on="1"/>
        <pt x="432" y="614" on="1"/>
        <pt x="408" y="635" on="0"/>
        <pt x="345" y="660" on="0"/>
        <pt x="302" y="660" on="1"/>
        <pt x="240" y="660" on="0"/>
        <pt x="171" y="607" on="0"/>
        <pt x="171" y="559" on="1"/>
        <pt x="171" y="513" on="0"/>
        <pt x="234" y="465" on="0"/>
        <pt x="283" y="450" on="1"/>
        <pt x="347" y="430" on="1"/>
        <pt x="423" y="406" on="0"/>
        <pt x="498" y="332" on="0"/>
        <pt x="498" y="275" on="1"/>
        <pt x="498" y="223" on="0"/>
        <pt x="439" y="149" on="0"/>
        <pt x="388" y="129" on="1"/>
        <pt x="388" y="124" on="1"/>
        <pt x="423" y="102" on="0"/>
        <pt x="462" y="39" on="0"/>
      </contour>
    </TTGlyph>
    <TTGlyph name="semicolon" xMin="54" yMin="-138" xMax="188" yMax="521">
      <component glyphName="comma" x="10" y="0" flags="0x4"/>
      <component glyphName="period" x="10" y="429" flags="0x4"/>
    </TTGlyph>
    <TTGlyph name="seven" xMin="72" yMin="0" xMax="521" yMax="698">
      <contour>
        <pt x="180" y="0" on="1"/>
        <pt x="460" y="646" on="1"/>
        <pt x="126" y="646" on="1"/>
        <pt x="126" y="502" on="1"/>
        <pt x="72" y="502" on="1"/>
        <pt x="72" y="698" on="1"/>
        <pt x="521" y="698" on="1"/>
        <pt x="521" y="645" on="1"/>
        <pt x="244" y="0" on="1"/>
      </contour>
    </TTGlyph>
    <TTGlyph name="six" xMin="75" yMin="-12" xMax="524" yMax="698">
      <contour>
        <pt x="301" y="-12" on="1"/>
        <pt x="245" y="-12" on="0"/>
        <pt x="161" y="25" on="0"/>
        <pt x="104" y="92" on="0"/>
        <pt x="75" y="187" on="0"/>
        <pt x="75" y="244" on="1"/>
        <pt x="75" y="325" on="0"/>
        <pt x="120" y="464" on="0"/>
        <pt x="192" y="578" on="0"/>
        <pt x="285" y="667" on="0"/>
        <pt x="333" y="698" on="1"/>
        <pt x="412" y="698" on="1"/>
        <pt x="354" y="658" on="0"/>
        <pt x="264" y="578" on="0"/>
        <pt x="196" y="489" on="0"/>
        <pt x="151" y="387" on="0"/>
        <pt x="138" y="326" on="1"/>
        <pt x="142" y="325" on="1"/>
        <pt x="168" y="372" on="0"/>
        <pt x="253" y="427" on="0"/>
        <pt x="316" y="427" on="1"/>
        <pt x="362" y="427" on="0"/>
        <pt x="439" y="397" on="0"/>
        <pt x="494" y="342" on="0"/>
        <pt x="524" y="263" on="0"/>
        <pt x="524" y="214" on="1"/>
        <pt x="524" y="163" on="0"/>
        <pt x="492" y="80" on="0"/>
        <pt x="434" y="21" on="0"/>
        <pt x="352" y="-12" on="0"/>
      </contour>
      <contour>
        <pt x="300" y="40" on="1"/>
        <pt x="376" y="40" on="0"/>
        <pt x="462" y="127" on="0"/>
        <pt x="462" y="200" on="1"/>
        <pt x="462" y="217" on="1"/>
        <pt x="462" y="290" on="0"/>
        <pt x="377" y="376" on="0"/>
        <pt x="300" y="376" on="1"/>
        <pt x="222" y="376" on="0"/>
        <pt x="137" y="290" on="0"/>
        <pt x="137" y="217" on="1"/>
        <pt x="137" y="201" on="1"/>
        <pt x="137" y="127" on="0"/>
        <pt x="223" y="40" on="0"/>
      </contour>
    </TTGlyph>
    <TTGlyph name="slash" xMin="11" yMin="-151" xMax="314" yMax="740">
      <contour>
        <pt x="11" y="-151" on="1"/>
        <pt x="263" y="740" on="1"/>
        <pt x="314" y="740" on="1"/>
        <pt x="62" y="-151" on="1"/>
      </contour>
    </TTGlyph>
    <TTGlyph name="sterling" xMin="64" yMin="0" xMax="534" yMax="710">
      <contour>
        <pt x="82" y="0" on="1"/>
        <pt x="82" y="71" on="1"/>
        <pt x="124" y="94" on="0"/>
        <pt x="164" y="179" on="0"/>
        <pt x="164" y="230" on="1"/>
        <pt x="164" y="248" on="0"/>
        <pt x="159" y="281" on="0"/>
        <pt x="156" y="296" on="1"/>
        <pt x="64" y="296" on="1"/>
        <pt x="64" y="346" on="1"/>
        <pt x="142" y="346" on="1"/>
        <pt x="129" y="384" on="0"/>
        <pt x="105" y="458" on="0"/>
        <pt x="105" y="503" on="1"/>
        <pt x="105" y="550" on="0"/>
        <pt x="136" y="626" on="0"/>
        <pt x="194" y="680" on="0"/>
        <pt x="275" y="710" on="0"/>
        <pt x="326" y="710" on="1"/>
        <pt x="398" y="710" on="0"/>
        <pt x="500" y="651" on="0"/>
        <pt x="534" y="594" on="1"/>
        <pt x="488" y="562" on="1"/>
        <pt x="460" y="609" on="0"/>
        <pt x="380" y="657" on="0"/>
        <pt x="324" y="657" on="1"/>
        <pt x="252" y="657" on="0"/>
        <pt x="166" y="576" on="0"/>
        <pt x="166" y="498" on="1"/>
        <pt x="166" y="455" on="0"/>
        <pt x="190" y="382" on="0"/>
        <pt x="202" y="346" on="1"/>
        <pt x="419" y="346" on="1"/>
        <pt x="419" y="296" on="1"/>
        <pt x="215" y="296" on="1"/>
        <pt x="218" y="282" on="0"/>
        <pt x="222" y="253" on="0"/>
        <pt x="222" y="236" on="1"/>
        <pt x="222" y="178" on="0"/>
        <pt x="176" y="83" on="0"/>
        <pt x="140" y="57" on="1"/>
        <pt x="140" y="54" on="1"/>
        <pt x="520" y="54" on="1"/>
        <pt x="520" y="0" on="1"/>
      </contour>
    </TTGlyph>
    <TTGlyph name="summation" xMin="17" yMin="-200" xMax="459" yMax="698">
      <contour>
        <pt x="459" y="-200" on="1"/>
        <pt x="17" y="-200" on="1"/>
        <pt x="17" y="-148" on="1"/>
        <pt x="295" y="247" on="1"/>
        <pt x="295" y="251" on="1"/>
        <pt x="17" y="646" on="1"/>
        <pt x="17" y="698" on="1"/>
        <pt x="459" y="698" on="1"/>
        <pt x="459" y="645" on="1"/>
        <pt x="83" y="645" on="1"/>
        <pt x="349" y="268" on="1"/>
        <pt x="349" y="230" on="1"/>
        <pt x="83" y="-147" on="1"/>
        <pt x="459" y="-147" on="1"/>
      </contour>
    </TTGlyph>
    <TTGlyph name="t" xMin="29" yMin="0" xMax="291" yMax="655">
      <contour>
        <pt x="181" y="0" on="1"/>
        <pt x="150" y="0" on="0"/>
        <pt x="118" y="34" on="0"/>
        <pt x="118" y="63" on="1"/>
        <pt x="118" y="462" on="1"/>
        <pt x="29" y="462" on="1"/>
        <pt x="29" y="512" on="1"/>
        <pt x="87" y="512" on="1"/>
        <pt x="108" y="512" on="0"/>
        <pt x="123" y="529" on="0"/>
        <pt x="123" y="551" on="1"/>
        <pt x="123" y="655" on="1"/>
        <pt x="175" y="655" on="1"/>
        <pt x="175" y="512" on="1"/>
        <pt x="291" y="512" on="1"/>
        <pt x="291" y="462" on="1"/>
        <pt x="175" y="462" on="1"/>
        <pt x="175" y="50" on="1"/>
        <pt x="283" y="50" on="1"/>
        <pt x="283" y="0" on="1"/>
      </contour>
    </TTGlyph>
</ttFont>
